<svg width="59" height="74" viewBox="0 0 59 74" fill="none" xmlns="http://www.w3.org/2000/svg">
<path d="M37.0161 37.9115L25.3776 49.5853L20.8141 44.9865C20.148 44.3204 19.2446 43.9462 18.3025 43.9462C17.3604 43.9462 16.457 44.3204 15.7908 44.9865C15.1247 45.6527 14.7505 46.5561 14.7505 47.4982C14.7505 48.4402 15.1247 49.3437 15.7908 50.0098L22.8659 57.0849C23.1948 57.4165 23.586 57.6796 24.0171 57.8592C24.4482 58.0388 24.9106 58.1313 25.3776 58.1313C25.8446 58.1313 26.3069 58.0388 26.738 57.8592C27.1691 57.6796 27.5604 57.4165 27.8892 57.0849L42.0394 42.9348C42.7055 42.2686 43.0797 41.3652 43.0797 40.4231C43.0797 39.4811 42.7055 38.5776 42.0394 37.9115C41.3732 37.2453 40.4698 36.8711 39.5277 36.8711C38.5857 36.8711 37.6822 37.2453 37.0161 37.9115Z" fill="#00A3FF"/>
<path d="M47.9375 7.375H43.5863C42.8255 5.22316 41.4177 3.35931 39.5561 2.03896C37.6944 0.718615 35.4699 0.00641445 33.1875 0H25.8125C23.5301 0.00641445 21.3056 0.718615 19.4439 2.03896C17.5823 3.35931 16.1745 5.22316 15.4138 7.375H11.0625C8.12854 7.375 5.31475 8.54051 3.24013 10.6151C1.16551 12.6898 0 15.5035 0 18.4375V62.6875C0 65.6215 1.16551 68.4352 3.24013 70.5099C5.31475 72.5845 8.12854 73.75 11.0625 73.75H47.9375C50.8715 73.75 53.6852 72.5845 55.7599 70.5099C57.8345 68.4352 59 65.6215 59 62.6875V18.4375C59 15.5035 57.8345 12.6898 55.7599 10.6151C53.6852 8.54051 50.8715 7.375 47.9375 7.375ZM22.125 11.0625C22.125 10.0845 22.5135 9.14658 23.205 8.45504C23.8966 7.7635 24.8345 7.375 25.8125 7.375H33.1875C34.1655 7.375 35.1034 7.7635 35.795 8.45504C36.4865 9.14658 36.875 10.0845 36.875 11.0625V14.75H22.125V11.0625ZM51.625 62.6875C51.625 63.6655 51.2365 64.6034 50.545 65.295C49.8534 65.9865 48.9155 66.375 47.9375 66.375H11.0625C10.0845 66.375 9.14658 65.9865 8.45504 65.295C7.7635 64.6034 7.375 63.6655 7.375 62.6875V18.4375C7.375 17.4595 7.7635 16.5216 8.45504 15.83C9.14658 15.1385 10.0845 14.75 11.0625 14.75H14.75V18.4375C14.75 19.4155 15.1385 20.3534 15.83 21.045C16.5216 21.7365 17.4595 22.125 18.4375 22.125H40.5625C41.5405 22.125 42.4784 21.7365 43.17 21.045C43.8615 20.3534 44.25 19.4155 44.25 18.4375V14.75H47.9375C48.9155 14.75 49.8534 15.1385 50.545 15.83C51.2365 16.5216 51.625 17.4595 51.625 18.4375V62.6875Z" fill="#00A3FF"/>
</svg>
