<svg width="88" height="78" viewBox="0 0 88 78" fill="none" xmlns="http://www.w3.org/2000/svg">
<path d="M80.0357 8.05586C75.3394 3.40797 69.1365 0.591691 62.5462 0.115189C55.956 -0.361312 49.4124 1.53335 44.0963 5.4573C38.4924 1.28919 31.5174 -0.600828 24.5759 0.167845C17.6343 0.936519 11.2418 4.30679 6.68566 9.59996C2.12951 14.8931 -0.251855 21.716 0.0211206 28.6947C0.294097 35.6734 3.20113 42.2894 8.15682 47.2105L34.5829 73.8568C37.0603 76.3312 40.4186 77.721 43.9201 77.721C47.4216 77.721 50.7799 76.3312 53.2573 73.8568L79.6834 47.2105C82.2861 44.6676 84.3605 41.6355 85.7876 38.2883C87.2146 34.9412 87.9661 31.345 87.9989 27.7064C88.0316 24.0679 87.345 20.4588 85.9784 17.0864C84.6118 13.7141 82.5922 10.6452 80.0357 8.05586ZM73.8256 40.9123L47.3995 67.3384C46.9901 67.7512 46.503 68.0788 45.9663 68.3024C45.4296 68.526 44.8539 68.6412 44.2725 68.6412C43.691 68.6412 43.1154 68.526 42.5787 68.3024C42.0419 68.0788 41.5548 67.7512 41.1454 67.3384L14.7193 40.9123C11.2652 37.3815 9.33107 32.6386 9.33107 27.6992C9.33107 22.7599 11.2652 18.017 14.7193 14.4862C18.2391 11.0111 22.9861 9.06256 27.9323 9.06256C32.8785 9.06256 37.6256 11.0111 41.1454 14.4862C41.5548 14.899 42.0419 15.2267 42.5787 15.4503C43.1154 15.6739 43.691 15.789 44.2725 15.789C44.8539 15.789 45.4296 15.6739 45.9663 15.4503C46.503 15.2267 46.9901 14.899 47.3995 14.4862C51.0145 11.6097 55.5617 10.1643 60.1741 10.4258C64.7864 10.6873 69.1412 12.6373 72.4079 15.904C75.6745 19.1706 77.6245 23.5254 77.886 28.1378C78.1475 32.7501 76.7022 37.2974 73.8256 40.9123Z" fill="white"/>
</svg>
