<svg width="37" height="29" viewBox="0 0 37 29" fill="none" xmlns="http://www.w3.org/2000/svg">
<path fill-rule="evenodd" clip-rule="evenodd" d="M31.0909 1.74949C31.0955 1.74753 31.178 1.92868 35.6326 11.0004C36.7375 13.2507 35.4321 15.8564 33.0303 16.4953V25.9094C33.0303 27.5968 31.6072 28.9696 29.858 28.9696H19.4953V29H16.5347V28.9696H6.17198C4.4228 28.9696 2.99973 27.5968 2.99973 25.9094V16.4952C0.599254 15.8567 -0.708064 13.2519 0.3975 11.0004C4.8497 1.93338 4.93458 1.7475 4.93916 1.74946C4.93938 1.74955 4.93941 1.75008 4.93973 1.75008C5.46181 0.686974 6.58712 0 7.8066 0H28.2235C29.4429 0 30.5682 0.686974 31.0903 1.75008C31.0906 1.75008 31.0907 1.74958 31.0909 1.74949ZM22.1374 2.85615H19.4954L19.4955 11.4209C19.4955 12.7229 20.5934 13.782 21.9431 13.782C23.5491 13.782 24.7183 12.317 24.31 10.8201L22.1374 2.85615ZM12.1486 12.8626C13.5658 14.6359 16.5347 13.6745 16.5347 11.421V2.85615H13.8927L11.7201 10.8201C11.5255 11.5338 11.6817 12.2781 12.1486 12.8626ZM7.61615 2.97229C7.61858 2.97354 7.48446 3.23961 3.07333 12.2231C2.71775 12.9472 3.26493 13.7821 4.09599 13.782H5.96381C7.07473 13.782 8.04804 13.0582 8.3308 12.0218L10.8312 2.85615H7.80667C7.72539 2.85615 7.65031 2.90199 7.61549 2.97285C7.61575 2.97259 7.61606 2.97224 7.61615 2.97229ZM6.17198 26.1134H29.8581C29.9747 26.1134 30.0696 26.0219 30.0696 25.9094C30.0696 17.006 30.0728 16.6353 30.0679 16.6352C30.0674 16.6352 30.0669 16.6383 30.0663 16.6383C28.4731 16.6383 27.0085 15.9639 26.0055 14.8649C23.903 17.1803 20.2 17.231 18.015 15.0018C15.8315 17.2295 12.1283 17.1817 10.0246 14.8649C9.02157 15.964 7.55698 16.6383 5.96374 16.6383C5.96315 16.6383 5.96264 16.6352 5.96219 16.6352C5.95729 16.6353 5.96049 17.0073 5.96049 25.9094C5.96049 26.0219 6.05538 26.1134 6.17198 26.1134ZM30.0663 13.7821H31.9341C32.7646 13.7821 33.3125 12.9476 32.9568 12.2231C28.5434 3.23518 28.4116 2.9737 28.4141 2.97242C28.4142 2.97237 28.4144 2.97263 28.4146 2.97285C28.3798 2.90192 28.3047 2.85615 28.2235 2.85615H25.199L27.6993 12.0219C27.982 13.0583 28.9553 13.7821 30.0663 13.7821Z" fill="#C8CED5"/>
</svg>
