<svg width="30" height="30" viewBox="0 0 30 30" fill="none" xmlns="http://www.w3.org/2000/svg">
<circle cx="15" cy="15" r="15" fill="white" fill-opacity="0.1"/>
<mask id="path-2-inside-1" fill="white">
<path d="M23.3053 18.4672C22.7351 19.8331 21.8369 21.0372 20.6902 21.9729C19.5435 22.9087 18.1837 23.5472 16.7313 23.8319C15.2789 24.1166 13.7786 24.0387 12.3635 23.6052C10.9484 23.1716 9.66202 22.3957 8.61837 21.3462C7.57473 20.2968 6.80601 19.0061 6.38031 17.5886C5.95461 16.1711 5.88507 14.6705 6.17785 13.2197C6.47063 11.7688 7.11669 10.4126 8.05881 9.27114C9.00092 8.12965 10.21 7.23813 11.579 6.67554L11.921 7.50767C10.6888 8.01402 9.6006 8.81642 8.75266 9.84381C7.90472 10.8712 7.32324 12.0918 7.05972 13.3976C6.79621 14.7034 6.8588 16.054 7.24194 17.3298C7.62509 18.6057 8.31697 19.7673 9.25629 20.7119C10.1956 21.6564 11.3534 22.3547 12.6271 22.745C13.9007 23.1352 15.251 23.2053 16.5582 22.9491C17.8654 22.6928 19.0893 22.1181 20.1214 21.2759C21.1535 20.4337 21.9619 19.3499 22.4751 18.1207L23.3053 18.4672Z"/>
</mask>
<path d="M23.3053 18.4672C22.7351 19.8331 21.8369 21.0372 20.6902 21.9729C19.5435 22.9087 18.1837 23.5472 16.7313 23.8319C15.2789 24.1166 13.7786 24.0387 12.3635 23.6052C10.9484 23.1716 9.66202 22.3957 8.61837 21.3462C7.57473 20.2968 6.80601 19.0061 6.38031 17.5886C5.95461 16.1711 5.88507 14.6705 6.17785 13.2197C6.47063 11.7688 7.11669 10.4126 8.05881 9.27114C9.00092 8.12965 10.21 7.23813 11.579 6.67554L11.921 7.50767C10.6888 8.01402 9.6006 8.81642 8.75266 9.84381C7.90472 10.8712 7.32324 12.0918 7.05972 13.3976C6.79621 14.7034 6.8588 16.054 7.24194 17.3298C7.62509 18.6057 8.31697 19.7673 9.25629 20.7119C10.1956 21.6564 11.3534 22.3547 12.6271 22.745C13.9007 23.1352 15.251 23.2053 16.5582 22.9491C17.8654 22.6928 19.0893 22.1181 20.1214 21.2759C21.1535 20.4337 21.9619 19.3499 22.4751 18.1207L23.3053 18.4672Z" stroke="white" stroke-width="1.65026" mask="url(#path-2-inside-1)"/>
<path d="M15.3001 5.95H15.3C15.1067 5.95 14.95 6.10671 14.95 6.3V14.4C14.95 14.5933 15.1067 14.75 15.3 14.75H23.4C23.5933 14.75 23.75 14.5933 23.75 14.4V14.3999C23.7447 9.73539 19.9646 5.95532 15.3001 5.95ZM15.65 14.05V6.65969C19.6517 6.84484 22.8552 10.0483 23.0403 14.05H15.65Z" fill="white" stroke="white" stroke-width="0.1"/>
</svg>
