<svg width="30" height="30" viewBox="0 0 30 30" fill="none" xmlns="http://www.w3.org/2000/svg">
<circle cx="15" cy="15" r="15" fill="white" fill-opacity="0.1"/>
<path d="M14.6192 18.3807C14.7244 18.4858 14.8622 18.5384 15 18.5384C15.1377 18.5384 15.2755 18.4858 15.3807 18.3807L20.923 12.8383V15.8462C20.923 16.1438 21.1639 16.3846 21.4615 16.3846C21.7592 16.3846 22 16.1438 22 15.8462V11.5385C21.9999 11.2409 21.7591 11 21.4615 11H17.1538C16.8562 11 16.6153 11.2409 16.6153 11.5385C16.6153 11.8361 16.8562 12.077 17.1538 12.077H20.1616L15 17.2386L8.91916 11.1578C8.70881 10.9474 8.36807 10.9474 8.15776 11.1578C7.94741 11.3681 7.94741 11.7089 8.15776 11.9192L14.6192 18.3807Z" fill="white"/>
</svg>
