<svg width="68" height="68" viewBox="0 0 68 68" fill="none" xmlns="http://www.w3.org/2000/svg">
<g filter="url(#filter0_d)">
<circle cx="32" cy="32" r="30" fill="white"/>
</g>
<path d="M42.0455 23.7273V23.6818H42H35.6818V21.9091C35.6818 21.3822 35.2542 20.9545 34.7273 20.9545H29.2727C28.7458 20.9545 28.3182 21.3822 28.3182 21.9091V23.6818H22H21.9545V23.7273V24.6364V24.6818H22H23.7727V41C23.7727 42.0296 24.6067 42.8636 25.6364 42.8636H38.3636C39.3933 42.8636 40.2273 42.0296 40.2273 41V24.6818H42H42.0455V24.6364V23.7273ZM34.6818 22.1364V23.6818H29.3182V22.1364C29.3182 22.0882 29.3372 22.0417 29.3712 22.0076C29.4053 21.9735 29.4519 21.9545 29.5 21.9545H34.5C34.5481 21.9545 34.5947 21.9735 34.6288 22.0076C34.6628 22.0417 34.6818 22.0882 34.6818 22.1364ZM24.7727 41V24.6818H39.2273V41C39.2273 41.4767 38.8404 41.8636 38.3636 41.8636H25.6364C25.1596 41.8636 24.7727 41.4767 24.7727 41Z" fill="#F84651" stroke="#F84651" stroke-width="0.0909091"/>
<path d="M33.0751 33.1634L36.176 30.0625C36.3778 29.8608 36.3778 29.5346 36.176 29.3329C35.9743 29.1312 35.6482 29.1312 35.4465 29.3329L32.3455 32.4339L29.2447 29.3329C29.0429 29.1312 28.7168 29.1312 28.5151 29.3329C28.3133 29.5346 28.3133 29.8608 28.5151 30.0625L31.616 33.1634L28.5151 36.2644C28.3133 36.4661 28.3133 36.7922 28.5151 36.9939C28.6156 37.0945 28.7478 37.1451 28.8799 37.1451C29.012 37.1451 29.144 37.0945 29.2447 36.9939L32.3455 33.8929L35.4465 36.9939C35.5471 37.0945 35.6792 37.1451 35.8112 37.1451C35.9433 37.1451 36.0754 37.0945 36.176 36.9939C36.3778 36.7922 36.3778 36.4661 36.176 36.2644L33.0751 33.1634Z" fill="#F84651"/>
<defs>
<filter id="filter0_d" x="0" y="0" width="68" height="68" filterUnits="userSpaceOnUse" color-interpolation-filters="sRGB">
<feFlood flood-opacity="0" result="BackgroundImageFix"/>
<feColorMatrix in="SourceAlpha" type="matrix" values="0 0 0 0 0 0 0 0 0 0 0 0 0 0 0 0 0 0 127 0"/>
<feOffset dx="2" dy="2"/>
<feGaussianBlur stdDeviation="2"/>
<feColorMatrix type="matrix" values="0 0 0 0 0 0 0 0 0 0 0 0 0 0 0 0 0 0 0.11 0"/>
<feBlend mode="normal" in2="BackgroundImageFix" result="effect1_dropShadow"/>
<feBlend mode="normal" in="SourceGraphic" in2="effect1_dropShadow" result="shape"/>
</filter>
</defs>
</svg>
