<svg width="30" height="30" viewBox="0 0 30 30" fill="none" xmlns="http://www.w3.org/2000/svg">
<circle cx="15" cy="15" r="15" fill="#00A3FF" fill-opacity="0.24"/>
<g clip-path="url(#clip0)">
<path d="M20.5173 8.05907H17.2069C16.4218 8.05907 15.7832 8.69773 15.7832 9.48283V12.7932C15.7832 13.5783 16.4218 14.2169 17.2069 14.2169H20.5173C21.3024 14.2169 21.941 13.5783 21.941 12.7932V9.48283C21.941 8.69773 21.3024 8.05907 20.5173 8.05907ZM21.3004 12.7932C21.3004 13.2249 20.949 13.5763 20.5173 13.5763H17.2069C16.7752 13.5763 16.4238 13.2249 16.4238 12.7932V9.48283C16.4238 9.0511 16.7752 8.69968 17.2069 8.69968H20.5173C20.949 8.69968 21.3004 9.0511 21.3004 9.48283V12.7932Z" fill="white" stroke="white" stroke-width="0.0888889"/>
<path d="M12.793 15.7817H10.5861C9.801 15.7817 9.16234 16.4204 9.16234 17.2055V19.4124C9.16234 20.1975 9.801 20.8361 10.5861 20.8361H12.793C13.5781 20.8361 14.2167 20.1975 14.2167 19.4124V17.2055C14.2167 16.4204 13.5781 15.7817 12.793 15.7817ZM13.5761 19.4124C13.5761 19.8441 13.2247 20.1955 12.793 20.1955H10.5861C10.1544 20.1955 9.80296 19.8441 9.80296 19.4124V17.2055C9.80296 16.7738 10.1544 16.4223 10.5861 16.4223H12.793C13.2247 16.4223 13.5761 16.7738 13.5761 17.2055V19.4124Z" fill="white" stroke="white" stroke-width="0.0888889"/>
<path d="M21.6207 15.7817H17.2069C16.4218 15.7817 15.7832 16.4204 15.7832 17.2055V21.6193C15.7832 22.4044 16.4218 23.043 17.2069 23.043H21.6207C22.4058 23.043 23.0445 22.4044 23.0445 21.6193V17.2055C23.0445 16.4204 22.4058 15.7817 21.6207 15.7817ZM22.4039 21.6193C22.4039 22.051 22.0525 22.4024 21.6207 22.4024H17.2069C16.7752 22.4024 16.4238 22.051 16.4238 21.6193V17.2055C16.4238 16.7738 16.7752 16.4223 17.2069 16.4223H21.6207C22.0525 16.4223 22.4039 16.7738 22.4039 17.2055V21.6193Z" fill="white" stroke="white" stroke-width="0.0888889"/>
<path d="M12.7931 6.95556H8.37931C7.59421 6.95556 6.95556 7.59421 6.95556 8.37931V12.7931C6.95556 13.5782 7.59421 14.2169 8.37931 14.2169H12.7931C13.5782 14.2169 14.2169 13.5782 14.2169 12.7931V8.37931C14.2169 7.59421 13.5782 6.95556 12.7931 6.95556ZM13.5762 12.7931C13.5762 13.2248 13.2248 13.5762 12.7931 13.5762H8.37931C7.94758 13.5762 7.59617 13.2248 7.59617 12.7931V8.37931C7.59617 7.94758 7.94758 7.59617 8.37931 7.59617H12.7931C13.2248 7.59617 13.5762 7.94758 13.5762 8.37931V12.7931Z" fill="white" stroke="white" stroke-width="0.0888889"/>
</g>
<defs>
<clipPath id="clip0">
<rect width="16" height="16" fill="white" transform="translate(7 7)"/>
</clipPath>
</defs>
</svg>
