<svg width="30" height="30" viewBox="0 0 30 30" fill="none" xmlns="http://www.w3.org/2000/svg">
<circle cx="15" cy="15" r="15" fill="white" fill-opacity="0.1"/>
<path d="M20.2182 8.33469H18.6061V7.61349C18.6061 7.38015 18.3515 7.2741 18.1182 7.2741H16.8667C16.5697 6.42562 15.8273 6.00137 14.9788 6.00137C14.1397 5.96983 13.3764 6.48437 13.0909 7.2741H11.8607C11.6273 7.2741 11.394 7.38015 11.394 7.61349V8.33469H9.78183C8.82648 8.34488 8.0449 9.09852 8 10.0528V22.2074C8 23.1407 8.84848 23.8195 9.78183 23.8195H20.2182C21.1515 23.8195 22 23.1407 22 22.2074V10.0529C21.9551 9.09852 21.1735 8.34488 20.2182 8.33469ZM12.2424 8.12259H13.4091C13.6128 8.09774 13.7763 7.9428 13.8121 7.74077C13.9378 7.19371 14.4177 6.80102 14.9788 6.78624C15.5347 6.80309 16.0075 7.197 16.1243 7.74077C16.1623 7.94979 16.3367 8.10671 16.5485 8.12259H17.7576V9.81956H12.2424V8.12259ZM21.1515 22.2074C21.1515 22.6741 20.6848 22.971 20.2182 22.971H9.78183C9.31516 22.971 8.84848 22.6741 8.84848 22.2074V10.0529C8.89177 9.56714 9.29421 9.1921 9.78183 9.18321H11.3939V10.265C11.4164 10.5027 11.6222 10.6805 11.8606 10.6681H18.1182C18.361 10.6814 18.5733 10.506 18.606 10.265V9.18317H20.2181C20.7057 9.1921 21.1082 9.5671 21.1515 10.0528V22.2074H21.1515Z" fill="white"/>
</svg>
