<svg width="30" height="30" viewBox="0 0 30 30" fill="none" xmlns="http://www.w3.org/2000/svg">
<circle cx="15" cy="15" r="15" fill="white" fill-opacity="0.1"/>
<path d="M19.9498 17.0502C19.1873 16.2878 18.2799 15.7234 17.2897 15.3818C18.3502 14.6514 19.0469 13.429 19.0469 12.0469C19.0469 9.81543 17.2314 8 15 8C12.7686 8 10.9531 9.81543 10.9531 12.0469C10.9531 13.429 11.6498 14.6514 12.7103 15.3818C11.7202 15.7234 10.8127 16.2878 10.0503 17.0502C8.72814 18.3724 8 20.1302 8 22H9.09375C9.09375 18.7433 11.7433 16.0938 15 16.0938C18.2567 16.0938 20.9063 18.7433 20.9063 22H22C22 20.1302 21.2719 18.3724 19.9498 17.0502ZM15 15C13.3717 15 12.0469 13.6753 12.0469 12.0469C12.0469 10.4185 13.3717 9.09375 15 9.09375C16.6283 9.09375 17.9531 10.4185 17.9531 12.0469C17.9531 13.6753 16.6283 15 15 15Z" fill="white"/>
</svg>
