<svg width="30" height="30" viewBox="0 0 30 30" fill="none" xmlns="http://www.w3.org/2000/svg">
<circle cx="15" cy="15" r="15" fill="#00A3FF" fill-opacity="0.24"/>
<path d="M24.9881 11.8891C24.367 11.2163 23.4824 10.8445 22.499 10.8445H20.1321V9.56465C20.1321 9.25409 19.878 9 19.5675 9H8.29329C7.98273 9 7.72864 9.25409 7.72864 9.56465V11.5315H5.5312C5.22065 11.5315 4.96655 11.7856 4.96655 12.0962C4.96655 12.4067 5.22065 12.6608 5.5312 12.6608H8.27917C8.28388 12.6608 8.28858 12.6608 8.29329 12.6608C8.29329 12.6608 8.29329 12.6608 8.29799 12.6608C8.60855 12.6608 8.86265 12.4067 8.86265 12.0962V10.1293H19.0075V11.4092V18.9802H13.6904C13.6669 18.9802 13.6434 18.9802 13.6198 18.9849C13.3375 18.2885 12.6552 17.7944 11.86 17.7944C11.0601 17.7944 10.3778 18.2932 10.1002 18.9943C10.0578 18.9849 10.0202 18.9802 9.97783 18.9802H8.86265V17.0086C8.86265 16.6981 8.60855 16.444 8.29799 16.444C8.28858 16.444 8.27917 16.444 8.26976 16.444C8.26035 16.444 8.25565 16.444 8.24623 16.444H5.5312C5.22065 16.444 4.96655 16.6981 4.96655 17.0086C4.96655 17.3192 5.22065 17.5733 5.5312 17.5733H7.72864V19.5402C7.72864 19.8507 7.98273 20.1048 8.29329 20.1048H9.97313C9.98724 20.1048 9.99665 20.1048 10.0108 20.1048C10.199 20.9518 10.9566 21.5823 11.86 21.5823C12.7634 21.5823 13.5163 20.9518 13.7092 20.1048H19.5722H20.4756C20.6686 20.9471 21.4214 21.5823 22.3249 21.5823C23.2283 21.5823 23.9812 20.9518 24.1741 20.1048H25.4352C25.7457 20.1048 25.9998 19.8507 25.9998 19.5402V14.8488C25.9998 13.6301 25.6469 12.6044 24.9881 11.8891ZM11.86 20.4577C11.4365 20.4577 11.093 20.1142 11.093 19.6907C11.093 19.2672 11.4365 18.9237 11.86 18.9237C12.2835 18.9237 12.627 19.2672 12.627 19.6907C12.627 20.1142 12.2835 20.4577 11.86 20.4577ZM22.3249 20.4577C21.9014 20.4577 21.5579 20.1142 21.5579 19.6907C21.5579 19.2672 21.9014 18.9237 22.3249 18.9237C22.7484 18.9237 23.0919 19.2672 23.0919 19.6907C23.0871 20.1142 22.7437 20.4577 22.3249 20.4577ZM24.8705 18.9802H24.08C23.7977 18.2885 23.1154 17.7944 22.3249 17.7944C21.5344 17.7944 20.8521 18.2838 20.5697 18.9802H20.1368V11.9738H22.5037C23.9859 11.9738 24.8705 13.0514 24.8705 14.8535V18.9802Z" fill="white"/>
<path d="M12.6979 15.6115C12.4767 15.8327 12.4767 16.1903 12.6979 16.4115C12.8061 16.5197 12.952 16.5762 13.0978 16.5762C13.2437 16.5762 13.3849 16.5197 13.4978 16.4115L14.9518 14.9575L14.9565 14.9528C14.9659 14.9387 14.98 14.9293 14.9894 14.9151C14.9941 14.9057 14.9988 14.901 15.0035 14.8916C15.0082 14.8822 15.013 14.8775 15.0224 14.8681C15.0271 14.8587 15.0318 14.8493 15.0365 14.8399C15.0412 14.8304 15.0459 14.8257 15.0506 14.8163C15.0553 14.8069 15.06 14.7975 15.0647 14.7881C15.0694 14.7787 15.0741 14.774 15.0741 14.7646C15.0788 14.7552 15.0788 14.7458 15.0835 14.7363C15.0882 14.7269 15.0882 14.7175 15.0929 14.7128C15.0976 14.7034 15.0976 14.694 15.0976 14.6846C15.0976 14.6752 15.1024 14.6658 15.1024 14.6563C15.1024 14.6469 15.1071 14.6375 15.1071 14.6234C15.1071 14.614 15.1118 14.6093 15.1118 14.5999C15.1165 14.5622 15.1165 14.5246 15.1118 14.487C15.1118 14.4775 15.1118 14.4728 15.1071 14.4634C15.1071 14.454 15.1024 14.4446 15.1024 14.4305C15.1024 14.4211 15.0976 14.4117 15.0976 14.4023C15.0976 14.3928 15.0929 14.3834 15.0929 14.374C15.0882 14.3646 15.0882 14.3552 15.0835 14.3505C15.0788 14.3411 15.0788 14.3317 15.0741 14.3223C15.0694 14.3129 15.0647 14.3081 15.0647 14.2987C15.06 14.2893 15.0553 14.2799 15.0506 14.2705C15.0459 14.2611 15.0412 14.2564 15.0365 14.247C15.0318 14.2376 15.0271 14.2282 15.0224 14.2187C15.0177 14.2093 15.013 14.2046 15.0035 14.1952C14.9988 14.1858 14.9941 14.1811 14.9894 14.1717C14.98 14.1576 14.9659 14.1482 14.9565 14.134L14.9518 14.1293L13.5684 12.7459C13.3472 12.5248 12.9896 12.5248 12.7685 12.7459C12.5473 12.9671 12.5473 13.3247 12.7685 13.5459L13.1872 13.9646H3.56465C3.25409 13.9646 3 14.2187 3 14.5293C3 14.8399 3.25409 15.094 3.56465 15.094H13.1825L12.6979 15.6115Z" fill="white"/>
</svg>
