<svg width="68" height="68" viewBox="0 0 68 68" fill="none" xmlns="http://www.w3.org/2000/svg">
<g filter="url(#filter0_d)">
<circle cx="32" cy="32" r="30" fill="white"/>
</g>
<path d="M39.6072 32.5003C39.2324 32.5003 38.9286 32.8041 38.9286 33.1789V39.9646C38.9286 40.3394 38.6248 40.6432 38.25 40.6432H26.0357C25.6609 40.6432 25.3571 40.3394 25.3571 39.9646V26.3931C25.3571 26.0184 25.6609 25.7146 26.0357 25.7146H34.1786C34.5534 25.7146 34.8572 25.4107 34.8572 25.036C34.8572 24.6612 34.5534 24.3574 34.1786 24.3574H26.0357C24.9114 24.3574 24 25.2688 24 26.3931V39.9646C24 41.0889 24.9114 42.0003 26.0357 42.0003H38.25C39.3743 42.0003 40.2857 41.0889 40.2857 39.9646V33.1788C40.2857 32.8041 39.9819 32.5003 39.6072 32.5003Z" fill="#00A3FF"/>
<path d="M42.2396 23.7609C41.7524 23.2736 41.0916 22.9999 40.4025 23C39.713 22.998 39.0515 23.2722 38.5656 23.7614L29.6274 32.6988C29.5533 32.7735 29.4973 32.8643 29.4639 32.9641L28.1067 37.0356C27.9883 37.3911 28.1805 37.7754 28.5361 37.8938C28.6051 37.9168 28.6773 37.9285 28.75 37.9286C28.8229 37.9285 28.8953 37.9168 28.9644 37.894L33.0359 36.5369C33.1359 36.5035 33.2267 36.4472 33.3012 36.3726L42.2394 27.4345C43.2538 26.4201 43.254 24.7754 42.2396 23.7609ZM41.2799 26.4756L32.4584 35.2971L29.8228 36.1772L30.7002 33.545L39.5251 24.7236C40.0102 24.2394 40.7961 24.2402 41.2803 24.7253C41.5115 24.9571 41.6419 25.2708 41.6429 25.5983C41.6437 25.9274 41.513 26.2433 41.2799 26.4756Z" fill="#00A3FF"/>
<defs>
<filter id="filter0_d" x="0" y="0" width="68" height="68" filterUnits="userSpaceOnUse" color-interpolation-filters="sRGB">
<feFlood flood-opacity="0" result="BackgroundImageFix"/>
<feColorMatrix in="SourceAlpha" type="matrix" values="0 0 0 0 0 0 0 0 0 0 0 0 0 0 0 0 0 0 127 0"/>
<feOffset dx="2" dy="2"/>
<feGaussianBlur stdDeviation="2"/>
<feColorMatrix type="matrix" values="0 0 0 0 0 0 0 0 0 0 0 0 0 0 0 0 0 0 0.11 0"/>
<feBlend mode="normal" in2="BackgroundImageFix" result="effect1_dropShadow"/>
<feBlend mode="normal" in="SourceGraphic" in2="effect1_dropShadow" result="shape"/>
</filter>
</defs>
</svg>
