<svg width="30" height="30" viewBox="0 0 30 30" fill="none" xmlns="http://www.w3.org/2000/svg">
<circle cx="15" cy="15" r="15" fill="#00A3FF" fill-opacity="0.24"/>
<path d="M5.73863 9H18.1567C18.564 9 18.8953 9.33128 18.8953 9.73861V12.9755H24.7422C25.1495 12.9755 25.4808 13.3068 25.4808 13.714V19.9347C25.4808 20.147 25.8519 21.9842 23.8065 21.9948C21.5464 22.0065 17.5559 21.9948 17.3609 21.9948L12.3242 21.9842C11.9167 21.9842 11.5857 21.653 11.5857 21.2454V18.0086H5.73859C5.33139 18.0086 5.00002 17.6775 5.00002 17.27V9.73861C5.00041 9.33128 5.3316 9 5.73863 9ZM12.31 21.2454C12.31 21.2532 12.3163 21.2598 12.3243 21.2598H17.2024L24.7419 21.2454L24.7422 19.4592L24.7419 13.6998L12.31 13.714V21.2454ZM5.72476 17.27C5.72476 17.2778 5.73105 17.2842 5.73906 17.2842L11.5858 17.2776V13.714C11.5858 13.3068 11.9173 12.9755 12.3245 12.9755H18.1629L18.1569 9.72435L5.72493 9.73861L5.72476 17.27Z" fill="white"/>
</svg>
