<svg width="30" height="30" viewBox="0 0 30 30" fill="none" xmlns="http://www.w3.org/2000/svg">
<circle cx="15" cy="15" r="15" fill="white" fill-opacity="0.1"/>
<path d="M19.4914 8H16.2519C15.5408 8 14.5897 8.39392 14.0869 8.89679L7.44049 15.5431C7.15637 15.8271 7 16.2059 7 16.6098C7 17.0136 7.15648 17.3924 7.44049 17.6764L11.3235 21.5595C11.6075 21.8435 11.9863 22 12.3901 22C12.7939 22 13.1727 21.8435 13.4569 21.5595L20.1032 14.9131C20.6061 14.4103 21 13.4592 21 12.7481V9.50839C20.9999 8.67665 20.3231 8 19.4914 8ZM20.1797 12.7481C20.1797 13.2427 19.8729 13.9834 19.5232 14.3331L12.8768 20.9794C12.7476 21.1086 12.5748 21.1797 12.3901 21.1797C12.2055 21.1797 12.0327 21.1086 11.9036 20.9795L8.02058 17.0963C7.89145 16.9671 7.82031 16.7943 7.82031 16.6098C7.82031 16.4251 7.89134 16.2523 8.02048 16.1232L14.6669 9.47678C15.0166 9.12708 15.7573 8.82031 16.2519 8.82031H19.4914C19.8709 8.82031 20.1796 9.129 20.1797 9.50839V12.7481Z" fill="white"/>
</svg>
