<svg width="30" height="30" viewBox="0 0 30 30" fill="none" xmlns="http://www.w3.org/2000/svg">
<circle cx="15" cy="15" r="15" fill="white" fill-opacity="0.1"/>
<path d="M18.5043 16.8352C18.5043 17.4871 18.2568 18.0399 17.7617 18.4937C17.2749 18.9476 16.5653 19.2116 15.6329 19.2859V20.6845H14.8407V19.2859C14.2384 19.2529 13.6649 19.1415 13.1203 18.9517C12.584 18.7536 12.1549 18.5061 11.8331 18.2091L12.2911 17.2437C12.5881 17.516 12.9636 17.7429 13.4174 17.9244C13.8712 18.0977 14.3457 18.2008 14.8407 18.2338V15.3624C14.2631 15.2221 13.7804 15.0694 13.3926 14.9044C13.0131 14.7394 12.6913 14.496 12.4272 14.1742C12.1714 13.8524 12.0435 13.4316 12.0435 12.9117C12.0435 12.2599 12.2787 11.707 12.749 11.2532C13.2276 10.7994 13.9248 10.5353 14.8407 10.4611V9.05011H15.6329V10.4487C16.1032 10.4652 16.557 10.5395 16.9943 10.6715C17.4399 10.8035 17.8236 10.9809 18.1454 11.2037L17.7369 12.1939C17.0686 11.773 16.3672 11.542 15.6329 11.5008V14.3846C16.2352 14.5331 16.7303 14.6899 17.1181 14.8549C17.5059 15.0117 17.8318 15.251 18.0959 15.5728C18.3682 15.8863 18.5043 16.3071 18.5043 16.8352ZM13.2565 12.8622C13.2565 13.217 13.3926 13.4934 13.6649 13.6915C13.9372 13.8895 14.3292 14.0545 14.8407 14.1866V11.5131C14.3127 11.5791 13.9166 11.7359 13.6526 11.9835C13.3885 12.2227 13.2565 12.5157 13.2565 12.8622ZM15.6329 18.2214C16.1857 18.1719 16.5983 18.0317 16.8706 17.8006C17.1511 17.5613 17.2914 17.2643 17.2914 16.9095C17.2914 16.5464 17.147 16.27 16.8582 16.0802C16.5776 15.8822 16.1692 15.7089 15.6329 15.5604V18.2214Z" fill="white"/>
<circle cx="15" cy="15" r="8.58743" stroke="white" stroke-width="0.825131"/>
</svg>
