<svg width="79" height="84" viewBox="0 0 79 84" fill="none" xmlns="http://www.w3.org/2000/svg">
<path d="M12.4735 45.7388H4.15783C3.05511 45.7388 1.99755 46.1768 1.2178 46.9566C0.438056 47.7363 0 48.7939 0 49.8966C0 50.9993 0.438056 52.0569 1.2178 52.8366C1.99755 53.6164 3.05511 54.0544 4.15783 54.0544H12.4735C13.5762 54.0544 14.6338 53.6164 15.4135 52.8366C16.1933 52.0569 16.6313 50.9993 16.6313 49.8966C16.6313 48.7939 16.1933 47.7363 15.4135 46.9566C14.6338 46.1768 13.5762 45.7388 12.4735 45.7388ZM16.6313 29.1074H4.15783C3.05511 29.1074 1.99755 29.5455 1.2178 30.3252C0.438056 31.105 0 32.1625 0 33.2653C0 34.368 0.438056 35.4255 1.2178 36.2053C1.99755 36.985 3.05511 37.4231 4.15783 37.4231H16.6313C17.7341 37.4231 18.7916 36.985 19.5714 36.2053C20.3511 35.4255 20.7892 34.368 20.7892 33.2653C20.7892 32.1625 20.3511 31.105 19.5714 30.3252C18.7916 29.5455 17.7341 29.1074 16.6313 29.1074Z" fill="#00A3FF"/>
<path d="M62.3686 37.4205H45.7373C43.5318 37.4205 41.4167 36.5444 39.8572 34.9849C38.2977 33.4254 37.4216 31.3103 37.4216 29.1048C37.4216 26.8994 38.2977 24.7843 39.8572 23.2248C41.4167 21.6653 43.5318 20.7892 45.7373 20.7892H66.5265C67.6292 20.7892 68.6868 21.2272 69.4665 22.007C70.2462 22.7867 70.6843 23.8443 70.6843 24.947C70.6843 26.0497 71.1224 27.1073 71.9021 27.887C72.6818 28.6668 73.7394 29.1048 74.8421 29.1048C75.9449 29.1048 77.0024 28.6668 77.7822 27.887C78.5619 27.1073 79 26.0497 79 24.947C79 21.6388 77.6858 18.4661 75.3466 16.1269C73.0073 13.7877 69.8346 12.4735 66.5265 12.4735H58.2108V4.15783C58.2108 3.05511 57.7727 1.99755 56.993 1.2178C56.2133 0.438056 55.1557 0 54.053 0C52.9502 0 51.8927 0.438056 51.1129 1.2178C50.3332 1.99755 49.8951 3.05511 49.8951 4.15783V12.4735H45.7373C41.3264 12.4735 37.0961 14.2257 33.9772 17.3447C30.8582 20.4637 29.106 24.6939 29.106 29.1048C29.106 33.5157 30.8582 37.746 33.9772 40.865C37.0961 43.984 41.3264 45.7362 45.7373 45.7362H62.3686C64.5741 45.7362 66.6892 46.6123 68.2487 48.1718C69.8082 49.7313 70.6843 51.8464 70.6843 54.0518C70.6843 56.2573 69.8082 58.3724 68.2487 59.9319C66.6892 61.4914 64.5741 62.3675 62.3686 62.3675H41.5795C40.4767 62.3675 39.4192 61.9295 38.6394 61.1497C37.8597 60.37 37.4216 59.3124 37.4216 58.2097C37.4216 57.1069 36.9836 56.0494 36.2038 55.2696C35.4241 54.4899 34.3665 54.0518 33.2638 54.0518C32.1611 54.0518 31.1035 54.4899 30.3238 55.2696C29.544 56.0494 29.106 57.1069 29.106 58.2097C29.106 61.5179 30.4201 64.6905 32.7594 67.0298C35.0986 69.369 38.2713 70.6832 41.5795 70.6832H49.8951V78.9988C49.8951 80.1016 50.3332 81.1591 51.1129 81.9389C51.8927 82.7186 52.9502 83.1567 54.053 83.1567C55.1557 83.1567 56.2133 82.7186 56.993 81.9389C57.7727 81.1591 58.2108 80.1016 58.2108 78.9988V70.6832H62.3686C66.7795 70.6832 71.0098 68.931 74.1288 65.812C77.2477 62.693 79 58.4627 79 54.0518C79 49.6409 77.2477 45.4107 74.1288 42.2917C71.0098 39.1727 66.7795 37.4205 62.3686 37.4205Z" fill="#00A3FF"/>
</svg>
