<svg width="512" height="512" viewBox="0 0 512 512" fill="none" xmlns="http://www.w3.org/2000/svg">
<path d="M497.39 361.791L385.39 313.791C380.605 311.752 375.288 311.322 370.238 312.567C365.188 313.811 360.679 316.662 357.39 320.691L307.79 381.291C229.947 344.589 167.302 281.944 130.6 204.101L191.2 154.501C195.237 151.218 198.094 146.709 199.339 141.656C200.584 136.604 200.149 131.284 198.1 126.501L150.1 14.5009C147.851 9.34502 143.874 5.13539 138.854 2.59792C133.833 0.0604515 128.085 -0.645805 122.6 0.600933L18.6 24.6009C13.3117 25.8221 8.59345 28.7997 5.21535 33.0478C1.83725 37.2958 -0.00121821 42.5635 6.05621e-07 47.9909C6.05621e-07 304.491 207.9 511.991 464 511.991C469.429 511.994 474.699 510.157 478.949 506.779C483.199 503.4 486.178 498.681 487.4 493.391L511.4 389.391C512.639 383.879 511.917 378.108 509.36 373.07C506.803 368.033 502.57 364.044 497.39 361.791V361.791Z" fill="#C8CED5"/>
</svg>
