<svg width="22" height="22" viewBox="0 0 22 22" fill="none" xmlns="http://www.w3.org/2000/svg">
<path d="M18.7854 7.8025L20.5349 9.55192C21.355 10.3721 21.355 11.7061 20.5349 12.5262L18.7854 14.2756C18.6035 14.4575 18.365 14.5484 18.1268 14.5484C17.8887 14.5484 17.6502 14.4575 17.4683 14.2757L18.7854 7.8025ZM18.7854 7.8025C18.4216 7.43876 17.8319 7.43873 17.4683 7.80253M18.7854 7.8025L17.4683 7.80253M17.4683 7.80253C17.1045 8.16614 17.1045 8.75581 17.4683 9.1194M17.4683 7.80253L17.4683 9.1194M17.4683 9.1194L18.4567 10.1078M17.4683 9.1194L18.4567 10.1078M18.4567 10.1078H9.43787C8.9235 10.1078 8.50659 10.5247 8.50659 11.0391C8.50659 11.5534 8.9235 11.9703 9.43787 11.9703H18.4567M18.4567 10.1078V11.9703M18.4567 11.9703L17.4683 12.9587C17.1045 13.3223 17.1045 13.912 17.4683 14.2756L18.4567 11.9703ZM15.2522 17.875V16.3125C15.2522 15.7981 14.8353 15.3813 14.3209 15.3813C13.8065 15.3813 13.3896 15.7981 13.3896 16.3125V17.875C13.3896 18.6537 12.7558 19.2875 11.977 19.2875H4.12514C3.34642 19.2875 2.71257 18.6537 2.71257 17.875V4.125C2.71257 3.34634 3.34642 2.7125 4.12514 2.7125H11.977C12.7558 2.7125 13.3896 3.34634 13.3896 4.125V5.6875C13.3896 6.20187 13.8065 6.61875 14.3209 6.61875C14.8353 6.61875 15.2522 6.20187 15.2522 5.6875V4.125C15.2522 2.31898 13.7831 0.85 11.977 0.85H4.12514C2.31905 0.85 0.85 2.31898 0.85 4.125V17.875C0.85 19.681 2.31905 21.15 4.12514 21.15H11.977C13.7831 21.15 15.2522 19.681 15.2522 17.875Z" fill="white" stroke="white" stroke-width="0.3"/>
</svg>
