<svg width="79" height="76" viewBox="0 0 79 76" fill="none" xmlns="http://www.w3.org/2000/svg">
<path d="M78.8675 28.5359C78.6184 27.8144 78.1653 27.1806 77.5631 26.7115C76.961 26.2424 76.2356 25.9581 75.4751 25.893L53.0302 22.6189L42.9713 2.22521C42.6483 1.55828 42.144 0.99583 41.5161 0.60228C40.8882 0.20873 40.1622 0 39.4212 0C38.6802 0 37.9541 0.20873 37.3262 0.60228C36.6983 0.99583 36.194 1.55828 35.871 2.22521L25.8122 22.5795L3.36725 25.893C2.63719 25.9968 1.95083 26.3031 1.38606 26.7772C0.821296 27.2513 0.400734 27.8743 0.172103 28.5753C-0.0371791 29.2604 -0.0559597 29.9896 0.117777 30.6845C0.291514 31.3795 0.651209 32.014 1.15826 32.52L17.4496 48.2985L13.505 70.704C13.3641 71.4435 13.4379 72.2079 13.7175 72.9069C13.997 73.6059 14.4708 74.2102 15.0828 74.6486C15.6793 75.0751 16.3829 75.3268 17.1145 75.3756C17.8461 75.4243 18.5768 75.2682 19.2247 74.9248L39.4212 64.3926L59.5388 74.9642C60.0924 75.2765 60.7177 75.4396 61.3533 75.4376C62.1889 75.4405 63.0038 75.1781 63.6807 74.6881C64.2927 74.2497 64.7664 73.6453 65.046 72.9463C65.3256 72.2474 65.3993 71.483 65.2585 70.7434L61.3139 48.3379L77.6052 32.5594C78.1747 32.0769 78.5957 31.4427 78.8191 30.7305C79.0426 30.0183 79.0593 29.2573 78.8675 28.5359ZM54.608 44.3144C54.1454 44.7619 53.7993 45.3157 53.5999 45.9277C53.4005 46.5396 53.3539 47.191 53.4641 47.8251L56.3042 64.3531L41.4724 56.4639C40.9017 56.16 40.265 56.001 39.6184 56.001C38.9718 56.001 38.3352 56.16 37.7644 56.4639L22.9326 64.3531L25.7728 47.8251C25.883 47.191 25.8363 46.5396 25.6369 45.9277C25.4375 45.3157 25.0914 44.7619 24.6288 44.3144L12.7949 32.4805L29.4018 30.0743C30.0408 29.9854 30.6483 29.7411 31.171 29.3629C31.6937 28.9846 32.1156 28.484 32.3997 27.9048L39.4212 12.8757L46.8371 27.9442C47.1213 28.5234 47.5432 29.0241 48.0658 29.4023C48.5885 29.7806 49.196 30.0249 49.835 30.1137L66.4419 32.52L54.608 44.3144Z" fill="white"/>
</svg>
