<svg width="28" height="33" viewBox="0 0 28 33" fill="none" xmlns="http://www.w3.org/2000/svg">
<path d="M13.8819 15.6818C16.086 15.6818 17.9946 14.9344 19.5541 13.4596C21.1135 11.9851 21.9041 10.1809 21.9041 8.09654C21.9041 6.01292 21.1135 4.2085 19.5538 2.73349C17.9941 1.2592 16.0857 0.511719 13.8819 0.511719C11.6775 0.511719 9.76936 1.2592 8.2099 2.73373C6.65043 4.20826 5.85965 6.01268 5.85965 8.09654C5.85965 10.1809 6.65043 11.9853 8.21015 13.4598C9.76987 14.9341 11.6782 15.6818 13.8819 15.6818Z" fill="#C8CED5"/>
<path d="M27.9182 24.7287C27.8732 24.1151 27.7822 23.4457 27.6483 22.7388C27.5131 22.0266 27.3391 21.3534 27.1307 20.7381C26.9155 20.1021 26.6227 19.474 26.2609 18.8721C25.8853 18.2474 25.4442 17.7035 24.9492 17.2558C24.4316 16.7876 23.7978 16.4111 23.065 16.1364C22.3347 15.8632 21.5253 15.7248 20.6596 15.7248C20.3196 15.7248 19.9908 15.8568 19.3557 16.2477C18.9649 16.4887 18.5078 16.7674 17.9975 17.0756C17.5612 17.3385 16.9702 17.5848 16.2401 17.8077C15.5279 18.0257 14.8047 18.1362 14.0909 18.1362C13.3771 18.1362 12.6541 18.0257 11.9411 17.8077C11.2118 17.585 10.6208 17.3387 10.185 17.0759C9.67955 16.7705 9.22215 16.4918 8.82549 16.2474C8.19123 15.8565 7.86216 15.7246 7.52217 15.7246C6.65617 15.7246 5.84708 15.8632 5.11703 16.1367C4.38469 16.4108 3.75069 16.7873 3.23256 17.2561C2.73781 17.7039 2.29643 18.2477 1.92136 18.8721C1.55977 19.474 1.26703 20.1018 1.05155 20.7383C0.843436 21.3536 0.669371 22.0266 0.534186 22.7388C0.400271 23.4447 0.3093 24.1143 0.264323 24.7294C0.220108 25.332 0.197746 25.9574 0.197746 26.5891C0.197746 28.233 0.750432 29.5639 1.8403 30.5454C2.91671 31.5139 4.34098 32.0053 6.07299 32.0053H22.1103C23.8423 32.0053 25.266 31.5141 26.3427 30.5454C27.4328 29.5646 27.9855 28.2335 27.9855 26.5889C27.9853 25.9543 27.9626 25.3284 27.9182 24.7287Z" fill="#C8CED5"/>
</svg>
