<svg width="43" height="30" viewBox="0 0 43 30" fill="none" xmlns="http://www.w3.org/2000/svg">
<path d="M42.22 10.4581C42.3148 7.7123 41.7144 4.98706 40.4743 2.53541C39.6329 1.52944 38.4653 0.850571 37.1748 0.617092C31.8371 0.132764 26.4773 -0.0657458 21.1184 0.0224123C15.7791 -0.0697471 10.4386 0.122357 5.11965 0.597909C4.06806 0.789198 3.09489 1.28245 2.3189 2.01747C0.592408 3.60967 0.400576 6.33369 0.208744 8.63568C-0.0695813 12.7746 -0.0695813 16.9275 0.208744 21.0664C0.264241 22.362 0.457155 23.6481 0.78424 24.903C1.01554 25.8719 1.48351 26.7683 2.14625 27.512C2.92752 28.2859 3.92335 28.8072 5.00455 29.0083C9.14029 29.5188 13.3075 29.7303 17.4736 29.6413C24.1878 29.7372 30.077 29.6413 37.0405 29.1042C38.1483 28.9155 39.1721 28.3935 39.9756 27.6079C40.5126 27.0706 40.9138 26.413 41.1457 25.6896C41.8318 23.5844 42.1687 21.3812 42.1433 19.1673C42.22 18.093 42.22 11.6091 42.22 10.4581ZM16.783 20.3183V8.44384L28.1395 14.4098C24.9551 16.1747 20.754 18.1697 16.783 20.3183Z" fill="#00A3FF" fill-opacity="0.5"/>
</svg>
