<svg width="141" height="141" viewBox="0 0 141 141" fill="none" xmlns="http://www.w3.org/2000/svg">
<path d="M71.2893 0H70.8704V139.239H71.2893C89.7535 139.239 107.462 131.904 120.518 118.848C133.574 105.792 140.909 88.0838 140.909 69.6196C140.909 51.1553 133.574 33.4473 120.518 20.3911C107.462 7.3349 89.7535 3.89105e-07 71.2893 0Z" fill="#00A3FF" fill-opacity="0.5"/>
<path d="M70.8703 0.0117188C52.548 0.121663 35.0077 7.45015 22.0533 20.4079C9.09895 33.3656 1.77494 50.9078 1.66968 69.2301H70.8703V0.0117188Z" fill="#00A3FF" fill-opacity="0.5"/>
<path d="M1.07928e-08 70.8828C1.07928e-08 71.0244 1.07928e-08 71.1601 1.07928e-08 71.3017C-0.000323625 89.6946 7.27785 107.34 20.2449 120.385C33.2119 133.429 50.8139 140.812 69.2065 140.921V70.8828H1.07928e-08Z" fill="#00A3FF"/>
</svg>
