<svg width="141" height="141" viewBox="0 0 141 141" fill="none" xmlns="http://www.w3.org/2000/svg">
<path d="M69.6197 140.922H70.0386L70.0386 1.68279H69.6197C51.1554 1.68279 33.4474 9.01768 20.3912 22.0739C7.33501 35.1301 0.000114441 52.8381 0.000114441 71.3023C0.000114441 89.7666 7.33501 107.475 20.3912 120.531C33.4474 133.587 51.1554 140.922 69.6197 140.922Z" fill="#00A3FF" fill-opacity="0.5"/>
<path d="M70.0386 140.91C88.3609 140.8 105.901 133.472 118.856 120.514C131.81 107.556 139.134 90.0141 139.239 71.6918L70.0386 71.6918L70.0386 140.91Z" fill="#00A3FF" fill-opacity="0.5"/>
<path d="M140.909 70.0391C140.909 69.8975 140.909 69.7618 140.909 69.6202C140.909 51.2272 133.631 33.5815 120.664 20.5371C107.697 7.49276 90.095 0.109718 71.7024 0.000602722L71.7024 70.0391L140.909 70.0391Z" fill="#00A3FF"/>
</svg>
