<svg width="352" height="339" viewBox="0 0 352 339" fill="none" xmlns="http://www.w3.org/2000/svg">
<path d="M235.379 143.738L231.662 152.411L208.865 182.641C208.865 182.641 193.254 199.491 201.927 200.482C210.599 201.474 216.299 184.872 216.299 184.872L243.06 158.358L246.034 146.216L235.379 143.738Z" fill="#C89CA3"/>
<path d="M246.777 108.547L243.185 109.552C243.185 109.552 227.057 152.398 228.544 157.601C230.03 162.805 236.721 169.247 239.694 168.752C242.668 168.256 246.777 108.547 246.777 108.547Z" fill="#00A3FF"/>
<path d="M296.965 328.733C296.965 328.733 295.388 336.638 300.128 333.474C304.869 330.311 307.341 324.193 307.341 324.193L296.965 328.733Z" fill="#2F2E41"/>
<path d="M240.831 150.428C240.831 150.428 190.529 327.846 208.37 333.05C226.211 338.253 252.477 332.554 252.229 329.085C251.981 325.616 247.521 256.978 247.521 256.978C247.521 256.978 273.539 348.165 305.752 326.855C337.965 305.545 330.779 301.58 327.805 300.094C324.832 298.607 279.982 227.986 280.229 214.853C280.477 201.72 279.734 160.587 274.282 154.392L240.831 150.428Z" fill="#2F2E41"/>
<path d="M351.79 338.762H46.5068V337.602H352L351.79 338.762Z" fill="#D1D1D1"/>
<path d="M272.779 87.3485C270.844 85.598 269.637 83.1842 269.397 80.5855C269.158 77.9868 269.904 75.3931 271.487 73.3184C271.277 73.5148 271.072 73.7188 270.876 73.9357C269.027 75.9834 268.067 78.6815 268.207 81.4369C268.346 84.1923 269.574 86.7795 271.621 88.6298C273.667 90.4802 276.365 91.4422 279.12 91.3044C281.876 91.1667 284.464 89.9404 286.315 87.8952C286.512 87.6784 286.694 87.4541 286.868 87.2259C284.963 89.0093 282.457 90.0117 279.848 90.0344C277.238 90.0571 274.715 89.0984 272.779 87.3485Z" fill="#2F2E41"/>
<path d="M271.804 89.8405C283.641 89.8405 293.238 80.2442 293.238 68.4066C293.238 56.569 283.641 46.9727 271.804 46.9727C259.966 46.9727 250.37 56.569 250.37 68.4066C250.37 80.2442 259.966 89.8405 271.804 89.8405Z" fill="#2F2E41"/>
<path d="M214.068 332.307C214.068 332.307 208.369 338.006 214.068 338.006C219.768 338.006 225.219 334.289 225.219 334.289L214.068 332.307Z" fill="#2F2E41"/>
<path d="M258.175 81.7879C258.175 81.7879 261.892 97.1509 259.166 100.124C256.44 103.098 250.493 105.328 250.493 105.328L251.485 133.081C251.485 133.081 262.883 129.116 263.379 128.62C263.874 128.125 274.034 112.018 274.034 112.018L283.945 102.602C283.945 102.602 268.83 95.4164 273.29 83.0268C277.75 70.6372 258.175 81.7879 258.175 81.7879Z" fill="#C89CA3"/>
<path d="M280.063 76.667C281.203 69.6426 276.433 63.0241 269.408 61.8842C262.384 60.7443 255.765 65.5147 254.625 72.5391C253.486 79.5634 258.256 86.1819 265.28 87.3218C272.305 88.4617 278.923 83.6914 280.063 76.667Z" fill="#C89CA3"/>
<path d="M274.283 154.391C274.283 154.391 279.982 135.559 282.707 133.081C285.433 130.603 292.124 107.311 292.124 107.311C292.124 107.311 287.911 101.611 284.442 101.611C280.973 101.611 277.752 102.85 273.787 106.567C271.92 108.318 268.515 110.243 265.434 111.791C264.34 112.35 263.147 112.685 261.922 112.777C260.698 112.869 259.468 112.717 258.303 112.328C257.138 111.939 256.063 111.322 255.139 110.513C254.216 109.704 253.463 108.719 252.924 107.616C252.308 106.307 252.105 105.053 252.725 104.089C252.725 104.089 243.556 106.567 243.061 110.036C242.565 113.505 243.061 120.691 242.317 122.178C241.574 123.665 239.344 125.895 240.335 135.311C241.326 144.727 239.301 156.634 239.301 156.634C248.557 165.466 261.38 160.014 274.283 154.391Z" fill="#00A3FF"/>
<path d="M267.22 70.512C273.242 70.512 278.123 67.1838 278.123 63.0783C278.123 58.9727 273.242 55.6445 267.22 55.6445C261.199 55.6445 256.317 58.9727 256.317 63.0783C256.317 67.1838 261.199 70.512 267.22 70.512Z" fill="#2F2E41"/>
<path d="M285.805 62.584C291.552 62.584 296.212 57.9245 296.212 52.1768C296.212 46.429 291.552 41.7695 285.805 41.7695C280.057 41.7695 275.397 46.429 275.397 52.1768C275.397 57.9245 280.057 62.584 285.805 62.584Z" fill="#2F2E41"/>
<path d="M293.238 59.6122C290.628 59.6119 288.114 58.631 286.194 56.864C284.273 55.097 283.087 52.6729 282.87 50.0723C282.846 50.3585 282.831 50.6472 282.831 50.9395C282.831 53.6987 283.927 56.3447 285.878 58.296C287.829 60.2473 290.475 61.344 293.234 61.3452C295.993 61.3464 298.64 60.2519 300.592 58.3023C302.544 56.3526 303.643 53.7075 303.645 50.9484V50.9395C303.645 50.6472 303.63 50.3585 303.607 50.0723C303.389 52.6729 302.203 55.097 300.283 56.864C298.362 58.631 295.848 59.6119 293.238 59.6122Z" fill="#2F2E41"/>
<path d="M268.828 218.777H265.366L258.448 279.124L281.267 278.358L268.828 218.777Z" fill="#00A3FF"/>
<path opacity="0.2" d="M268.828 218.777H265.366L258.448 279.124L281.267 278.358L268.828 218.777Z" fill="black"/>
<path d="M267.675 218.008L263.447 278.742L315.237 282.587L319.465 223.389L267.675 218.008Z" fill="#00A3FF"/>
<path opacity="0.2" d="M285.111 224.161C285.537 224.161 285.882 223.816 285.882 223.39C285.882 222.964 285.537 222.619 285.111 222.619C284.685 222.619 284.34 222.964 284.34 223.39C284.34 223.816 284.685 224.161 285.111 224.161Z" fill="black"/>
<path opacity="0.2" d="M301.256 226.079C301.682 226.079 302.027 225.734 302.027 225.308C302.027 224.882 301.682 224.537 301.256 224.537C300.83 224.537 300.485 224.882 300.485 225.308C300.485 225.734 300.83 226.079 301.256 226.079Z" fill="black"/>
<path d="M301.447 225.313H301.065C301.065 225.149 301.336 208.935 292.024 207.44C290.19 207.148 288.69 207.563 287.568 208.674C283.723 212.487 285.313 223.255 285.329 223.362L284.952 223.42C284.882 222.968 283.319 212.349 287.302 208.403C288.515 207.196 290.131 206.744 292.088 207.057C301.724 208.6 301.453 225.149 301.447 225.313Z" fill="#3F3D56"/>
<path d="M292.866 141.504L291.627 155.38L294.105 197.009C294.105 197.009 299.804 218.071 291.132 217.576C282.459 217.08 285.68 195.522 285.68 195.522L281.715 147.203L292.866 141.504Z" fill="#C89CA3"/>
<path d="M285.681 103.838L292.123 107.307C292.123 107.307 300.796 166.254 295.84 171.953C290.884 177.652 280.725 179.882 280.229 177.652C279.734 175.422 277.999 130.104 277.999 130.104L285.681 103.838Z" fill="#00A3FF"/>
<path d="M42.3151 24.1792C37.8895 17.7033 35.627 9.99288 35.8518 2.15245C35.8558 1.97154 35.7971 1.79482 35.6856 1.65229C35.5742 1.50976 35.4168 1.4102 35.2402 1.37054V0H27.6083V1.35149H27.5031C27.4003 1.35163 27.2985 1.37201 27.2035 1.41149C27.1085 1.45097 27.0223 1.50876 26.9497 1.58157C26.877 1.65439 26.8195 1.74079 26.7802 1.83585C26.741 1.93091 26.7209 2.03278 26.721 2.13562C26.721 2.15463 26.7217 2.17363 26.7231 2.19261C27.3244 10.574 25.2941 18.0902 20.6322 24.7413C20.364 25.1235 20.2269 25.5824 20.2417 26.0492L21.0762 51.8631C21.0962 52.4389 21.3379 52.9847 21.7507 53.3865C22.1635 53.7884 22.7156 54.0153 23.2917 54.0199H40.554C41.1367 54.0151 41.6945 53.7831 42.1086 53.3731C42.5227 52.9631 42.7603 52.4077 42.7709 51.8251L43.0925 26.7618C43.102 25.8419 42.8308 24.941 42.3151 24.1792Z" fill="#E6E6E6"/>
<path d="M39.582 32.7539H24.5565C24.3341 32.7539 24.1143 32.802 23.9123 32.8949C23.7102 32.9878 23.5306 33.1233 23.3857 33.2921C23.2409 33.4609 23.1343 33.659 23.0732 33.8729C23.0122 34.0868 22.998 34.3113 23.0319 34.5311L25.3024 49.2898H38.3403L41.0983 34.5808C41.14 34.358 41.1322 34.1288 41.0753 33.9094C41.0184 33.69 40.9139 33.4858 40.7691 33.3114C40.6243 33.1369 40.4429 32.9966 40.2377 32.9002C40.0326 32.8039 39.8087 32.7539 39.582 32.7539V32.7539Z" fill="white"/>
<path d="M115.519 72.4805H108.293C108.039 72.4805 107.795 72.5814 107.616 72.7611C107.436 72.9407 107.335 73.1844 107.335 73.4385V76.6104C107.335 76.8645 107.436 77.1081 107.616 77.2878C107.795 77.4675 108.039 77.5684 108.293 77.5684H109.491V82.3209H114.322V77.5684H115.519C115.773 77.5684 116.017 77.4675 116.197 77.2878C116.376 77.1081 116.477 76.8645 116.477 76.6104V73.4385C116.477 73.1844 116.376 72.9407 116.197 72.7611C116.017 72.5814 115.773 72.4805 115.519 72.4805Z" fill="#E6E6E6"/>
<path d="M122.758 101.509C118.332 95.0334 116.07 87.323 116.294 79.4825C116.298 79.3016 116.24 79.1249 116.128 78.9824C116.017 78.8398 115.859 78.7403 115.683 78.7006V77.3301H108.051V78.6816H107.946C107.843 78.6817 107.741 78.7021 107.646 78.7416C107.551 78.7811 107.465 78.8389 107.392 78.9117C107.32 78.9845 107.262 79.0709 107.223 79.1659C107.184 79.261 107.164 79.3629 107.164 79.4657C107.164 79.4847 107.164 79.5037 107.166 79.5227C107.767 87.904 105.737 95.4203 101.075 102.071C100.807 102.454 100.67 102.913 100.684 103.379L101.519 129.193C101.539 129.769 101.781 130.315 102.193 130.717C102.606 131.118 103.158 131.345 103.734 131.35H120.997C121.579 131.345 122.137 131.113 122.551 130.703C122.965 130.293 123.203 129.738 123.214 129.155L123.535 104.092C123.545 103.172 123.273 102.271 122.758 101.509Z" fill="#E6E6E6"/>
<path d="M120.025 110.084H104.999C104.777 110.084 104.557 110.132 104.355 110.225C104.153 110.318 103.973 110.453 103.828 110.622C103.684 110.791 103.577 110.989 103.516 111.203C103.455 111.417 103.441 111.641 103.474 111.861L105.745 126.62H118.783L121.541 111.911C121.583 111.688 121.575 111.459 121.518 111.239C121.461 111.02 121.356 110.816 121.212 110.641C121.067 110.467 120.886 110.327 120.68 110.23C120.475 110.134 120.251 110.084 120.025 110.084V110.084Z" fill="white"/>
<path d="M24.9174 181.801H21.4896C21.3691 181.801 21.2535 181.849 21.1683 181.934C21.083 182.019 21.0352 182.135 21.0352 182.255V183.76C21.0352 183.88 21.083 183.996 21.1683 184.081C21.2535 184.166 21.3691 184.214 21.4896 184.214H22.0576V186.469H24.3493V184.214H24.9174C25.0379 184.214 25.1535 184.166 25.2387 184.081C25.3239 183.996 25.3718 183.88 25.3718 183.76V182.255C25.3718 182.135 25.3239 182.019 25.2387 181.934C25.1535 181.849 25.0379 181.801 24.9174 181.801Z" fill="#E6E6E6"/>
<path d="M28.3506 195.569C26.2513 192.497 25.1781 188.84 25.2847 185.121C25.2867 185.035 25.2588 184.951 25.2059 184.883C25.153 184.816 25.0784 184.769 24.9946 184.75V184.1H21.3745V184.741H21.3246C21.2758 184.741 21.2275 184.75 21.1825 184.769C21.1374 184.788 21.0965 184.815 21.0621 184.85C21.0276 184.884 21.0003 184.925 20.9817 184.97C20.9631 185.016 20.9535 185.064 20.9536 185.113C20.9536 185.122 20.9539 185.131 20.9546 185.14C21.2888 188.935 20.2649 192.725 18.0654 195.836C17.9382 196.017 17.8732 196.235 17.8801 196.456L18.276 208.701C18.2855 208.974 18.4001 209.233 18.596 209.423C18.7918 209.614 19.0537 209.722 19.3269 209.724H27.5153C27.7916 209.721 28.0562 209.611 28.2526 209.417C28.4491 209.222 28.5618 208.959 28.5668 208.683L28.7193 196.794C28.7239 196.358 28.5952 195.93 28.3506 195.569Z" fill="#E6E6E6"/>
<path d="M27.1731 200.07H19.3601V203.977H27.1731V200.07Z" fill="white"/>
<path d="M40.8738 181.801H37.446C37.3255 181.801 37.2099 181.849 37.1247 181.934C37.0395 182.019 36.9916 182.135 36.9916 182.255V183.76C36.9916 183.88 37.0395 183.996 37.1247 184.081C37.2099 184.166 37.3255 184.214 37.446 184.214H38.0141V186.469H40.3058V184.214H40.8738C40.9943 184.214 41.1099 184.166 41.1951 184.081C41.2804 183.996 41.3282 183.88 41.3282 183.76V182.255C41.3282 182.196 41.3165 182.136 41.2937 182.081C41.2708 182.026 41.2373 181.976 41.1951 181.934C41.1529 181.892 41.1028 181.858 41.0477 181.835C40.9926 181.813 40.9335 181.801 40.8738 181.801Z" fill="#E6E6E6"/>
<path d="M44.3078 195.569C42.2086 192.497 41.1354 188.84 41.242 185.121C41.2439 185.035 41.2161 184.951 41.1632 184.883C41.1103 184.816 41.0357 184.769 40.9519 184.75V184.1H37.3317V184.741H37.2818C37.2331 184.741 37.1848 184.75 37.1397 184.769C37.0947 184.788 37.0538 184.815 37.0193 184.85C36.9849 184.884 36.9576 184.925 36.9389 184.97C36.9203 185.016 36.9108 185.064 36.9109 185.113C36.9109 185.122 36.9112 185.131 36.9119 185.14C37.246 188.935 36.2222 192.725 34.0227 195.836C33.8954 196.017 33.8304 196.235 33.8374 196.456L34.2333 208.701C34.2428 208.974 34.3574 209.233 34.5532 209.423C34.7491 209.614 35.0109 209.722 35.2842 209.724H43.4725C43.7489 209.721 44.0135 209.611 44.2099 209.417C44.4063 209.222 44.5191 208.959 44.5241 208.683L44.6766 196.794C44.6811 196.358 44.5525 195.93 44.3078 195.569Z" fill="#E6E6E6"/>
<path d="M43.1287 200.07H35.3157V203.977H43.1287V200.07Z" fill="white"/>
<path d="M56.8311 181.801H53.4033C53.2828 181.801 53.1672 181.849 53.082 181.934C52.9967 182.019 52.9489 182.135 52.9489 182.255V183.76C52.9489 183.88 52.9967 183.996 53.082 184.081C53.1672 184.166 53.2828 184.214 53.4033 184.214H53.9713V186.469H56.2631V184.214H56.8311C56.9516 184.214 57.0672 184.166 57.1524 184.081C57.2377 183.996 57.2855 183.88 57.2855 183.76V182.255C57.2855 182.135 57.2377 182.019 57.1524 181.934C57.0672 181.849 56.9516 181.801 56.8311 181.801Z" fill="#E6E6E6"/>
<path d="M60.2638 195.569C58.1645 192.497 57.0913 188.84 57.1979 185.121C57.1998 185.035 57.172 184.951 57.1191 184.883C57.0662 184.816 56.9916 184.769 56.9078 184.75V184.1H53.2877V184.741H53.2378C53.189 184.741 53.1407 184.75 53.0957 184.769C53.0506 184.788 53.0097 184.815 52.9752 184.85C52.9408 184.884 52.9135 184.925 52.8949 184.97C52.8763 185.016 52.8667 185.064 52.8668 185.113C52.8668 185.122 52.8671 185.131 52.8678 185.14C53.2019 188.935 52.1781 192.725 49.9786 195.836C49.8514 196.017 49.7864 196.235 49.7934 196.456L50.1892 208.701C50.1987 208.974 50.3133 209.233 50.5092 209.423C50.705 209.614 50.9669 209.722 51.2401 209.724H59.4284C59.7048 209.721 59.9694 209.611 60.1659 209.417C60.3623 209.222 60.475 208.959 60.48 208.683L60.6326 196.794C60.6371 196.358 60.5084 195.93 60.2638 195.569Z" fill="#E6E6E6"/>
<path d="M59.0851 200.07H51.2721V203.977H59.0851V200.07Z" fill="white"/>
<path d="M102.966 151.883H95.7399C95.4858 151.883 95.2421 151.984 95.0625 152.163C94.8828 152.343 94.7819 152.587 94.7819 152.841V156.013C94.7819 156.267 94.8828 156.511 95.0625 156.69C95.2421 156.87 95.4858 156.971 95.7399 156.971H96.9374V161.723H101.769V156.971H102.966C103.092 156.971 103.217 156.946 103.333 156.898C103.449 156.85 103.555 156.779 103.644 156.69C103.733 156.601 103.803 156.496 103.851 156.379C103.9 156.263 103.924 156.139 103.924 156.013V152.841C103.924 152.587 103.823 152.343 103.644 152.163C103.464 151.984 103.22 151.883 102.966 151.883Z" fill="#E6E6E6"/>
<path d="M110.204 180.914C105.779 174.438 103.516 166.727 103.741 158.887C103.745 158.706 103.687 158.529 103.575 158.387C103.464 158.244 103.306 158.145 103.13 158.105V156.734H95.4977V158.086H95.3925C95.2897 158.086 95.1879 158.106 95.0929 158.146C94.998 158.185 94.9117 158.243 94.8391 158.316C94.7665 158.389 94.7089 158.475 94.6697 158.57C94.6304 158.665 94.6103 158.767 94.6104 158.87C94.6105 158.889 94.6112 158.908 94.6126 158.927C95.2138 167.308 93.1835 174.825 88.5217 181.476C88.2534 181.858 88.1163 182.317 88.1311 182.784L88.9656 208.597C88.9857 209.173 89.2273 209.719 89.6401 210.121C90.0529 210.523 90.605 210.75 91.1811 210.754H108.443C109.026 210.75 109.584 210.517 109.998 210.107C110.412 209.698 110.65 209.142 110.66 208.559L110.982 183.496C110.991 182.576 110.72 181.675 110.204 180.914Z" fill="#E6E6E6"/>
<path d="M107.471 189.486H92.4451C92.2227 189.486 92.0029 189.534 91.8008 189.627C91.5987 189.72 91.4191 189.856 91.2743 190.025C91.1295 190.193 91.0229 190.391 90.9618 190.605C90.9007 190.819 90.8866 191.044 90.9204 191.264L93.191 206.022H106.229L108.987 191.313C109.029 191.09 109.021 190.861 108.964 190.642C108.907 190.422 108.802 190.218 108.658 190.044C108.513 189.869 108.331 189.729 108.126 189.633C107.921 189.536 107.697 189.486 107.471 189.486V189.486Z" fill="white"/>
<path d="M106.911 57.3423H63.8356C66.8472 41.06 66.1543 21.3985 63.8356 0.253906H106.911C104.654 21.3985 103.98 41.06 106.911 57.3423Z" fill="#E6E6E6"/>
<path d="M85.6328 37.6208C91.3653 37.6208 96.0125 32.9736 96.0125 27.241C96.0125 21.5085 91.3653 16.8613 85.6328 16.8613C79.9002 16.8613 75.2531 21.5085 75.2531 27.241C75.2531 32.9736 79.9002 37.6208 85.6328 37.6208Z" fill="white"/>
<path d="M67.4681 133.116H24.3923C27.4039 116.833 26.7111 97.1719 24.3923 76.0273H67.4681C65.2111 97.172 64.5366 116.833 67.4681 133.116Z" fill="#E6E6E6"/>
<path d="M46.1897 113.392C51.9222 113.392 56.5694 108.745 56.5694 103.013C56.5694 97.28 51.9222 92.6328 46.1897 92.6328C40.4571 92.6328 35.8099 97.28 35.8099 103.013C35.8099 108.745 40.4571 113.392 46.1897 113.392Z" fill="white"/>
<path d="M131.303 60.9751H88.2272C91.2388 44.6928 90.5459 25.0313 88.2272 3.88672H131.303C129.046 25.0314 128.371 44.6928 131.303 60.9751Z" fill="#E6E6E6"/>
<path d="M110.024 41.2536C115.757 41.2536 120.404 36.6064 120.404 30.8739C120.404 25.1413 115.757 20.4941 110.024 20.4941C104.292 20.4941 99.6447 25.1413 99.6447 30.8739C99.6447 36.6064 104.292 41.2536 110.024 41.2536Z" fill="white"/>
<path d="M131.303 58.3814H88.2272C91.2388 42.099 90.5459 22.4375 88.2272 1.29297H131.303C129.046 22.4376 128.371 42.099 131.303 58.3814Z" fill="#E6E6E6"/>
<path d="M110.024 38.6579C115.757 38.6579 120.404 34.0107 120.404 28.2781C120.404 22.5456 115.757 17.8984 110.024 17.8984C104.292 17.8984 99.6447 22.5456 99.6447 28.2781C99.6447 34.0107 104.292 38.6579 110.024 38.6579Z" fill="white"/>
<path d="M131.303 60.9751H88.2272C91.2388 44.6928 90.5459 25.0313 88.2272 3.88672H131.303C129.046 25.0314 128.371 44.6928 131.303 60.9751Z" fill="#E6E6E6"/>
<path d="M110.024 41.2536C115.757 41.2536 120.404 36.6064 120.404 30.8739C120.404 25.1413 115.757 20.4941 110.024 20.4941C104.292 20.4941 99.6447 25.1413 99.6447 30.8739C99.6447 36.6064 104.292 41.2536 110.024 41.2536Z" fill="white"/>
<path d="M141.164 54.2305H0V69.8H141.164V54.2305Z" fill="#E6E6E6"/>
<path d="M141.164 131.557H0V147.126H141.164V131.557Z" fill="#E6E6E6"/>
<path d="M141.164 208.887H0V224.456H141.164V208.887Z" fill="#E6E6E6"/>
</svg>
