<svg width="750" height="528" viewBox="0 0 750 528" fill="none" xmlns="http://www.w3.org/2000/svg">
<path opacity="0.1" d="M649.841 528C673.644 528 692.94 522.877 692.94 516.558C692.94 510.24 673.644 505.117 649.841 505.117C626.038 505.117 606.743 510.24 606.743 516.558C606.743 522.877 626.038 528 649.841 528Z" fill="#6C63FF"/>
<path opacity="0.1" d="M720.92 467.715C704.523 481.317 681.189 486.947 658.623 490.503L654.825 491.082C631.255 494.597 607.423 496.469 583.51 497.607C570.716 498.227 557.921 498.665 545.126 499.055L535.099 499.351C522.079 499.738 509.035 500.117 495.967 500.49C483.172 500.853 470.377 501.194 457.582 501.513C441.196 501.913 424.809 502.245 408.423 502.51C395.628 502.712 382.833 502.851 370.038 502.927C353.648 503.022 337.261 502.99 320.879 502.833C308.076 502.703 295.281 502.478 282.495 502.16C266.099 501.738 249.713 501.12 233.336 500.308C222.22 499.764 211.111 499.111 200.008 498.348L194.951 497.991C147.294 494.557 98.781 488.395 57.0766 468.92L55.952 468.388C55.393 468.125 54.8341 467.863 54.2752 467.587C46.6179 463.926 39.2831 459.625 32.3488 454.731C20.0187 445.936 9.83665 435.202 4.45609 422.468C-3.97504 402.494 0.482948 380.043 10.1128 360.514C19.7426 340.985 34.2007 323.355 46.706 304.964C50.3694 299.577 53.8442 293.987 57.0766 288.257C77.279 252.317 87.2993 210.727 66.1205 176.093C63.325 171.677 60.3065 167.407 57.0766 163.298C51.9115 156.564 46.6589 149.83 43.11 142.375C34.8337 125.028 36.6115 105.519 39.6284 86.987C43.6689 62.3469 51.0765 35.8077 74.2284 20.4134C98.249 4.42661 132.344 5.2347 162.156 10.9856C208.507 19.868 251.289 38.4609 294.475 55.2289C337.661 71.9969 382.901 87.3305 430.383 88.9803C440.583 89.3294 450.795 88.9581 460.942 87.8692C474.471 86.479 487.815 83.6689 500.755 79.4852C519.442 73.3302 536.445 64.0708 549.052 51.2019C576.089 23.693 626.898 21.6121 663.532 38.2252C698.489 54.0773 721.095 87.6268 719.425 121.136C717.526 158.436 689.593 189.103 663.997 220.558C660.892 224.37 657.828 228.195 654.845 232.047C653.179 234.197 651.545 236.352 649.943 238.512C647.134 242.323 644.421 246.155 641.862 250.034C628.784 269.92 619.538 293.806 628.542 315.274C633.592 327.294 643.229 336.466 654.845 344.473C680.872 362.406 716.799 374.474 732.961 399.579C746.887 421.215 741.729 450.421 720.92 467.715Z" fill="#00A3FF"/>
<g opacity="0.1">
<path opacity="0.1" d="M374.079 369.709C374.106 370.342 374.153 370.961 374.22 371.567C379.46 369.48 384.602 367.235 389.648 364.833C392.341 364.476 394.845 363.251 396.78 361.345C398.255 360.604 399.723 359.83 401.177 359.055C400.848 358.359 400.475 357.684 400.059 357.035C397.224 352.557 392.914 349.756 388.167 349.91C383.419 350.065 379.311 353.143 376.773 357.783C374.825 361.446 373.895 365.564 374.079 369.709Z" fill="#3F3D56"/>
<path opacity="0.1" d="M373.305 346.157C373.406 350.284 374.603 354.309 376.773 357.821C379.615 362.286 383.924 365.087 388.672 364.932C389.002 364.932 389.345 364.885 389.648 364.858C392.341 364.501 394.845 363.276 396.78 361.37C398.093 360.12 399.2 358.67 400.059 357.073C401.959 353.407 402.887 349.315 402.752 345.188C402.618 341.062 401.426 337.038 399.292 333.504C396.45 329.026 392.14 326.224 387.393 326.379C382.645 326.534 378.544 329.612 376.005 334.251C374.059 337.908 373.126 342.019 373.305 346.157Z" fill="#3F3D56"/>
<path opacity="0.1" d="M387.895 341.384C396.025 341.117 402.332 332.273 401.982 321.631C401.633 310.989 394.76 302.578 386.63 302.845C378.501 303.112 372.194 311.955 372.543 322.598C372.892 333.24 379.766 341.651 387.895 341.384Z" fill="#3F3D56"/>
<path opacity="0.1" d="M387.123 317.843C395.252 317.576 401.559 308.732 401.21 298.09C400.861 287.448 393.987 279.037 385.858 279.304C377.729 279.571 371.422 288.414 371.771 299.057C372.12 309.699 378.994 318.11 387.123 317.843Z" fill="#3F3D56"/>
<path opacity="0.1" d="M386.351 294.288C394.48 294.021 400.787 285.178 400.438 274.536C400.088 263.893 393.215 255.482 385.086 255.749C376.956 256.016 370.649 264.86 370.998 275.502C371.348 286.144 378.221 294.555 386.351 294.288Z" fill="#3F3D56"/>
<path opacity="0.1" d="M435.554 112.072C437.481 109.447 439.223 106.691 440.767 103.823L401.884 98.7456L443.716 97.6816C447.442 88.8222 449.321 79.2956 449.238 69.685C449.154 60.0743 447.11 50.5817 443.231 41.7883L388.072 72.7316L438.578 33.0003C433.436 24.8201 426.668 17.7834 418.695 12.3266C410.721 6.86988 401.712 3.10937 392.225 1.2783C382.738 -0.552775 372.976 -0.415362 363.544 1.68201C354.112 3.77939 345.212 7.79201 337.395 13.471C329.578 19.1501 323.012 26.3744 318.102 34.6961C313.192 43.0178 310.045 52.2594 308.854 61.8478C307.663 71.4362 308.455 81.167 311.181 90.4367C313.906 99.7064 318.507 108.317 324.697 115.736C321.696 119.823 319.143 124.221 317.081 128.854L368.132 153.285L314.017 137.083C310.624 148.316 310.085 160.218 312.45 171.711C314.814 183.205 320.007 193.928 327.559 202.909C319.725 213.578 315.05 226.237 314.071 239.437C313.092 252.637 315.846 265.847 322.02 277.555C328.194 289.264 337.539 298.999 348.985 305.647C360.43 312.296 373.516 315.589 386.746 315.151C399.975 314.713 412.814 310.561 423.795 303.17C434.776 295.779 443.456 285.447 448.841 273.355C454.227 261.264 456.102 247.901 454.251 234.794C452.401 221.688 446.899 209.366 438.376 199.239C447.744 186.496 452.558 170.975 452.046 155.167C451.535 139.36 445.726 124.183 435.554 112.072Z" fill="#6C63FF"/>
<path opacity="0.1" d="M311.04 159.791C311.532 175.608 317.353 190.795 327.559 202.889C319.723 213.557 315.046 226.214 314.064 239.415C313.082 252.615 315.835 265.825 322.006 277.535C328.178 289.245 337.521 298.981 348.965 305.632C360.41 312.282 373.495 315.578 386.725 315.142C399.954 314.706 412.794 310.557 423.777 303.168C434.759 295.779 443.441 285.448 448.829 273.358C454.217 261.267 456.094 247.905 454.245 234.798C452.397 221.691 446.898 209.368 438.376 199.239C447.433 186.943 310.785 151.878 311.04 159.791Z" fill="black"/>
</g>
<g opacity="0.1">
<path opacity="0.1" d="M219.652 493.759C219.652 494.203 219.605 494.648 219.551 495.106C215.825 493.624 212.164 492.037 208.568 490.345C206.652 490.094 204.869 489.227 203.49 487.873C202.44 487.339 201.396 486.796 200.359 486.244C200.593 485.751 200.858 485.274 201.153 484.816C203.174 481.624 206.231 479.631 209.611 479.739C212.992 479.846 215.914 482.028 217.692 485.328C219.084 487.914 219.761 490.824 219.652 493.759Z" fill="#3F3D56"/>
<path opacity="0.1" d="M220.177 476.997C220.111 479.933 219.265 482.799 217.726 485.3C215.706 488.479 212.642 490.479 209.268 490.371L208.595 490.317C206.679 490.066 204.896 489.199 203.517 487.846C202.58 486.957 201.792 485.925 201.18 484.788C199.83 482.182 199.169 479.273 199.261 476.339C199.353 473.405 200.194 470.544 201.706 468.027C203.726 464.835 206.79 462.842 210.164 462.949C213.538 463.057 216.467 465.239 218.278 468.539C219.654 471.139 220.31 474.059 220.177 476.997Z" fill="#3F3D56"/>
<path opacity="0.1" d="M220.721 460.268C220.96 452.696 216.465 446.409 210.681 446.226C204.897 446.043 200.014 452.034 199.775 459.606C199.536 467.178 204.031 473.465 209.815 473.647C215.599 473.83 220.482 467.84 220.721 460.268Z" fill="#3F3D56"/>
<path opacity="0.1" d="M221.244 443.506C221.484 435.934 216.989 429.647 211.205 429.465C205.42 429.282 200.538 435.272 200.298 442.844C200.059 450.416 204.554 456.703 210.338 456.886C216.122 457.068 221.005 451.078 221.244 443.506Z" fill="#3F3D56"/>
<path opacity="0.1" d="M221.774 426.742C222.013 419.17 217.519 412.884 211.734 412.701C205.95 412.518 201.067 418.508 200.828 426.08C200.589 433.653 205.084 439.939 210.868 440.122C216.652 440.305 221.535 434.315 221.774 426.742Z" fill="#3F3D56"/>
<path opacity="0.1" d="M175.699 310.466C174.326 308.597 173.081 306.638 171.975 304.6L199.639 300.923L169.867 300.25C167.206 293.947 165.86 287.168 165.911 280.327C165.962 273.486 167.409 266.727 170.163 260.465L209.443 282.438L173.47 254.189C177.11 248.34 181.916 243.304 187.587 239.393C193.257 235.482 199.673 232.78 206.433 231.456C213.193 230.132 220.154 230.213 226.881 231.695C233.609 233.176 239.959 236.027 245.538 240.069C251.116 244.111 255.802 249.258 259.305 255.19C262.808 261.122 265.053 267.711 265.9 274.547C266.746 281.384 266.176 288.322 264.226 294.928C262.275 301.535 258.986 307.67 254.562 312.951C256.704 315.857 258.527 318.986 259.997 322.284L223.686 339.712L262.185 328.129C264.608 336.122 265.002 344.593 263.33 352.776C261.658 360.959 257.973 368.597 252.609 374.999C258.196 382.583 261.536 391.587 262.247 400.98C262.958 410.373 261.012 419.777 256.631 428.116C252.25 436.455 245.61 443.393 237.472 448.137C229.334 452.88 220.025 455.238 210.609 454.941C201.194 454.643 192.052 451.702 184.23 446.455C176.407 441.207 170.219 433.863 166.373 425.264C162.527 416.665 161.178 407.157 162.48 397.828C163.783 388.499 167.685 379.724 173.739 372.507C167.063 363.445 163.627 352.401 163.982 341.151C164.337 329.9 168.464 319.096 175.699 310.472V310.466Z" fill="#6C63FF"/>
<path opacity="0.1" d="M264.319 344.313C263.982 355.568 259.856 366.381 252.609 375C258.196 382.585 261.536 391.588 262.247 400.981C262.958 410.374 261.012 419.778 256.63 428.117C252.249 436.456 245.61 443.394 237.471 448.138C229.333 452.881 220.024 455.239 210.609 454.942C201.194 454.645 192.052 451.704 184.229 446.456C176.406 441.208 170.218 433.865 166.372 425.266C162.526 416.667 161.177 407.159 162.48 397.829C163.783 388.5 167.684 379.725 173.739 372.508C167.281 363.754 264.508 338.676 264.319 344.313Z" fill="black"/>
</g>
<g opacity="0.1">
<path opacity="0.1" d="M570.346 406.179C570.346 406.63 570.298 407.068 570.251 407.526C566.521 406.044 562.859 404.457 559.268 402.765C557.35 402.513 555.566 401.646 554.184 400.293C553.14 399.761 552.089 399.216 551.052 398.664C551.289 398.173 551.554 397.696 551.847 397.236C553.867 394.044 556.924 392.051 560.305 392.158C563.685 392.266 566.608 394.448 568.386 397.748C569.778 400.334 570.454 403.244 570.346 406.179Z" fill="#3F3D56"/>
<path opacity="0.1" d="M570.911 389.419C570.843 392.355 569.994 395.221 568.453 397.722C566.433 400.9 563.375 402.9 559.995 402.793L559.321 402.739C557.404 402.487 555.62 401.62 554.237 400.267C553.303 399.377 552.515 398.345 551.9 397.21C550.55 394.604 549.889 391.695 549.981 388.761C550.073 385.827 550.914 382.965 552.426 380.449C554.446 377.264 557.51 375.264 560.884 375.371C564.258 375.479 567.194 377.661 568.998 380.961C570.379 383.559 571.039 386.479 570.911 389.419Z" fill="#3F3D56"/>
<path opacity="0.1" d="M571.438 372.682C571.677 365.11 567.182 358.823 561.398 358.64C555.614 358.457 550.731 364.448 550.491 372.02C550.252 379.592 554.747 385.879 560.531 386.061C566.315 386.244 571.198 380.254 571.438 372.682Z" fill="#3F3D56"/>
<path opacity="0.1" d="M571.968 355.924C572.207 348.352 567.712 342.065 561.928 341.882C556.144 341.7 551.261 347.69 551.021 355.262C550.782 362.834 555.277 369.121 561.061 369.304C566.845 369.486 571.728 363.496 571.968 355.924Z" fill="#3F3D56"/>
<path opacity="0.1" d="M572.497 339.166C572.737 331.594 568.242 325.307 562.458 325.125C556.673 324.942 551.79 330.932 551.551 338.504C551.312 346.076 555.807 352.363 561.591 352.546C567.375 352.729 572.258 346.738 572.497 339.166Z" fill="#3F3D56"/>
<path opacity="0.1" d="M526.391 222.889C525.017 221.023 523.774 219.063 522.674 217.023L550.338 213.38L520.566 212.66C517.907 206.357 516.561 199.578 516.611 192.737C516.66 185.897 518.105 179.138 520.856 172.875L560.136 194.848L524.162 166.612C527.796 160.749 532.6 155.698 538.273 151.774C543.945 147.85 550.366 145.138 557.134 143.805C563.901 142.473 570.871 142.549 577.608 144.03C584.345 145.51 590.704 148.363 596.29 152.41C601.875 156.458 606.566 161.613 610.071 167.553C613.576 173.494 615.819 180.094 616.66 186.94C617.501 193.786 616.923 200.732 614.96 207.345C612.998 213.957 609.694 220.095 605.255 225.374C607.395 228.28 609.215 231.41 610.682 234.707L574.372 252.135L612.871 240.553C615.298 248.544 615.693 257.015 614.021 265.197C612.349 273.38 608.662 281.017 603.295 287.415C608.883 294.998 612.224 304.001 612.936 313.393C613.648 322.786 611.703 332.189 607.322 340.528C602.942 348.867 596.303 355.805 588.166 360.548C580.028 365.292 570.719 367.65 561.305 367.352C551.89 367.055 542.749 364.114 534.927 358.866C527.105 353.618 520.918 346.275 517.073 337.676C513.228 329.077 511.88 319.57 513.184 310.241C514.487 300.912 518.39 292.139 524.445 284.924C517.769 275.861 514.333 264.818 514.688 253.567C515.044 242.317 519.17 231.512 526.405 222.889H526.391Z" fill="#6C63FF"/>
<path opacity="0.1" d="M615.02 256.736C614.682 267.991 610.553 278.802 603.302 287.417C608.889 295 612.229 304.002 612.94 313.394C613.652 322.787 611.706 332.189 607.325 340.527C602.945 348.866 596.306 355.803 588.169 360.546C580.031 365.289 570.723 367.647 561.309 367.35C551.895 367.052 542.754 364.112 534.933 358.864C527.111 353.617 520.923 346.274 517.078 337.676C513.233 329.078 511.884 319.571 513.187 310.243C514.49 300.914 518.392 292.141 524.446 284.925C517.981 276.178 615.195 251.093 615.02 256.736Z" fill="black"/>
</g>
<path d="M130.304 512.806C151.507 512.806 168.695 509.502 168.695 505.426C168.695 501.349 151.507 498.045 130.304 498.045C109.101 498.045 91.9124 501.349 91.9124 505.426C91.9124 509.502 109.101 512.806 130.304 512.806Z" fill="#00A3FF"/>
<path d="M129.664 508.141C132.133 508.141 134.135 505.521 134.135 502.289C134.135 499.058 132.133 496.438 129.664 496.438C127.194 496.438 125.192 499.058 125.192 502.289C125.192 505.521 127.194 508.141 129.664 508.141Z" fill="#3F3D56"/>
<path d="M129.664 500.989C132.133 500.989 134.135 498.369 134.135 495.137C134.135 491.905 132.133 489.285 129.664 489.285C127.194 489.285 125.192 491.905 125.192 495.137C125.192 498.369 127.194 500.989 129.664 500.989Z" fill="#3F3D56"/>
<path d="M129.664 493.839C132.133 493.839 134.135 491.219 134.135 487.987C134.135 484.755 132.133 482.135 129.664 482.135C127.194 482.135 125.192 484.755 125.192 487.987C125.192 491.219 127.194 493.839 129.664 493.839Z" fill="#3F3D56"/>
<path d="M129.664 486.688C132.133 486.688 134.135 484.068 134.135 480.836C134.135 477.604 132.133 474.984 129.664 474.984C127.194 474.984 125.192 477.604 125.192 480.836C125.192 484.068 127.194 486.688 129.664 486.688Z" fill="#3F3D56"/>
<path d="M129.664 479.534C132.133 479.534 134.135 476.914 134.135 473.682C134.135 470.45 132.133 467.83 129.664 467.83C127.194 467.83 125.192 470.45 125.192 473.682C125.192 476.914 127.194 479.534 129.664 479.534Z" fill="#3F3D56"/>
<path d="M129.664 472.382C132.133 472.382 134.135 469.762 134.135 466.53C134.135 463.298 132.133 460.678 129.664 460.678C127.194 460.678 125.192 463.298 125.192 466.53C125.192 469.762 127.194 472.382 129.664 472.382Z" fill="#3F3D56"/>
<path d="M129.664 465.231C132.133 465.231 134.135 462.611 134.135 459.379C134.135 456.147 132.133 453.527 129.664 453.527C127.194 453.527 125.192 456.147 125.192 459.379C125.192 462.611 127.194 465.231 129.664 465.231Z" fill="#3F3D56"/>
<path d="M146.397 410.433C147.007 409.655 147.563 408.836 148.061 407.982L136.316 406.049L149.017 406.15C150.235 403.498 150.9 400.625 150.97 397.707C151.041 394.79 150.516 391.888 149.428 389.18L132.384 398.022L148.101 386.446C146.627 383.903 144.646 381.691 142.281 379.947C139.915 378.203 137.216 376.965 134.351 376.309C131.486 375.654 128.517 375.595 125.628 376.136C122.74 376.678 119.993 377.808 117.56 379.456C115.127 381.105 113.06 383.237 111.486 385.719C109.913 388.201 108.867 390.981 108.415 393.885C107.962 396.789 108.112 399.755 108.855 402.598C109.598 405.442 110.918 408.102 112.734 410.413C111.784 411.624 110.967 412.933 110.296 414.319L125.542 422.238L109.286 416.783C108.144 420.157 107.861 423.763 108.463 427.274C109.065 430.785 110.533 434.09 112.734 436.891C110.25 440.05 108.706 443.844 108.277 447.84C107.848 451.835 108.551 455.87 110.308 459.485C112.064 463.099 114.801 466.146 118.207 468.278C121.613 470.41 125.551 471.54 129.569 471.54C133.587 471.54 137.524 470.41 140.93 468.278C144.336 466.146 147.074 463.099 148.83 459.485C150.586 455.87 151.29 451.835 150.861 447.84C150.432 443.844 148.888 440.05 146.404 436.891C149.371 433.116 150.983 428.454 150.983 423.652C150.983 418.851 149.371 414.188 146.404 410.413L146.397 410.433Z" fill="#00A3FF"/>
<path opacity="0.1" d="M108.154 423.673C108.146 428.476 109.76 433.141 112.734 436.912C110.25 440.071 108.706 443.865 108.277 447.861C107.848 451.856 108.551 455.891 110.308 459.506C112.064 463.12 114.801 466.167 118.207 468.299C121.613 470.431 125.551 471.561 129.569 471.561C133.587 471.561 137.524 470.431 140.93 468.299C144.337 466.167 147.074 463.12 148.83 459.506C150.586 455.891 151.29 451.856 150.861 447.861C150.432 443.865 148.888 440.071 146.404 436.912C149.266 433.269 108.154 421.269 108.154 423.673Z" fill="black"/>
<path d="M233.335 348.063V500.254C222.219 499.711 211.11 499.057 200.008 498.294L194.951 497.937V348.063C194.951 347.283 195.104 346.51 195.403 345.79C195.701 345.069 196.139 344.414 196.69 343.863C197.242 343.311 197.897 342.874 198.617 342.575C199.338 342.277 200.11 342.123 200.89 342.123H227.396C228.176 342.123 228.948 342.277 229.669 342.575C230.389 342.874 231.044 343.311 231.596 343.863C232.147 344.414 232.585 345.069 232.883 345.79C233.182 346.51 233.335 347.283 233.335 348.063Z" fill="#3F3D56"/>
<path d="M282.494 502.148V246.379C282.494 244.804 283.12 243.293 284.234 242.179C285.348 241.065 286.859 240.439 288.434 240.439H314.939C315.719 240.439 316.492 240.593 317.212 240.892C317.933 241.19 318.588 241.628 319.139 242.179C319.691 242.731 320.128 243.385 320.427 244.106C320.725 244.827 320.879 245.599 320.879 246.379V502.815L282.494 502.148Z" fill="#3F3D56"/>
<path d="M370.038 502.949V299.578C370.038 298.003 370.664 296.492 371.777 295.378C372.891 294.264 374.402 293.639 375.977 293.639H402.483C404.058 293.639 405.569 294.264 406.683 295.378C407.797 296.492 408.422 298.003 408.422 299.578V502.511L370.038 502.949Z" fill="#3F3D56"/>
<path d="M495.967 148.734V500.492C483.172 500.855 470.377 501.197 457.582 501.515V148.734C457.582 147.159 458.208 145.648 459.322 144.535C460.436 143.421 461.947 142.795 463.522 142.795H490.027C491.603 142.795 493.113 143.421 494.227 144.535C495.341 145.648 495.967 147.159 495.967 148.734Z" fill="#3F3D56"/>
<path d="M583.51 219.443V497.563C570.715 498.182 557.921 498.62 545.126 499.011V219.443C545.126 217.868 545.751 216.357 546.865 215.244C547.979 214.13 549.49 213.504 551.065 213.504H577.571C579.146 213.504 580.657 214.13 581.771 215.244C582.885 216.357 583.51 217.868 583.51 219.443Z" fill="#3F3D56"/>
<path d="M214.48 259.309L302.024 161.664L389.568 210.823L477.111 59.9785L564.655 132.034" stroke="#3F3D56" stroke-width="4.71389" stroke-miterlimit="10" stroke-linecap="round"/>
<path d="M214.143 278.164C224.557 278.164 232.999 269.722 232.999 259.309C232.999 248.895 224.557 240.453 214.143 240.453C203.73 240.453 195.288 248.895 195.288 259.309C195.288 269.722 203.73 278.164 214.143 278.164Z" fill="#00A3FF"/>
<path d="M301.687 180.52C312.101 180.52 320.543 172.078 320.543 161.664C320.543 151.251 312.101 142.809 301.687 142.809C291.273 142.809 282.832 151.251 282.832 161.664C282.832 172.078 291.273 180.52 301.687 180.52Z" fill="#00A3FF"/>
<path d="M389.231 229.678C399.644 229.678 408.086 221.236 408.086 210.822C408.086 200.409 399.644 191.967 389.231 191.967C378.817 191.967 370.375 200.409 370.375 210.822C370.375 221.236 378.817 229.678 389.231 229.678Z" fill="#00A3FF"/>
<path d="M476.774 78.8342C487.188 78.8342 495.63 70.3923 495.63 59.9786C495.63 49.565 487.188 41.123 476.774 41.123C466.361 41.123 457.919 49.565 457.919 59.9786C457.919 70.3923 466.361 78.8342 476.774 78.8342Z" fill="#00A3FF"/>
<path d="M645.127 239.106C655.541 239.106 663.983 230.664 663.983 220.25C663.983 209.836 655.541 201.395 645.127 201.395C634.714 201.395 626.272 209.836 626.272 220.25C626.272 230.664 634.714 239.106 645.127 239.106Z" fill="#00A3FF"/>
<path opacity="0.1" d="M157.362 488.51C164.309 488.51 169.941 487.557 169.941 486.382C169.941 485.207 164.309 484.254 157.362 484.254C150.414 484.254 144.782 485.207 144.782 486.382C144.782 487.557 150.414 488.51 157.362 488.51Z" fill="#6C63FF"/>
<path d="M148.917 476.503C148.917 476.503 156.089 476.281 158.25 474.739C160.412 473.197 169.288 471.372 169.826 473.83C170.365 476.288 180.601 486.113 172.52 486.18C164.439 486.247 153.698 484.914 151.543 483.601C149.388 482.288 148.917 476.503 148.917 476.503Z" fill="#A8A8A8"/>
<path opacity="0.2" d="M172.648 485.32C164.567 485.387 153.833 484.06 151.671 482.747C150.028 481.744 149.375 478.155 149.153 476.498H148.917C148.917 476.498 149.368 482.283 151.53 483.596C153.691 484.909 164.405 486.242 172.507 486.175C174.843 486.175 175.651 485.327 175.604 484.094C175.281 484.842 174.392 485.306 172.648 485.32Z" fill="black"/>
<path opacity="0.1" d="M716.375 508.333C729.136 508.333 739.48 506.584 739.48 504.427C739.48 502.27 729.136 500.521 716.375 500.521C703.615 500.521 693.271 502.27 693.271 504.427C693.271 506.584 703.615 508.333 716.375 508.333Z" fill="#6C63FF"/>
<path d="M700.88 486.282C700.88 486.282 714.059 485.878 718.032 483.05C722.005 480.222 738.301 476.848 739.285 481.38C740.268 485.912 759.096 503.939 744.214 504.06C729.332 504.182 709.641 501.744 705.675 499.347C701.708 496.949 700.88 486.282 700.88 486.282Z" fill="#A8A8A8"/>
<path opacity="0.2" d="M744.462 502.484C729.58 502.605 709.889 500.168 705.923 497.77C702.906 495.932 701.7 489.332 701.296 486.322H700.859C700.859 486.322 701.694 496.955 705.653 499.366C709.613 501.777 729.317 504.222 744.193 504.08C748.489 504.08 749.971 502.518 749.89 500.255C749.291 501.602 747.654 502.457 744.462 502.484Z" fill="black"/>
<path d="M572.13 231.814C572.255 232.993 572.723 234.11 573.476 235.026C574.453 236.13 575.914 236.635 577.227 237.295C580.626 239.035 583.222 242.019 584.473 245.625C586.716 252.171 587.005 259.094 589.861 265.41C592.716 271.727 596.07 277.794 598.534 284.266C599.935 287.936 601.053 291.754 603.107 295.094C604.101 296.737 605.37 298.197 606.858 299.411C606.703 301.781 606.642 304.125 606.656 306.495C607.111 306.486 607.56 306.593 607.963 306.805C608.366 307.017 608.708 307.327 608.959 307.707C609.457 308.475 609.8 309.333 609.969 310.233C610.891 314.051 609.753 318.118 610.582 321.957C612.857 332.634 612.158 343.731 608.561 354.038C607.639 356.651 606.48 365.298 607.464 367.89C611.127 367.52 614.373 369.769 617.801 371.257C618.078 373.289 617.912 375.356 617.316 377.318C616.083 380.867 616.09 384.726 616.11 388.476L616.279 416.261C616.279 419.783 616.326 423.352 617.208 426.767C618.211 430.612 620.319 434.531 620.252 438.504C620.07 447.057 624.11 455.205 623.787 463.69C623.727 465.32 623.504 466.936 623.349 468.552C622.952 472.857 623.06 477.195 623.673 481.475C624.898 490 628.137 498.384 627.329 506.957C627.275 507.536 627.08 508.304 626.535 508.526C627.208 509.287 627.922 510.041 628.649 510.761C628.502 511.007 628.302 511.216 628.063 511.374C627.268 511.79 626.388 512.02 625.491 512.048C624.438 512.075 623.416 512.407 622.548 513.004C621.917 513.609 621.489 514.395 621.322 515.253C621.083 516.101 621.031 516.991 621.171 517.861C621.31 518.731 621.638 519.56 622.131 520.29C622.732 521.047 623.518 521.636 624.413 522.001C627.525 523.348 631.094 522.371 634.34 521.388L647.054 517.536C647.829 517.375 648.545 517.002 649.121 516.459C649.385 516.147 649.559 515.77 649.626 515.368C652.434 516.041 655.518 515.213 658.38 514.357L671.094 510.499C671.871 510.341 672.587 509.967 673.162 509.421C673.391 509.143 673.556 508.818 673.645 508.469C673.735 508.12 673.747 507.755 673.68 507.401C673.775 507.361 673.869 507.334 673.963 507.287C674.933 506.849 675.983 505.994 675.748 504.963C675.579 504.29 674.906 503.899 674.616 503.28C674.48 502.877 674.452 502.445 674.535 502.028C674.617 501.611 674.808 501.223 675.088 500.903C675.586 500.229 676.259 499.67 676.717 498.963C678.185 496.714 677.189 493.758 676.637 491.125C675.445 485.502 676.549 479.63 675.795 473.932C675.539 472.013 675.074 470.128 674.704 468.222C673.919 463.718 673.4 459.171 673.148 454.606C672.663 448.087 670.852 441.663 671.889 435.198C672.393 431.404 672.607 427.576 672.529 423.75C672.602 421.312 672.496 418.872 672.212 416.45C671.95 414.645 671.485 412.874 671.283 411.063C671.119 409.026 671.083 406.982 671.175 404.941C671.268 400.392 670.848 395.847 669.923 391.392C668.576 385.271 666.044 379.412 664.966 373.277C665.33 373.358 665.694 373.439 666.044 373.533C666.084 368.819 661.956 358.57 660.428 354.099C660.204 353.551 660.067 352.971 660.024 352.381C660.116 351.603 660.258 350.832 660.448 350.072C660.643 348.442 659.774 346.893 659.539 345.264C659.447 344.117 659.531 342.964 659.788 341.843C660.872 335.816 662.219 329.836 663.566 323.862C664.153 321.699 664.356 319.449 664.165 317.216C664.008 316.032 664.108 314.829 664.456 313.687C664.805 312.545 665.394 311.491 666.185 310.596C666.777 310.05 667.281 309.417 667.68 308.717C667.904 308.117 668.005 307.478 667.977 306.839C667.95 304.069 667.542 301.315 666.764 298.657C667.95 296.508 668.387 293.869 668.731 291.377C669.485 285.875 670.239 280.346 670.212 274.791C670.272 271.827 669.863 268.872 669 266.036C668.37 264.285 667.6 262.587 666.697 260.959C663.155 254.137 659.768 246.959 655.296 240.709C653.949 238.81 654.798 236.191 654.892 233.847C654.993 231.019 653.875 228.305 652.778 225.706C652.218 224.106 651.358 222.627 650.246 221.349C649.869 220.935 649.412 220.602 648.903 220.37C648.393 220.138 647.842 220.013 647.283 220.002C646.648 220.079 646.038 220.292 645.494 220.625C644.949 220.959 644.482 221.405 644.124 221.935C643.31 223.044 642.723 224.304 642.399 225.641C642.074 226.978 642.017 228.367 642.232 229.726C642.679 232.447 643.865 234.993 645.66 237.086C646.527 238.14 647.519 239.083 648.616 239.895C649.729 243.432 650.852 246.968 651.983 250.501C653.761 256.124 655.539 261.774 658.044 267.094C658.778 268.636 659.586 270.205 659.673 271.909C659.768 273.747 659 275.498 658.387 277.229C657.096 280.836 656.365 284.619 656.219 288.448C656.022 288.535 655.833 288.639 655.653 288.757C653.532 290.145 652.865 293.168 650.656 294.407C649.37 295.128 647.808 295.081 646.367 295.411C646.239 295.411 646.111 295.478 645.976 295.518C645.922 295.249 645.868 294.986 645.835 294.71C645.814 294.538 645.814 294.364 645.835 294.192C649.268 292.304 652.153 289.557 654.205 286.219C654.638 285.6 654.972 284.919 655.195 284.198C655.377 283.335 655.411 282.447 655.296 281.572C655.184 278.652 654.766 275.752 654.05 272.919C653.332 270.072 651.76 267.513 649.545 265.585C648.441 264.696 647.168 264.03 646.07 263.134C643.929 261.403 642.461 258.844 640.01 257.558C638.45 256.798 636.67 256.62 634.99 257.054C633.31 257.489 631.841 258.508 630.845 259.929C630.518 260.586 630.06 261.168 629.498 261.639C629.069 261.842 628.651 262.067 628.245 262.312C627.504 262.905 627.464 264.043 627.706 264.966C628.166 266.861 628.423 268.8 628.474 270.75C626.301 273.301 625.104 276.54 625.096 279.891C625.089 283.242 626.272 286.487 628.434 289.047C628.434 290.3 628.434 291.552 628.387 292.805C628.387 293.04 628.387 293.283 628.339 293.518C627.563 293.248 626.868 292.784 626.319 292.172C625.565 291.229 625.43 289.842 624.508 289.067C623.844 288.63 623.088 288.353 622.299 288.259C620.338 287.814 618.499 286.942 616.912 285.707C615.666 284.744 614.373 283.512 612.918 283.229C610.408 278.521 607.478 274.049 604.164 269.868C603.323 268.878 602.558 267.827 601.874 266.723C600.426 264.198 599.996 261.228 599.08 258.461C596.521 250.703 590.137 244.481 588.581 236.453C588.015 233.544 586.17 231.012 584.904 228.332C584.049 226.521 583.106 224.608 581.396 223.571C579.194 222.224 576.15 222.844 574.318 224.655C573.432 225.602 572.773 226.74 572.394 227.981C572.015 229.221 571.924 230.533 572.13 231.814ZM652.084 504.337C651.288 504.753 650.409 504.983 649.512 505.01C649.059 505.058 648.609 505.13 648.165 505.226C647.996 503.812 647.902 502.377 647.794 500.984C647.437 496.411 646.724 491.872 646.017 487.34C645.276 482.626 644.926 477.468 643.323 472.943C640.744 465.575 638.131 457.986 638.461 450.181C638.535 448.41 638.757 446.653 638.851 444.888C639.067 440.518 638.454 436.053 639.525 431.804C640.003 429.871 640.818 428.026 641.128 426.06C641.325 424.284 641.348 422.493 641.195 420.713C640.901 414.533 641.414 408.341 642.724 402.295C643.976 403.931 644.387 406.046 644.744 408.073L647.269 421.77C648.771 429.898 650.097 438.518 654.077 445.75C653.518 448.356 652.966 451.137 653.889 453.629C654.286 454.707 654.939 455.649 655.343 456.74C656.017 458.552 655.922 460.545 656.124 462.464C656.562 466.505 658.232 470.478 657.007 474.377C655.746 478.397 654.926 482.543 654.562 486.741C654.495 487.908 654.36 489.071 654.158 490.222C653.943 491.259 653.592 492.243 653.397 493.307C653.128 494.8 653.195 496.334 653.592 497.798C653.895 498.61 654.081 499.46 654.145 500.324C654.145 501.186 653.087 501.805 652.239 501.94C652.488 502.263 652.757 502.573 653.034 502.876C652.871 503.447 652.54 503.957 652.084 504.337Z" fill="url(#paint0_linear)"/>
<path d="M625.491 512.108C624.438 512.136 623.416 512.468 622.548 513.064C621.915 513.662 621.486 514.444 621.323 515.3C621.084 516.141 621.032 517.025 621.172 517.888C621.312 518.751 621.639 519.574 622.131 520.297C622.732 521.051 623.519 521.638 624.414 522C627.525 523.347 631.094 522.364 634.34 521.388L647.054 517.563C647.829 517.404 648.544 517.033 649.121 516.492C649.471 516.02 649.665 515.451 649.674 514.864C649.684 514.277 649.509 513.702 649.175 513.219C648.492 512.269 647.56 511.525 646.481 511.071C642.528 509.145 638.07 508.707 633.727 508.626C632.111 508.626 630.515 508.236 629.417 509.482C628.838 510.155 628.946 510.876 628.07 511.448C627.27 511.856 626.389 512.082 625.491 512.108Z" fill="#3F3D56"/>
<path d="M649.512 505.117C648.459 505.148 647.438 505.48 646.569 506.074C645.937 506.673 645.509 507.455 645.343 508.309C645.105 509.152 645.053 510.036 645.193 510.901C645.333 511.765 645.66 512.588 646.151 513.313C646.755 514.064 647.541 514.648 648.434 515.01C651.552 516.357 655.114 515.38 658.36 514.404L671.074 510.572C671.849 510.414 672.565 510.043 673.142 509.501C673.491 509.031 673.684 508.463 673.694 507.877C673.703 507.291 673.529 506.717 673.196 506.235C672.512 505.286 671.58 504.542 670.502 504.087C666.542 502.161 662.084 501.717 657.741 501.636C656.124 501.636 654.535 501.252 653.431 502.498C652.852 503.171 652.959 503.885 652.084 504.457C651.288 504.871 650.408 505.097 649.512 505.117Z" fill="#3F3D56"/>
<path d="M638.461 367.134C645.953 366.382 653.49 366.17 661.013 366.501C661.51 366.496 662.004 366.574 662.475 366.73C664.131 367.404 664.387 369.572 664.542 371.343C665.215 378.535 668.354 385.236 669.929 392.28C670.855 396.707 671.275 401.226 671.182 405.748C671.091 407.768 671.127 409.793 671.29 411.809C671.492 413.607 671.963 415.371 672.219 417.162C672.503 419.569 672.609 421.993 672.535 424.415C672.612 428.212 672.399 432.01 671.896 435.775C670.859 442.193 672.67 448.57 673.155 455.062C673.397 459.602 673.907 464.124 674.684 468.604C675.054 470.497 675.519 472.369 675.775 474.274C676.529 479.938 675.424 485.769 676.616 491.359C677.168 493.972 678.165 496.908 676.697 499.143C676.239 499.817 675.566 500.389 675.067 501.069C674.788 501.387 674.597 501.773 674.514 502.188C674.431 502.603 674.46 503.032 674.596 503.433C674.886 504.046 675.559 504.45 675.727 505.103C675.99 506.134 674.913 506.975 673.943 507.413C666.636 510.713 657.215 508.389 652.286 502.066C653.134 501.931 654.171 501.319 654.192 500.457C654.127 499.6 653.941 498.756 653.639 497.952C653.243 496.499 653.176 494.976 653.444 493.494C653.639 492.457 653.99 491.473 654.205 490.43C654.407 489.285 654.542 488.129 654.609 486.968C654.973 482.797 655.793 478.678 657.054 474.685C658.279 470.813 656.609 466.894 656.171 462.853C655.969 460.941 656.057 458.968 655.39 457.163C654.986 456.099 654.333 455.143 653.936 454.079C653.013 451.594 653.565 448.833 654.124 446.247C650.144 439.062 648.818 430.496 647.316 422.422L644.791 408.819C644.414 406.798 644.003 404.704 642.771 403.074C641.462 409.08 640.948 415.232 641.242 421.371C641.395 423.14 641.372 424.92 641.175 426.684C640.865 428.637 640.05 430.476 639.572 432.388C638.528 436.61 639.141 441.041 638.898 445.385C638.804 447.143 638.582 448.887 638.508 450.644C638.178 458.402 640.791 465.944 643.37 473.264C644.952 477.756 645.303 482.86 646.064 487.561C646.737 492.066 647.484 496.571 647.841 501.117C648.171 505.292 648.319 509.81 650.919 513.09C648.542 514.632 646.09 516.201 643.309 516.733C640.068 517.24 636.752 516.597 633.935 514.915C631.135 513.24 628.632 511.113 626.528 508.618C627.073 508.43 627.269 507.635 627.322 507.063C628.131 498.537 624.891 490.228 623.666 481.743C623.053 477.492 622.945 473.183 623.343 468.907C623.497 467.298 623.72 465.688 623.78 464.072C624.104 455.648 620.043 447.533 620.191 439.102C620.258 435.149 618.171 431.257 617.147 427.438C616.265 424.071 616.238 420.502 616.218 417.001L616.05 389.391C616.05 385.66 616.05 381.835 617.255 378.313C618.736 374.071 617.039 369.202 616.784 364.717C623.781 366.935 631.146 367.756 638.461 367.134Z" fill="#696791"/>
<path d="M614.453 287.809C611.623 282.023 608.166 276.564 604.143 271.533C603.303 270.55 602.538 269.505 601.854 268.408C600.406 265.896 599.975 262.947 599.059 260.199C596.5 252.495 590.116 246.307 588.561 238.34C587.995 235.444 586.15 232.953 584.884 230.259C584.029 228.461 583.086 226.562 581.375 225.545C579.173 224.198 576.13 224.818 574.298 226.623C573.417 227.562 572.763 228.691 572.387 229.923C572.011 231.154 571.923 232.456 572.129 233.727C572.256 234.9 572.724 236.01 573.476 236.919C574.453 238.017 575.914 238.515 577.227 239.175C580.62 240.895 583.217 243.861 584.473 247.451C586.716 253.95 587.005 260.832 589.86 267.108C592.716 273.385 596.069 279.405 598.534 285.823C599.935 289.466 601.053 293.23 603.106 296.597C605.16 299.964 608.366 302.786 612.238 303.291C612.212 300.85 612.582 298.421 613.336 296.099C614.177 293.446 615.672 290.321 614.453 287.809Z" fill="#A0616A"/>
<path d="M656.145 292.844C655.972 288.082 656.715 283.332 658.333 278.85C658.953 277.133 659.68 275.389 659.619 273.564C659.532 271.867 658.724 270.312 657.99 268.776C655.458 263.49 653.68 257.887 651.929 252.298L648.562 241.759C647.464 240.954 646.471 240.015 645.606 238.964C643.811 236.889 642.625 234.358 642.178 231.651C641.963 230.301 642.02 228.922 642.345 227.595C642.67 226.267 643.256 225.018 644.07 223.92C644.429 223.393 644.897 222.948 645.441 222.616C645.986 222.284 646.595 222.072 647.229 221.994C647.788 222.007 648.339 222.132 648.848 222.364C649.357 222.595 649.815 222.928 650.192 223.341C651.302 224.608 652.162 226.075 652.724 227.664C653.821 230.25 654.939 232.944 654.838 235.745C654.744 238.075 653.875 240.675 655.242 242.567C659.714 248.776 663.101 255.907 666.643 262.688C667.547 264.304 668.317 265.991 668.946 267.732C669.811 270.554 670.22 273.496 670.158 276.446C670.158 281.962 669.431 287.457 668.677 292.925C668.199 296.352 667.572 300.083 664.98 302.352C662.286 298.905 659.579 295.538 656.145 292.844Z" fill="#A0616A"/>
<path d="M639.013 295.468C646.731 295.468 652.987 289.212 652.987 281.495C652.987 273.778 646.731 267.521 639.013 267.521C631.296 267.521 625.04 273.778 625.04 281.495C625.04 289.212 631.296 295.468 639.013 295.468Z" fill="#A0616A"/>
<path d="M645.781 296.211C646.118 298.736 647.471 300.999 648.791 303.181C649.586 304.527 650.603 305.962 652.158 306.11C648.11 308.235 643.857 309.945 639.465 311.214C637.972 311.716 636.406 311.969 634.832 311.962C633.497 311.862 632.191 311.527 630.973 310.972C628.31 309.812 625.944 308.063 624.056 305.856C622.167 303.649 620.804 301.042 620.07 298.231C621.81 298.277 623.55 298.144 625.262 297.834C626.24 297.759 627.152 297.31 627.808 296.581C628.198 295.899 628.381 295.117 628.333 294.332C628.4 292.002 628.407 289.665 628.333 287.335C631.767 287.116 635.211 287.541 638.488 288.588C639.835 289.025 641.182 289.551 642.529 289.894C643.377 290.11 645.714 289.894 646.34 290.386C647.37 291.079 645.546 294.494 645.781 296.211Z" fill="#A0616A"/>
<path d="M639.64 304.703C639.793 302.862 640.522 301.116 641.723 299.712C642.925 298.309 644.538 297.32 646.333 296.885C647.775 296.562 649.337 296.602 650.623 295.888C652.832 294.656 653.499 291.652 655.62 290.272C657.741 288.891 660.751 289.659 662.596 291.403C664.442 293.147 665.378 295.632 666.132 298.063C667.258 301.35 667.869 304.792 667.943 308.265C667.971 308.901 667.871 309.535 667.647 310.131C667.248 310.826 666.743 311.455 666.152 311.996C665.362 312.883 664.772 313.93 664.424 315.065C664.075 316.201 663.975 317.398 664.132 318.575C664.323 320.793 664.12 323.028 663.532 325.175C662.186 331.114 660.839 337.047 659.755 343.04C659.5 344.144 659.416 345.279 659.505 346.408C659.714 348.03 660.61 349.566 660.415 351.189C660.224 351.944 660.082 352.711 659.99 353.485C660.034 354.071 660.171 354.646 660.394 355.189C661.923 359.627 666.051 369.795 666.011 374.496C658.839 372.657 648.266 372.246 640.859 372.213C638.822 372.191 636.785 372.281 634.757 372.482C629.889 373.007 624.905 374.428 620.185 373.115C615.801 371.896 611.922 368.401 607.39 368.839C606.407 366.266 607.565 357.68 608.488 355.081C612.084 344.846 612.783 333.816 610.508 323.208C609.68 319.397 610.818 315.35 609.895 311.565C609.726 310.67 609.383 309.816 608.885 309.053C608.634 308.674 608.291 308.365 607.888 308.154C607.486 307.944 607.036 307.838 606.582 307.848C606.498 301.76 607.062 295.681 608.265 289.713C608.71 287.592 609.612 285.087 611.787 284.723C613.713 284.393 615.33 286.023 616.878 287.215C618.466 288.444 620.306 289.308 622.266 289.747C623.055 289.841 623.811 290.117 624.474 290.555C625.397 291.322 625.532 292.703 626.286 293.639C627.633 295.316 630.643 295.174 631.599 297.107C631.808 297.683 631.977 298.272 632.104 298.871C632.557 300.02 633.328 301.015 634.327 301.74C635.827 303.15 637.652 304.168 639.64 304.703Z" fill="#00A3FF"/>
<path d="M627.66 266.643C627.417 265.72 627.458 264.622 628.198 264.003C628.569 263.713 629.054 263.606 629.451 263.329C630.011 262.859 630.469 262.279 630.798 261.626C631.803 260.219 633.273 259.215 634.948 258.789C636.624 258.364 638.395 258.546 639.949 259.302C642.38 260.575 643.848 263.121 646.01 264.838C647.108 265.727 648.381 266.387 649.485 267.276C651.697 269.186 653.269 271.729 653.99 274.562C654.706 277.375 655.123 280.255 655.236 283.155C655.351 284.025 655.317 284.909 655.135 285.768C654.911 286.488 654.577 287.169 654.145 287.788C651.923 291.155 648.993 294.212 645.323 295.95C641.653 297.687 637.188 297.97 633.565 296.152C633.201 296.004 632.887 295.754 632.663 295.431C632.457 294.939 632.408 294.396 632.522 293.875C632.718 291.817 632.311 289.746 631.35 287.916C630.677 286.569 629.666 285.411 629.128 284.017C628.627 282.456 628.412 280.818 628.495 279.182C628.434 274.946 628.724 270.724 627.66 266.643Z" fill="#2D293D"/>
<defs>
<linearGradient id="paint0_linear" x1="677.465" y1="371.331" x2="572.042" y2="371.331" gradientUnits="userSpaceOnUse">
<stop stop-color="#808080" stop-opacity="0.25"/>
<stop offset="0.54" stop-color="#808080" stop-opacity="0.12"/>
<stop offset="1" stop-color="#808080" stop-opacity="0.1"/>
</linearGradient>
</defs>
</svg>
