<svg width="375" height="264" viewBox="0 0 375 264" fill="none" xmlns="http://www.w3.org/2000/svg">
<path opacity="0.1" d="M324.921 264C336.822 264 346.47 261.439 346.47 258.279C346.47 255.12 336.822 252.559 324.921 252.559C313.019 252.559 303.371 255.12 303.371 258.279C303.371 261.439 313.019 264 324.921 264Z" fill="#6C63FF"/>
<path opacity="0.1" d="M360.46 233.857C352.261 240.659 340.594 243.474 329.311 245.251L327.412 245.541C315.628 247.299 303.712 248.235 291.755 248.804C285.358 249.113 278.96 249.332 272.563 249.528L267.549 249.676C261.04 249.869 254.518 250.058 247.983 250.245C241.586 250.427 235.188 250.597 228.791 250.757C220.598 250.956 212.405 251.122 204.212 251.255C197.814 251.356 191.417 251.425 185.019 251.464C176.824 251.511 168.631 251.495 160.44 251.417C154.038 251.351 147.64 251.239 141.247 251.08C133.05 250.869 124.857 250.56 116.668 250.154C111.11 249.882 105.555 249.556 100.004 249.174L97.4756 248.996C73.6468 247.278 49.3905 244.197 28.5383 234.46L27.976 234.194C27.6965 234.063 27.417 233.931 27.1376 233.793C23.309 231.963 19.6416 229.813 16.1744 227.366C10.0093 222.968 4.91833 217.601 2.22804 211.234C-1.98752 201.247 0.241474 190.021 5.05638 180.257C9.87128 170.492 17.1004 161.677 23.353 152.482C25.1847 149.788 26.9221 146.994 28.5383 144.128C38.6395 126.158 43.6497 105.363 33.0602 88.0465C31.6625 85.8387 30.1532 83.7034 28.5383 81.6491C25.9557 78.282 23.3294 74.915 21.555 71.1876C17.4169 62.5141 18.3058 52.7597 19.8142 43.4935C21.8345 31.1734 25.5382 17.9038 37.1142 10.2067C49.1245 2.2133 66.172 2.61735 81.078 5.49282C104.253 9.93398 125.644 19.2304 147.237 27.6144C168.83 35.9984 191.45 43.6652 215.191 44.4902C220.291 44.6647 225.397 44.479 230.471 43.9346C237.235 43.2395 243.907 41.8344 250.377 39.7426C259.721 36.6651 268.223 32.0354 274.526 25.6009C288.045 11.8465 313.449 10.8061 331.766 19.1126C349.244 27.0387 360.548 43.8134 359.713 60.5679C358.763 79.2181 344.797 94.5517 331.998 110.279C330.446 112.185 328.914 114.097 327.422 116.023C326.59 117.099 325.773 118.176 324.971 119.256C323.567 121.162 322.21 123.077 320.931 125.017C314.392 134.96 309.769 146.903 314.271 157.637C316.796 163.647 321.614 168.233 327.422 172.237C340.436 181.203 358.399 187.237 366.48 199.789C373.444 210.608 370.864 225.211 360.46 233.857Z" fill="#00A3FF"/>
<g opacity="0.1">
<path opacity="0.1" d="M187.04 184.855C187.053 185.172 187.077 185.482 187.11 185.785C189.73 184.741 192.301 183.619 194.824 182.418C196.171 182.239 197.422 181.627 198.39 180.673C199.127 180.303 199.861 179.916 200.589 179.529C200.424 179.18 200.237 178.843 200.03 178.519C198.612 176.279 196.457 174.879 194.083 174.956C191.71 175.034 189.656 176.572 188.386 178.892C187.412 180.724 186.947 182.783 187.04 184.855Z" fill="#3F3D56"/>
<path opacity="0.1" d="M186.652 173.08C186.703 175.143 187.302 177.156 188.386 178.911C189.807 181.144 191.962 182.544 194.336 182.467C194.501 182.467 194.673 182.443 194.824 182.43C196.171 182.251 197.422 181.639 198.39 180.686C199.047 180.061 199.6 179.336 200.03 178.538C200.98 176.705 201.443 174.659 201.376 172.595C201.309 170.532 200.713 168.52 199.646 166.753C198.225 164.514 196.07 163.113 193.696 163.191C191.322 163.268 189.272 164.807 188.003 167.127C187.029 168.955 186.563 171.01 186.652 173.08Z" fill="#3F3D56"/>
<path opacity="0.1" d="M193.948 170.692C198.012 170.558 201.166 166.137 200.991 160.816C200.817 155.495 197.38 151.289 193.315 151.422C189.25 151.556 186.097 155.978 186.272 161.299C186.446 166.62 189.883 170.825 193.948 170.692Z" fill="#3F3D56"/>
<path opacity="0.1" d="M193.562 158.922C197.626 158.789 200.78 154.367 200.605 149.046C200.431 143.725 196.994 139.52 192.929 139.653C188.864 139.786 185.711 144.208 185.886 149.529C186.06 154.85 189.497 159.056 193.562 158.922Z" fill="#3F3D56"/>
<path opacity="0.1" d="M193.175 147.145C197.24 147.012 200.394 142.59 200.219 137.269C200.044 131.948 196.608 127.742 192.543 127.876C188.478 128.009 185.325 132.431 185.499 137.752C185.674 143.073 189.111 147.278 193.175 147.145Z" fill="#3F3D56"/>
<path opacity="0.1" d="M217.777 56.0362C218.741 54.7235 219.611 53.3453 220.383 51.9115L200.942 49.3728L221.858 48.8408C223.721 44.4111 224.66 39.6478 224.619 34.8425C224.577 30.0371 223.555 25.2909 221.616 20.8942L194.036 36.3658L219.289 16.5001C216.718 12.41 213.334 8.89171 209.347 6.16332C205.361 3.43494 200.856 1.55469 196.112 0.639149C191.369 -0.276387 186.488 -0.207681 181.772 0.841007C177.056 1.88969 172.606 3.896 168.698 6.73552C164.789 9.57504 161.506 13.1872 159.051 17.3481C156.596 21.5089 155.022 26.1297 154.427 30.9239C153.832 35.7181 154.228 40.5835 155.59 45.2183C156.953 49.8532 159.253 54.1587 162.349 57.8679C160.848 59.9116 159.571 62.1105 158.54 64.4269L184.066 76.6426L157.008 68.5415C155.312 74.158 155.042 80.1089 156.225 85.8557C157.407 91.6025 160.004 96.9639 163.78 101.455C159.862 106.789 157.525 113.118 157.035 119.718C156.546 126.319 157.923 132.923 161.01 138.778C164.097 144.632 168.769 149.499 174.492 152.824C180.215 156.148 186.758 157.794 193.373 157.575C199.987 157.356 206.407 155.28 211.898 151.585C217.388 147.889 221.728 142.723 224.421 136.678C227.114 130.632 228.051 123.95 227.126 117.397C226.2 110.844 223.45 104.683 219.188 99.6195C223.872 93.248 226.279 85.4875 226.023 77.5837C225.767 69.68 222.863 62.0915 217.777 56.0362Z" fill="#6C63FF"/>
<path opacity="0.1" d="M155.52 79.8954C155.766 87.804 158.677 95.3976 163.78 101.445C159.861 106.778 157.523 113.107 157.032 119.707C156.541 126.307 157.917 132.913 161.003 138.767C164.089 144.622 168.76 149.491 174.483 152.816C180.205 156.141 186.748 157.789 193.362 157.571C199.977 157.353 206.397 155.278 211.888 151.584C217.38 147.889 221.72 142.724 224.414 136.679C227.108 130.634 228.047 123.952 227.123 117.399C226.198 110.845 223.449 104.684 219.188 99.6197C223.717 93.4714 155.392 75.9391 155.52 79.8954Z" fill="black"/>
</g>
<g opacity="0.1">
<path opacity="0.1" d="M109.826 246.879C109.826 247.102 109.802 247.324 109.775 247.553C107.912 246.812 106.082 246.019 104.284 245.172C103.326 245.047 102.434 244.613 101.745 243.937C101.22 243.67 100.698 243.398 100.179 243.122C100.296 242.876 100.429 242.637 100.577 242.408C101.587 240.812 103.115 239.815 104.806 239.869C106.496 239.923 107.957 241.014 108.846 242.664C109.542 243.957 109.88 245.412 109.826 246.879Z" fill="#3F3D56"/>
<path opacity="0.1" d="M110.089 238.498C110.056 239.967 109.633 241.399 108.863 242.65C107.853 244.239 106.321 245.239 104.634 245.185L104.297 245.158C103.339 245.033 102.448 244.599 101.759 243.923C101.29 243.479 100.896 242.963 100.59 242.394C99.9149 241.091 99.5845 239.637 99.6304 238.17C99.6764 236.703 100.097 235.272 100.853 234.014C101.863 232.418 103.395 231.421 105.082 231.475C106.769 231.529 108.233 232.62 109.139 234.269C109.827 235.569 110.155 237.029 110.089 238.498Z" fill="#3F3D56"/>
<path opacity="0.1" d="M110.361 230.134C110.48 226.348 108.233 223.205 105.341 223.113C102.449 223.022 100.007 226.017 99.8875 229.803C99.7679 233.589 102.015 236.732 104.907 236.824C107.799 236.915 110.241 233.92 110.361 230.134Z" fill="#3F3D56"/>
<path opacity="0.1" d="M110.622 221.753C110.742 217.967 108.494 214.824 105.602 214.732C102.71 214.641 100.269 217.636 100.149 221.422C100.03 225.208 102.277 228.351 105.169 228.443C108.061 228.534 110.503 225.539 110.622 221.753Z" fill="#3F3D56"/>
<path opacity="0.1" d="M110.887 213.37C111.007 209.584 108.759 206.441 105.867 206.349C102.975 206.258 100.534 209.253 100.414 213.039C100.294 216.825 102.542 219.969 105.434 220.06C108.326 220.151 110.767 217.156 110.887 213.37Z" fill="#3F3D56"/>
<path opacity="0.1" d="M87.8496 155.233C87.1631 154.299 86.5409 153.319 85.9876 152.3L99.8195 150.462L84.9337 150.125C83.6033 146.974 82.9303 143.584 82.9557 140.163C82.9812 136.743 83.7047 133.364 85.0819 130.232L104.722 141.219L86.7351 127.094C88.5553 124.17 90.958 121.652 93.7935 119.697C96.629 117.741 99.8366 116.39 103.217 115.728C106.597 115.066 110.077 115.106 113.441 115.847C116.805 116.588 119.98 118.014 122.769 120.035C125.558 122.056 127.901 124.629 129.653 127.595C131.404 130.561 132.527 133.855 132.95 137.274C133.373 140.692 133.088 144.161 132.113 147.464C131.138 150.768 129.493 153.835 127.281 156.475C128.352 157.928 129.263 159.493 129.999 161.142L111.843 169.856L131.093 164.065C132.304 168.061 132.501 172.297 131.665 176.388C130.829 180.48 128.987 184.298 126.305 187.499C129.098 191.292 130.768 195.793 131.124 200.49C131.479 205.186 130.506 209.888 128.316 214.058C126.125 218.227 122.805 221.696 118.736 224.068C114.667 226.44 110.013 227.619 105.305 227.47C100.597 227.322 96.0264 225.851 92.1151 223.227C88.2037 220.603 85.1096 216.932 83.1866 212.632C81.2635 208.333 80.5891 203.579 81.2404 198.914C81.8918 194.249 83.8425 189.862 86.8698 186.254C83.5317 181.722 81.8136 176.201 81.9913 170.575C82.169 164.95 84.2322 159.548 87.8496 155.236V155.233Z" fill="#6C63FF"/>
<path opacity="0.1" d="M132.16 172.156C131.991 177.784 129.928 183.19 126.304 187.5C129.098 191.292 130.768 195.794 131.123 200.491C131.479 205.187 130.506 209.889 128.315 214.058C126.125 218.228 122.805 221.697 118.736 224.069C114.667 226.441 110.012 227.62 105.304 227.471C100.597 227.322 96.026 225.852 92.1146 223.228C88.2032 220.604 85.1091 216.932 83.1861 212.633C81.263 208.333 80.5886 203.579 81.2399 198.915C81.8913 194.25 83.8421 189.863 86.8693 186.254C83.6403 181.877 132.254 169.338 132.16 172.156Z" fill="black"/>
</g>
<g opacity="0.1">
<path opacity="0.1" d="M285.173 203.09C285.173 203.316 285.149 203.535 285.126 203.764C283.26 203.023 281.43 202.23 279.634 201.383C278.675 201.258 277.783 200.824 277.092 200.148C276.57 199.882 276.045 199.609 275.526 199.333C275.644 199.087 275.777 198.849 275.923 198.619C276.934 197.023 278.462 196.026 280.152 196.08C281.843 196.134 283.304 197.225 284.193 198.875C284.889 200.168 285.227 201.623 285.173 203.09Z" fill="#3F3D56"/>
<path opacity="0.1" d="M285.456 194.709C285.421 196.178 284.997 197.611 284.227 198.861C283.216 200.45 281.688 201.45 279.998 201.396L279.661 201.369C278.702 201.244 277.81 200.81 277.119 200.134C276.652 199.688 276.257 199.173 275.95 198.605C275.275 197.302 274.945 195.848 274.991 194.381C275.037 192.914 275.457 191.483 276.213 190.224C277.223 188.632 278.755 187.632 280.442 187.686C282.129 187.74 283.597 188.83 284.499 190.48C285.189 191.78 285.52 193.24 285.456 194.709Z" fill="#3F3D56"/>
<path opacity="0.1" d="M285.719 186.341C285.838 182.555 283.591 179.412 280.699 179.32C277.807 179.229 275.365 182.224 275.246 186.01C275.126 189.796 277.374 192.939 280.266 193.031C283.158 193.122 285.599 190.127 285.719 186.341Z" fill="#3F3D56"/>
<path opacity="0.1" d="M285.984 177.962C286.103 174.176 283.856 171.033 280.964 170.941C278.072 170.85 275.63 173.845 275.511 177.631C275.391 181.417 277.638 184.56 280.53 184.652C283.423 184.743 285.864 181.748 285.984 177.962Z" fill="#3F3D56"/>
<path opacity="0.1" d="M286.249 169.583C286.368 165.797 284.121 162.654 281.229 162.562C278.337 162.471 275.895 165.466 275.776 169.252C275.656 173.038 277.904 176.182 280.796 176.273C283.688 176.364 286.129 173.369 286.249 169.583Z" fill="#3F3D56"/>
<path opacity="0.1" d="M263.196 111.444C262.508 110.512 261.887 109.532 261.337 108.512L275.169 106.69L260.283 106.33C258.953 103.179 258.28 99.789 258.305 96.3687C258.33 92.9483 259.052 89.569 260.428 86.4373L280.068 97.424L262.081 83.3059C263.898 80.3746 266.3 77.8492 269.136 75.8872C271.973 73.9252 275.183 72.5688 278.567 71.9025C281.951 71.2363 285.435 71.2745 288.804 72.0148C292.172 72.755 295.352 74.1815 298.145 76.2052C300.937 78.2289 303.283 80.8063 305.036 83.7767C306.788 86.7472 307.909 90.0469 308.33 93.47C308.751 96.893 308.461 100.366 307.48 103.672C306.499 106.979 304.847 110.047 302.627 112.687C303.697 114.14 304.607 115.705 305.341 117.354L287.186 126.068L306.435 120.276C307.649 124.272 307.846 128.507 307.01 132.599C306.174 136.69 304.331 140.508 301.647 143.708C304.441 147.499 306.112 152 306.468 156.697C306.824 161.393 305.851 166.094 303.661 170.264C301.471 174.433 298.152 177.902 294.083 180.274C290.014 182.646 285.36 183.825 280.652 183.676C275.945 183.527 271.374 182.057 267.463 179.433C263.552 176.809 260.459 173.137 258.536 168.838C256.614 164.539 255.94 159.785 256.592 155.121C257.244 150.456 259.195 146.069 262.222 142.462C258.884 137.931 257.166 132.409 257.344 126.784C257.522 121.158 259.585 115.756 263.202 111.444H263.196Z" fill="#6C63FF"/>
<path opacity="0.1" d="M307.51 128.368C307.341 133.996 305.277 139.401 301.651 143.708C304.444 147.5 306.114 152.001 306.47 156.697C306.826 161.393 305.853 166.095 303.663 170.264C301.472 174.433 298.153 177.902 294.084 180.273C290.016 182.645 285.362 183.824 280.655 183.675C275.947 183.526 271.377 182.056 267.466 179.432C263.555 176.808 260.462 173.137 258.539 168.838C256.616 164.539 255.942 159.785 256.594 155.121C257.245 150.457 259.196 146.07 262.223 142.463C258.99 138.089 307.597 125.546 307.51 128.368Z" fill="black"/>
</g>
<path d="M65.1517 256.404C75.7531 256.404 84.3473 254.752 84.3473 252.714C84.3473 250.676 75.7531 249.023 65.1517 249.023C54.5502 249.023 45.9561 250.676 45.9561 252.714C45.9561 254.752 54.5502 256.404 65.1517 256.404Z" fill="#00A3FF"/>
<path d="M64.8319 254.071C66.0667 254.071 67.0677 252.761 67.0677 251.145C67.0677 249.529 66.0667 248.219 64.8319 248.219C63.5972 248.219 62.5962 249.529 62.5962 251.145C62.5962 252.761 63.5972 254.071 64.8319 254.071Z" fill="#3F3D56"/>
<path d="M64.8319 250.495C66.0667 250.495 67.0677 249.185 67.0677 247.569C67.0677 245.953 66.0667 244.643 64.8319 244.643C63.5972 244.643 62.5962 245.953 62.5962 247.569C62.5962 249.185 63.5972 250.495 64.8319 250.495Z" fill="#3F3D56"/>
<path d="M64.8319 246.918C66.0667 246.918 67.0677 245.608 67.0677 243.992C67.0677 242.376 66.0667 241.066 64.8319 241.066C63.5972 241.066 62.5962 242.376 62.5962 243.992C62.5962 245.608 63.5972 246.918 64.8319 246.918Z" fill="#3F3D56"/>
<path d="M64.8319 243.344C66.0667 243.344 67.0677 242.034 67.0677 240.418C67.0677 238.802 66.0667 237.492 64.8319 237.492C63.5972 237.492 62.5962 238.802 62.5962 240.418C62.5962 242.034 63.5972 243.344 64.8319 243.344Z" fill="#3F3D56"/>
<path d="M64.8319 239.766C66.0667 239.766 67.0677 238.456 67.0677 236.84C67.0677 235.224 66.0667 233.914 64.8319 233.914C63.5972 233.914 62.5962 235.224 62.5962 236.84C62.5962 238.456 63.5972 239.766 64.8319 239.766Z" fill="#3F3D56"/>
<path d="M64.8319 236.192C66.0667 236.192 67.0677 234.882 67.0677 233.266C67.0677 231.65 66.0667 230.34 64.8319 230.34C63.5972 230.34 62.5962 231.65 62.5962 233.266C62.5962 234.882 63.5972 236.192 64.8319 236.192Z" fill="#3F3D56"/>
<path d="M64.8319 232.616C66.0667 232.616 67.0677 231.306 67.0677 229.69C67.0677 228.074 66.0667 226.764 64.8319 226.764C63.5972 226.764 62.5962 228.074 62.5962 229.69C62.5962 231.306 63.5972 232.616 64.8319 232.616Z" fill="#3F3D56"/>
<path d="M73.1987 205.216C73.5034 204.827 73.7813 204.418 74.0304 203.991L68.1582 203.025L74.5085 203.075C75.1175 201.749 75.4498 200.313 75.4851 198.854C75.5205 197.395 75.258 195.944 74.7139 194.59L66.1919 199.011L74.0506 193.223C73.3137 191.952 72.3231 190.846 71.1403 189.974C69.9575 189.102 68.6079 188.482 67.1754 188.155C65.743 187.827 64.2584 187.797 62.8141 188.068C61.3698 188.339 59.9967 188.904 58.7802 189.728C57.5637 190.553 56.5299 191.618 55.7432 192.86C54.9565 194.101 54.4337 195.491 54.2073 196.942C53.9809 198.394 54.0558 199.877 54.4273 201.299C54.7988 202.721 55.459 204.051 56.3668 205.206C55.8919 205.812 55.4833 206.467 55.1479 207.159L62.7709 211.119L54.6428 208.392C54.0718 210.079 53.9305 211.882 54.2315 213.637C54.5325 215.392 55.2664 217.045 56.3668 218.446C55.1251 220.025 54.3528 221.922 54.1384 223.92C53.9239 225.918 54.2757 227.935 55.1538 229.742C56.0318 231.549 57.4006 233.073 59.1036 234.139C60.8067 235.205 62.7753 235.77 64.7844 235.77C66.7936 235.77 68.7622 235.205 70.4652 234.139C72.1682 233.073 73.537 231.549 74.4151 229.742C75.2931 227.935 75.645 225.918 75.4305 223.92C75.216 221.922 74.4438 220.025 73.2021 218.446C74.6854 216.558 75.4917 214.227 75.4917 211.826C75.4917 209.425 74.6854 207.094 73.2021 205.206L73.1987 205.216Z" fill="#00A3FF"/>
<path opacity="0.1" d="M54.0772 211.838C54.0732 214.239 54.88 216.571 56.3668 218.457C55.1251 220.037 54.3529 221.934 54.1384 223.931C53.9239 225.929 54.2757 227.947 55.1538 229.754C56.0318 231.561 57.4006 233.085 59.1036 234.15C60.8067 235.216 62.7753 235.782 64.7844 235.782C66.7936 235.782 68.7622 235.216 70.4652 234.15C72.1683 233.085 73.537 231.561 74.4151 229.754C75.2931 227.947 75.645 225.929 75.4305 223.931C75.216 221.934 74.4438 220.037 73.2021 218.457C74.6331 216.636 54.0772 210.635 54.0772 211.838Z" fill="black"/>
<path d="M116.668 174.032V250.128C111.11 249.856 105.555 249.53 100.004 249.148L97.4753 248.97V174.032C97.4753 173.642 97.5522 173.256 97.7014 172.896C97.8506 172.535 98.0694 172.208 98.3452 171.932C98.6209 171.657 98.9483 171.438 99.3086 171.289C99.6689 171.139 100.055 171.063 100.445 171.062H113.698C114.088 171.062 114.474 171.139 114.834 171.289C115.195 171.438 115.522 171.657 115.798 171.932C116.074 172.208 116.292 172.535 116.442 172.896C116.591 173.256 116.668 173.642 116.668 174.032Z" fill="#3F3D56"/>
<path d="M141.247 251.073V123.189C141.247 122.401 141.56 121.646 142.117 121.089C142.674 120.532 143.429 120.219 144.217 120.219H157.47C157.86 120.219 158.246 120.296 158.606 120.445C158.966 120.594 159.294 120.813 159.57 121.089C159.845 121.364 160.064 121.692 160.213 122.052C160.363 122.412 160.439 122.799 160.439 123.189V251.406L141.247 251.073Z" fill="#3F3D56"/>
<path d="M185.019 251.475V149.79C185.019 149.002 185.332 148.247 185.889 147.69C186.446 147.133 187.201 146.82 187.989 146.82H201.242C202.029 146.82 202.785 147.133 203.341 147.69C203.898 148.247 204.211 149.002 204.211 149.79V251.257L185.019 251.475Z" fill="#3F3D56"/>
<path d="M247.983 74.3682V250.247C241.586 250.429 235.188 250.599 228.791 250.759V74.3682C228.791 73.5806 229.104 72.8252 229.661 72.2683C230.218 71.7113 230.973 71.3984 231.761 71.3984H245.014C245.801 71.3984 246.557 71.7113 247.113 72.2683C247.67 72.8252 247.983 73.5806 247.983 74.3682Z" fill="#3F3D56"/>
<path d="M291.755 109.722V248.781C285.358 249.091 278.96 249.31 272.563 249.505V109.722C272.563 108.934 272.876 108.179 273.433 107.622C273.99 107.065 274.745 106.752 275.533 106.752H288.786C289.573 106.752 290.329 107.065 290.885 107.622C291.442 108.179 291.755 108.934 291.755 109.722Z" fill="#3F3D56"/>
<path d="M107.24 129.653L151.012 80.831L194.784 105.411L238.556 29.9883L282.328 66.0159" stroke="#3F3D56" stroke-width="2.35695" stroke-miterlimit="10" stroke-linecap="round"/>
<path d="M107.072 139.082C112.279 139.082 116.5 134.861 116.5 129.654C116.5 124.448 112.279 120.227 107.072 120.227C101.865 120.227 97.644 124.448 97.644 129.654C97.644 134.861 101.865 139.082 107.072 139.082Z" fill="#00A3FF"/>
<path d="M150.844 90.2599C156.05 90.2599 160.271 86.0389 160.271 80.8321C160.271 75.6253 156.05 71.4043 150.844 71.4043C145.637 71.4043 141.416 75.6253 141.416 80.8321C141.416 86.0389 145.637 90.2599 150.844 90.2599Z" fill="#00A3FF"/>
<path d="M194.615 114.84C199.822 114.84 204.043 110.619 204.043 105.412C204.043 100.205 199.822 95.9844 194.615 95.9844C189.408 95.9844 185.188 100.205 185.188 105.412C185.188 110.619 189.408 114.84 194.615 114.84Z" fill="#00A3FF"/>
<path d="M238.387 39.4181C243.594 39.4181 247.815 35.1971 247.815 29.9903C247.815 24.7835 243.594 20.5625 238.387 20.5625C233.18 20.5625 228.959 24.7835 228.959 29.9903C228.959 35.1971 233.18 39.4181 238.387 39.4181Z" fill="#00A3FF"/>
<path d="M322.564 119.553C327.77 119.553 331.991 115.332 331.991 110.125C331.991 104.918 327.77 100.697 322.564 100.697C317.357 100.697 313.136 104.918 313.136 110.125C313.136 115.332 317.357 119.553 322.564 119.553Z" fill="#00A3FF"/>
<path opacity="0.1" d="M78.6808 244.255C82.1545 244.255 84.9705 243.779 84.9705 243.191C84.9705 242.603 82.1545 242.127 78.6808 242.127C75.2071 242.127 72.3911 242.603 72.3911 243.191C72.3911 243.779 75.2071 244.255 78.6808 244.255Z" fill="#6C63FF"/>
<path d="M74.4585 238.251C74.4585 238.251 78.0444 238.139 79.1252 237.368C80.2061 236.597 84.6439 235.685 84.9132 236.914C85.1826 238.143 90.3005 243.055 86.2601 243.089C82.2196 243.123 76.8491 242.456 75.7716 241.799C74.6942 241.143 74.4585 238.251 74.4585 238.251Z" fill="#A8A8A8"/>
<path opacity="0.2" d="M86.324 242.661C82.2836 242.695 76.9165 242.031 75.8356 241.375C75.0141 240.873 74.6875 239.078 74.5763 238.25H74.4585C74.4585 238.25 74.6841 241.142 75.7649 241.799C76.8457 242.455 82.2027 243.122 86.2533 243.088C87.4217 243.088 87.8257 242.664 87.8022 242.048C87.6406 242.422 87.1961 242.654 86.324 242.661Z" fill="black"/>
<path opacity="0.1" d="M358.188 254.168C364.568 254.168 369.74 253.293 369.74 252.215C369.74 251.136 364.568 250.262 358.188 250.262C351.807 250.262 346.635 251.136 346.635 252.215C346.635 253.293 351.807 254.168 358.188 254.168Z" fill="#6C63FF"/>
<path d="M350.44 243.141C350.44 243.141 357.029 242.939 359.016 241.525C361.002 240.111 369.151 238.424 369.642 240.69C370.134 242.956 379.548 251.97 372.107 252.03C364.666 252.091 354.82 250.872 352.837 249.673C350.854 248.475 350.44 243.141 350.44 243.141Z" fill="#A8A8A8"/>
<path opacity="0.2" d="M372.231 251.241C364.79 251.302 354.944 250.083 352.961 248.884C351.453 247.965 350.85 244.665 350.648 243.16H350.429C350.429 243.16 350.847 248.477 352.827 249.682C354.806 250.888 364.658 252.11 372.096 252.039C374.244 252.039 374.985 251.258 374.945 250.127C374.645 250.8 373.827 251.228 372.231 251.241Z" fill="black"/>
<path d="M286.065 115.906C286.127 116.496 286.361 117.054 286.738 117.512C287.226 118.064 287.957 118.317 288.614 118.647C290.313 119.516 291.611 121.008 292.237 122.812C293.358 126.084 293.503 129.546 294.93 132.704C296.358 135.862 298.035 138.896 299.267 142.132C299.967 143.967 300.526 145.876 301.553 147.546C302.051 148.367 302.685 149.098 303.429 149.704C303.351 150.89 303.321 152.061 303.328 153.247C303.555 153.242 303.78 153.295 303.982 153.401C304.183 153.507 304.354 153.663 304.479 153.853C304.728 154.237 304.9 154.665 304.984 155.115C305.446 157.024 304.877 159.058 305.291 160.977C306.429 166.316 306.079 171.864 304.281 177.018C303.819 178.324 303.24 182.648 303.732 183.944C305.564 183.759 307.186 184.884 308.9 185.628C309.039 186.643 308.956 187.677 308.658 188.658C308.042 190.432 308.045 192.362 308.055 194.237L308.139 208.13C308.139 209.891 308.163 211.675 308.604 213.382C309.106 215.305 310.16 217.265 310.126 219.251C310.035 223.527 312.055 227.601 311.894 231.844C311.863 232.659 311.752 233.467 311.675 234.275C311.476 236.428 311.53 238.596 311.836 240.736C312.449 244.999 314.069 249.191 313.665 253.477C313.638 253.767 313.54 254.151 313.267 254.262C313.604 254.642 313.961 255.019 314.325 255.38C314.251 255.502 314.151 255.607 314.032 255.686C313.634 255.894 313.194 256.009 312.745 256.023C312.219 256.037 311.708 256.203 311.274 256.501C310.959 256.804 310.745 257.196 310.661 257.626C310.541 258.05 310.516 258.494 310.585 258.929C310.655 259.364 310.819 259.779 311.065 260.144C311.366 260.523 311.759 260.817 312.207 260.999C313.762 261.673 315.547 261.185 317.17 260.693L323.527 258.767C323.915 258.686 324.272 258.5 324.56 258.228C324.692 258.073 324.78 257.884 324.813 257.683C326.217 258.02 327.759 257.605 329.19 257.178L335.547 255.248C335.936 255.169 336.294 254.983 336.581 254.71C336.695 254.571 336.778 254.408 336.823 254.233C336.867 254.059 336.873 253.877 336.84 253.7C336.887 253.679 336.934 253.666 336.982 253.642C337.466 253.423 337.992 252.996 337.874 252.481C337.79 252.144 337.453 251.949 337.308 251.639C337.24 251.438 337.226 251.222 337.267 251.013C337.309 250.805 337.404 250.611 337.544 250.45C337.793 250.114 338.13 249.834 338.359 249.481C339.093 248.356 338.594 246.878 338.318 245.561C337.722 242.75 338.275 239.814 337.897 236.965C337.769 236.006 337.537 235.063 337.352 234.11C336.96 231.858 336.7 229.584 336.574 227.302C336.332 224.042 335.426 220.83 335.945 217.598C336.196 215.701 336.303 213.787 336.264 211.874C336.301 210.655 336.248 209.435 336.106 208.224C335.975 207.322 335.743 206.436 335.642 205.53C335.56 204.512 335.542 203.49 335.588 202.47C335.634 200.195 335.424 197.923 334.961 195.695C334.288 192.635 333.022 189.705 332.483 186.638C332.665 186.678 332.847 186.719 333.022 186.766C333.042 184.409 330.978 179.284 330.214 177.048C330.102 176.775 330.034 176.485 330.012 176.19C330.058 175.801 330.129 175.415 330.224 175.035C330.322 174.22 329.887 173.446 329.769 172.631C329.723 172.058 329.765 171.481 329.894 170.92C330.436 167.907 331.109 164.917 331.783 161.93C332.076 160.849 332.178 159.724 332.082 158.607C332.004 158.015 332.054 157.413 332.228 156.842C332.402 156.271 332.697 155.744 333.093 155.297C333.388 155.024 333.641 154.707 333.84 154.358C333.952 154.058 334.002 153.738 333.988 153.418C333.975 152.033 333.771 150.657 333.382 149.327C333.975 148.253 334.194 146.933 334.365 145.688C334.742 142.937 335.12 140.172 335.106 137.394C335.136 135.913 334.932 134.435 334.5 133.017C334.185 132.142 333.8 131.293 333.349 130.478C331.577 127.068 329.884 123.478 327.648 120.354C326.975 119.404 327.399 118.094 327.446 116.923C327.497 115.509 326.938 114.152 326.389 112.852C326.109 112.052 325.679 111.313 325.123 110.673C324.935 110.466 324.706 110.3 324.451 110.184C324.197 110.068 323.921 110.006 323.641 110C323.324 110.039 323.019 110.145 322.747 110.312C322.474 110.478 322.241 110.702 322.062 110.966C321.655 111.521 321.362 112.151 321.199 112.82C321.037 113.488 321.009 114.182 321.116 114.862C321.34 116.223 321.932 117.495 322.83 118.542C323.263 119.069 323.76 119.54 324.308 119.946C324.865 121.715 325.426 123.483 325.991 125.249C326.88 128.061 327.769 130.886 329.022 133.546C329.389 134.317 329.793 135.101 329.837 135.953C329.884 136.873 329.5 137.748 329.194 138.613C328.548 140.417 328.182 142.309 328.109 144.223C328.011 144.266 327.916 144.318 327.827 144.378C326.766 145.071 326.433 146.583 325.328 147.203C324.685 147.563 323.904 147.539 323.183 147.704C323.119 147.704 323.055 147.738 322.988 147.758C322.961 147.624 322.934 147.492 322.917 147.354C322.907 147.268 322.907 147.181 322.917 147.095C324.634 146.151 326.076 144.777 327.103 143.108C327.319 142.799 327.486 142.459 327.598 142.098C327.688 141.667 327.706 141.223 327.648 140.785C327.592 139.325 327.383 137.875 327.025 136.458C326.666 135.035 325.88 133.755 324.773 132.792C324.22 132.347 323.584 132.014 323.035 131.566C321.964 130.701 321.23 129.421 320.005 128.778C319.225 128.398 318.335 128.309 317.495 128.526C316.655 128.743 315.92 129.253 315.422 129.963C315.259 130.292 315.03 130.583 314.749 130.819C314.534 130.92 314.325 131.032 314.123 131.155C313.752 131.452 313.732 132.021 313.853 132.482C314.083 133.43 314.212 134.399 314.237 135.374C313.15 136.649 312.552 138.269 312.548 139.945C312.544 141.62 313.136 143.242 314.217 144.523C314.217 145.149 314.217 145.775 314.193 146.401C314.193 146.519 314.193 146.64 314.17 146.758C313.781 146.623 313.434 146.391 313.16 146.085C312.783 145.613 312.715 144.92 312.254 144.533C311.922 144.314 311.544 144.176 311.149 144.129C310.169 143.906 309.249 143.47 308.456 142.852C307.833 142.371 307.186 141.755 306.459 141.613C305.204 139.259 303.739 137.024 302.082 134.933C301.662 134.438 301.279 133.913 300.937 133.361C300.213 132.098 299.998 130.613 299.54 129.229C298.26 125.35 295.068 122.239 294.291 118.226C294.008 116.771 293.085 115.505 292.452 114.165C292.025 113.259 291.553 112.303 290.698 111.785C289.597 111.111 288.075 111.421 287.159 112.327C286.716 112.8 286.387 113.369 286.197 113.989C286.007 114.61 285.962 115.265 286.065 115.906ZM326.042 252.168C325.644 252.375 325.204 252.49 324.756 252.504C324.529 252.528 324.305 252.564 324.082 252.612C323.998 251.905 323.951 251.188 323.897 250.491C323.719 248.205 323.362 245.935 323.008 243.669C322.638 241.312 322.463 238.733 321.661 236.47C320.372 232.787 319.065 228.992 319.23 225.09C319.267 224.204 319.379 223.325 319.426 222.443C319.533 220.258 319.227 218.026 319.762 215.901C320.001 214.935 320.409 214.012 320.564 213.029C320.663 212.141 320.674 211.245 320.597 210.355C320.45 207.266 320.707 204.17 321.362 201.146C321.988 201.965 322.193 203.022 322.372 204.035L323.635 210.884C324.385 214.948 325.049 219.258 327.039 222.874C326.759 224.177 326.483 225.568 326.944 226.814C327.143 227.352 327.47 227.824 327.672 228.369C328.008 229.275 327.961 230.272 328.062 231.231C328.281 233.251 329.116 235.238 328.503 237.188C327.873 239.198 327.463 241.271 327.281 243.369C327.248 243.953 327.18 244.534 327.079 245.11C326.971 245.629 326.796 246.12 326.699 246.652C326.564 247.399 326.597 248.166 326.796 248.898C326.947 249.304 327.04 249.729 327.072 250.161C327.072 250.592 326.544 250.902 326.119 250.969C326.244 251.131 326.379 251.285 326.517 251.437C326.436 251.723 326.27 251.977 326.042 252.168Z" fill="url(#paint0_linear)"/>
<path d="M312.746 256.055C312.219 256.069 311.708 256.235 311.274 256.533C310.958 256.832 310.743 257.223 310.661 257.651C310.542 258.072 310.516 258.513 310.586 258.945C310.656 259.377 310.819 259.788 311.065 260.149C311.366 260.527 311.759 260.82 312.207 261.001C313.762 261.675 315.547 261.183 317.17 260.695L323.527 258.782C323.914 258.703 324.272 258.518 324.561 258.247C324.736 258.011 324.832 257.727 324.837 257.433C324.842 257.14 324.755 256.852 324.587 256.61C324.246 256.135 323.78 255.764 323.241 255.536C321.264 254.573 319.035 254.355 316.863 254.314C316.055 254.314 315.257 254.119 314.709 254.742C314.419 255.078 314.473 255.439 314.035 255.725C313.635 255.929 313.195 256.042 312.746 256.055Z" fill="#3F3D56"/>
<path d="M324.756 252.558C324.23 252.573 323.719 252.739 323.284 253.036C322.969 253.335 322.754 253.726 322.672 254.154C322.552 254.575 322.527 255.017 322.596 255.449C322.666 255.882 322.83 256.293 323.076 256.655C323.378 257.031 323.771 257.323 324.217 257.504C325.776 258.177 327.557 257.689 329.18 257.201L335.537 255.285C335.925 255.206 336.283 255.02 336.571 254.75C336.746 254.514 336.842 254.23 336.847 253.938C336.852 253.645 336.765 253.357 336.598 253.117C336.256 252.642 335.79 252.27 335.251 252.043C333.271 251.08 331.042 250.857 328.87 250.817C328.062 250.817 327.268 250.625 326.715 251.248C326.426 251.585 326.48 251.942 326.042 252.228C325.644 252.435 325.204 252.548 324.756 252.558Z" fill="#3F3D56"/>
<path d="M319.23 183.568C322.977 183.192 326.745 183.086 330.507 183.252C330.755 183.249 331.002 183.288 331.237 183.366C332.066 183.703 332.194 184.787 332.271 185.673C332.608 189.269 334.177 192.619 334.965 196.141C335.427 198.355 335.638 200.614 335.591 202.875C335.546 203.885 335.564 204.897 335.645 205.905C335.746 206.804 335.982 207.686 336.11 208.582C336.252 209.785 336.305 210.997 336.268 212.208C336.306 214.107 336.199 216.006 335.948 217.889C335.429 221.097 336.335 224.286 336.578 227.532C336.698 229.802 336.954 232.063 337.342 234.303C337.527 235.249 337.759 236.185 337.887 237.138C338.264 239.97 337.712 242.886 338.308 245.68C338.584 246.987 339.083 248.455 338.349 249.573C338.12 249.909 337.783 250.196 337.534 250.536C337.394 250.695 337.299 250.887 337.257 251.095C337.216 251.302 337.23 251.517 337.298 251.718C337.443 252.024 337.78 252.226 337.864 252.553C337.995 253.068 337.456 253.489 336.972 253.707C333.318 255.357 328.608 254.196 326.143 251.034C326.567 250.967 327.086 250.66 327.096 250.229C327.064 249.801 326.971 249.379 326.82 248.977C326.622 248.25 326.588 247.489 326.722 246.748C326.82 246.229 326.995 245.738 327.103 245.216C327.204 244.643 327.271 244.065 327.305 243.485C327.487 241.399 327.897 239.34 328.527 237.344C329.14 235.407 328.305 233.448 328.086 231.428C327.985 230.471 328.029 229.485 327.695 228.582C327.493 228.05 327.167 227.572 326.968 227.04C326.507 225.798 326.783 224.417 327.062 223.124C325.072 219.532 324.409 215.249 323.658 211.212L322.396 204.41C322.207 203.4 322.002 202.353 321.385 201.538C320.731 204.541 320.474 207.617 320.621 210.686C320.697 211.571 320.686 212.461 320.587 213.343C320.433 214.32 320.025 215.239 319.786 216.195C319.264 218.306 319.571 220.522 319.449 222.693C319.402 223.572 319.291 224.444 319.254 225.323C319.089 229.202 320.395 232.973 321.685 236.633C322.476 238.879 322.651 241.431 323.032 243.781C323.369 246.034 323.742 248.287 323.921 250.559C324.086 252.647 324.16 254.906 325.46 256.546C324.271 257.317 323.045 258.101 321.655 258.367C320.034 258.621 318.376 258.299 316.968 257.458C315.568 256.621 314.316 255.557 313.264 254.31C313.537 254.216 313.634 253.819 313.661 253.532C314.065 249.27 312.446 245.115 311.833 240.872C311.527 238.747 311.472 236.593 311.671 234.455C311.749 233.65 311.86 232.845 311.89 232.037C312.052 227.825 310.022 223.768 310.096 219.552C310.129 217.576 309.086 215.629 308.574 213.72C308.133 212.037 308.119 210.252 308.109 208.501L308.025 194.696C308.025 192.831 308.025 190.918 308.628 189.157C309.368 187.036 308.52 184.602 308.392 182.359C311.891 183.468 315.573 183.879 319.23 183.568Z" fill="#696791"/>
<path d="M307.227 143.906C305.811 141.012 304.083 138.283 302.072 135.767C301.652 135.276 301.269 134.754 300.927 134.205C300.203 132.949 299.988 131.474 299.53 130.101C298.25 126.249 295.058 123.154 294.28 119.171C293.998 117.723 293.075 116.477 292.442 115.131C292.014 114.232 291.543 113.282 290.688 112.774C289.587 112.1 288.065 112.41 287.149 113.312C286.708 113.782 286.381 114.346 286.193 114.962C286.005 115.578 285.961 116.229 286.065 116.865C286.128 117.451 286.362 118.006 286.738 118.461C287.226 119.009 287.957 119.259 288.614 119.589C290.31 120.449 291.608 121.931 292.237 123.727C293.358 126.976 293.503 130.417 294.93 133.555C296.358 136.693 298.035 139.703 299.267 142.912C299.967 144.734 300.526 146.616 301.553 148.3C302.58 149.983 304.183 151.394 306.119 151.646C306.106 150.426 306.291 149.211 306.668 148.05C307.089 146.724 307.836 145.161 307.227 143.906Z" fill="#A0616A"/>
<path d="M328.072 146.421C327.986 144.04 328.357 141.665 329.167 139.424C329.476 138.566 329.84 137.694 329.81 136.781C329.766 135.933 329.362 135.155 328.995 134.387C327.729 131.744 326.84 128.943 325.965 126.148L324.281 120.878C323.732 120.476 323.236 120.007 322.803 119.481C321.905 118.443 321.312 117.178 321.089 115.824C320.982 115.15 321.01 114.46 321.172 113.796C321.335 113.133 321.628 112.508 322.035 111.959C322.215 111.695 322.448 111.473 322.721 111.307C322.993 111.141 323.298 111.035 323.614 110.996C323.894 111.002 324.169 111.065 324.424 111.181C324.679 111.297 324.907 111.463 325.096 111.67C325.651 112.303 326.081 113.037 326.362 113.831C326.911 115.124 327.47 116.471 327.419 117.872C327.372 119.037 326.938 120.336 327.621 121.282C329.857 124.387 331.55 127.953 333.322 131.343C333.773 132.151 334.158 132.995 334.473 133.865C334.906 135.276 335.11 136.747 335.079 138.222C335.079 140.98 334.716 143.727 334.338 146.461C334.099 148.175 333.786 150.041 332.49 151.175C331.143 149.451 329.789 147.768 328.072 146.421Z" fill="#A0616A"/>
<path d="M319.507 147.735C323.365 147.735 326.493 144.607 326.493 140.748C326.493 136.89 323.365 133.762 319.507 133.762C315.648 133.762 312.52 136.89 312.52 140.748C312.52 144.607 315.648 147.735 319.507 147.735Z" fill="#A0616A"/>
<path d="M322.891 148.106C323.059 149.369 323.736 150.5 324.396 151.591C324.793 152.265 325.301 152.982 326.079 153.056C324.055 154.118 321.929 154.973 319.732 155.608C318.986 155.859 318.203 155.985 317.416 155.982C316.748 155.932 316.095 155.765 315.486 155.487C314.155 154.907 312.972 154.032 312.028 152.929C311.084 151.825 310.402 150.522 310.035 149.116C310.905 149.14 311.775 149.073 312.631 148.918C313.12 148.88 313.576 148.656 313.904 148.292C314.099 147.95 314.19 147.559 314.167 147.167C314.2 146.002 314.204 144.834 314.167 143.669C315.883 143.559 317.605 143.772 319.244 144.295C319.917 144.514 320.591 144.776 321.264 144.948C321.689 145.056 322.857 144.948 323.17 145.194C323.685 145.541 322.773 147.248 322.891 148.106Z" fill="#A0616A"/>
<path d="M319.82 152.352C319.896 151.431 320.261 150.558 320.862 149.856C321.462 149.155 322.269 148.66 323.167 148.442C323.887 148.281 324.668 148.301 325.312 147.944C326.416 147.328 326.749 145.826 327.81 145.136C328.871 144.446 330.376 144.83 331.298 145.702C332.221 146.574 332.689 147.816 333.066 149.032C333.629 150.675 333.934 152.396 333.972 154.133C333.986 154.45 333.935 154.768 333.824 155.065C333.624 155.413 333.372 155.728 333.076 155.998C332.681 156.441 332.386 156.965 332.212 157.533C332.037 158.1 331.988 158.699 332.066 159.288C332.162 160.397 332.06 161.514 331.766 162.587C331.093 165.557 330.419 168.524 329.877 171.52C329.75 172.072 329.708 172.64 329.753 173.204C329.857 174.015 330.305 174.783 330.207 175.594C330.112 175.972 330.041 176.356 329.995 176.743C330.017 177.035 330.085 177.323 330.197 177.594C330.961 179.813 333.025 184.898 333.005 187.248C329.419 186.329 324.133 186.123 320.429 186.106C319.411 186.096 318.392 186.141 317.379 186.241C314.944 186.504 312.453 187.214 310.092 186.558C307.9 185.948 305.961 184.201 303.695 184.419C303.203 183.133 303.783 178.84 304.244 177.541C306.042 172.423 306.392 166.908 305.254 161.604C304.84 159.698 305.409 157.675 304.948 155.783C304.863 155.335 304.692 154.908 304.442 154.527C304.317 154.337 304.146 154.183 303.944 154.077C303.743 153.972 303.518 153.919 303.291 153.924C303.249 150.88 303.531 147.841 304.133 144.856C304.355 143.796 304.806 142.543 305.894 142.361C306.857 142.196 307.665 143.011 308.439 143.607C309.233 144.222 310.153 144.654 311.133 144.873C311.527 144.92 311.906 145.059 312.237 145.277C312.699 145.661 312.766 146.351 313.143 146.819C313.816 147.658 315.321 147.587 315.8 148.553C315.904 148.841 315.989 149.136 316.052 149.436C316.278 150.01 316.664 150.508 317.163 150.87C317.913 151.575 318.826 152.084 319.82 152.352Z" fill="#00A3FF"/>
<path d="M313.83 133.32C313.709 132.859 313.729 132.31 314.099 132C314.284 131.856 314.527 131.802 314.725 131.664C315.005 131.428 315.235 131.139 315.399 130.812C315.901 130.109 316.637 129.606 317.474 129.394C318.312 129.181 319.198 129.272 319.975 129.65C321.19 130.287 321.924 131.559 323.005 132.418C323.554 132.862 324.19 133.192 324.742 133.637C325.848 134.592 326.635 135.864 326.995 137.28C327.353 138.686 327.562 140.126 327.618 141.576C327.675 142.012 327.658 142.453 327.567 142.883C327.456 143.243 327.289 143.584 327.072 143.893C325.961 145.576 324.497 147.105 322.662 147.974C320.827 148.843 318.594 148.984 316.783 148.075C316.6 148.001 316.444 147.876 316.332 147.715C316.229 147.469 316.204 147.197 316.261 146.937C316.359 145.908 316.155 144.872 315.675 143.957C315.338 143.283 314.833 142.704 314.564 142.007C314.313 141.227 314.206 140.408 314.247 139.59C314.217 137.472 314.362 135.361 313.83 133.32Z" fill="#2D293D"/>
<defs>
<linearGradient id="paint0_linear" x1="338.732" y1="185.665" x2="286.021" y2="185.665" gradientUnits="userSpaceOnUse">
<stop stop-color="#808080" stop-opacity="0.25"/>
<stop offset="0.54" stop-color="#808080" stop-opacity="0.12"/>
<stop offset="1" stop-color="#808080" stop-opacity="0.1"/>
</linearGradient>
</defs>
</svg>
