<svg width="461" height="882" viewBox="0 0 461 882" fill="none" xmlns="http://www.w3.org/2000/svg">
<g opacity="0.9">
<path opacity="0.9" d="M382.873 173.698H377.432C375.824 173.698 374.521 175.002 374.521 176.609V263.61C374.521 265.218 375.824 266.521 377.432 266.521H382.873C384.48 266.521 385.784 265.218 385.784 263.61V176.609C385.784 175.002 384.48 173.698 382.873 173.698Z" fill="#3A3768"/>
<path opacity="0.9" d="M3.63581 100.983H3.14002C1.5323 100.983 0.229004 102.287 0.229004 103.894V128.632C0.229004 130.24 1.5323 131.543 3.14002 131.543H3.63581C5.24353 131.543 6.54683 130.24 6.54683 128.632V103.894C6.54683 102.287 5.24353 100.983 3.63581 100.983Z" fill="#3A3768"/>
<path opacity="0.9" d="M4.20767 156.93H2.91106C1.30333 156.93 0 158.233 0 159.841V207.206C0 208.813 1.30333 210.117 2.91106 210.117H4.20767C5.81539 210.117 7.11872 208.813 7.11872 207.206V159.841C7.11872 158.233 5.81539 156.93 4.20767 156.93Z" fill="#3A3768"/>
<path opacity="0.9" d="M3.97847 228.727H3.02507C1.41734 228.727 0.114014 230.03 0.114014 231.638V279.46C0.114014 281.068 1.41734 282.371 3.02507 282.371H3.97847C5.5862 282.371 6.88953 281.068 6.88953 279.46V231.638C6.88953 230.03 5.5862 228.727 3.97847 228.727Z" fill="#3A3768"/>
<path opacity="0.9" d="M331.033 0H53.378C26.0046 0 3.81396 22.1906 3.81396 49.5641V716.193C3.81396 743.567 26.0046 765.758 53.378 765.758H331.033C358.407 765.758 380.597 743.567 380.597 716.193V49.5641C380.597 22.1906 358.407 0 331.033 0Z" fill="#3A3768"/>
<path opacity="0.9" d="M203.545 22.8564H160.769C158.052 22.8564 155.849 25.059 155.849 27.776V28.615C155.849 31.332 158.052 33.5345 160.769 33.5345H203.545C206.262 33.5345 208.464 31.332 208.464 28.615V27.776C208.464 25.059 206.262 22.8564 203.545 22.8564Z" fill="#E6E8EC"/>
<path opacity="0.9" d="M222.485 34.2718C225.834 34.2718 228.549 31.557 228.549 28.2082C228.549 24.8593 225.834 22.1445 222.485 22.1445C219.137 22.1445 216.422 24.8593 216.422 28.2082C216.422 31.557 219.137 34.2718 222.485 34.2718Z" fill="#E6E8EC"/>
</g>
<path opacity="0.1" d="M341.914 881.995C407.684 881.995 461 876.559 461 869.855C461 863.15 407.684 857.715 341.914 857.715C276.145 857.715 222.828 863.15 222.828 869.855C222.828 876.559 276.145 881.995 341.914 881.995Z" fill="#00A3FF"/>
<path d="M327.359 19.9316H284.265V25.1308C284.265 31.6647 281.67 37.9309 277.05 42.551C272.43 47.1711 266.163 49.7667 259.629 49.7667H122.111C115.577 49.7667 109.311 47.1711 104.691 42.551C100.071 37.9309 97.4753 31.6647 97.4753 25.1308V19.9316H57.0004C53.0713 19.9316 49.1807 20.7057 45.5509 22.2097C41.9211 23.7137 38.6231 25.9181 35.8454 28.6969C33.0678 31.4758 30.8648 34.7747 29.3623 38.4052C27.8599 42.0357 27.0874 45.9266 27.0891 49.8557V715.875C27.0874 719.804 27.8599 723.695 29.3623 727.325C30.8648 730.956 33.0678 734.255 35.8454 737.034C38.6231 739.813 41.9211 742.017 45.5509 743.521C49.1807 745.025 53.0713 745.799 57.0004 745.799H327.359C335.295 745.799 342.907 742.646 348.518 737.034C354.13 731.423 357.283 723.811 357.283 715.875V49.8557C357.283 41.9193 354.13 34.308 348.518 28.6962C342.907 23.0844 335.295 19.9316 327.359 19.9316Z" fill="white"/>
<path opacity="0.3" d="M316.338 477.625H217.146V576.817H316.338V477.625Z" fill="#3A3768"/>
<path opacity="0.3" d="M170.15 346.693H70.958V445.885H170.15V346.693Z" fill="#3A3768"/>
<path opacity="0.3" d="M179.683 606.323H80.4917V705.515H179.683V606.323Z" fill="#3A3768"/>
<path d="M157.552 103.145H58.3604V202.336H157.552V103.145Z" fill="#00A3FF"/>
<path d="M118.997 128.772L115.526 132.243C119.662 136.385 121.985 141.999 121.985 147.853C121.985 153.707 119.662 159.321 115.526 163.463L118.997 166.934C124.052 161.876 126.891 155.017 126.891 147.866C126.891 140.715 124.052 133.856 118.997 128.798V128.772ZM117.726 141.764V125.874H112.831L98.1872 138.078H78.6616L73.7803 140.518V157.616L78.6616 160.057L90.916 179.595H98.2381L93.6618 160.057H98.2381L112.882 169.832H117.776V153.942C119.159 153.631 105.14 152.858 106.025 151.752C106.91 150.645 107.392 149.27 107.392 147.853C107.392 146.436 106.91 145.061 106.025 143.955C105.14 142.848 119.159 142.075 117.776 141.764H117.726Z" fill="white"/>
<path d="M296.456 441.865L222.905 508.417L289.457 581.968L363.008 515.416L296.456 441.865Z" fill="white"/>
<path d="M264.231 498.282L271.426 491.748L310.833 535.185L303.587 541.745L264.231 498.282ZM281.227 538.961L288.473 532.414L299.913 545.126L292.668 551.673L281.227 538.961ZM296.405 512.062L303.651 505.503L321.664 525.422L314.431 531.969L296.405 512.062ZM297.435 491.367L304.68 484.808L332.532 515.583L325.287 522.143L297.435 491.367Z" fill="#00A3FF"/>
<path d="M314.698 222.676H215.506V321.867H314.698V222.676Z" fill="white"/>
<path d="M283.934 260.393L270.625 280.732C271.698 282.035 272.282 283.672 272.277 285.36C272.199 287.25 271.392 289.038 270.026 290.348C268.661 291.658 266.841 292.389 264.949 292.389C263.057 292.389 261.237 291.658 259.872 290.348C258.506 289.038 257.699 287.25 257.621 285.36C257.624 284.903 257.667 284.448 257.748 283.999L248.951 278.915C247.811 280.002 246.353 280.695 244.79 280.892C243.227 281.088 241.642 280.779 240.269 280.008L230.913 288.766V297.5C230.916 299.228 231.604 300.885 232.826 302.107C234.049 303.329 235.705 304.017 237.434 304.021H292.782C294.509 304.014 296.164 303.325 297.386 302.103C298.607 300.882 299.296 299.227 299.303 297.5V265.059L290.405 259.122C289.126 260.128 287.545 260.675 285.917 260.673C285.264 260.669 284.615 260.579 283.985 260.406L283.934 260.393Z" fill="#00A3FF"/>
<path d="M243.879 266.316C244.841 266.314 245.795 266.503 246.685 266.87C247.575 267.237 248.383 267.776 249.065 268.456C249.746 269.136 250.286 269.944 250.655 270.833C251.024 271.722 251.214 272.676 251.214 273.638C251.214 273.956 251.214 274.287 251.15 274.592L260.328 279.676C261.633 278.598 263.275 278.013 264.968 278.024C265.498 278.024 266.027 278.083 266.544 278.202L279.892 257.532C279.226 256.593 278.792 255.51 278.623 254.371C278.455 253.232 278.557 252.069 278.922 250.977C279.287 249.886 279.905 248.895 280.724 248.087C281.544 247.278 282.543 246.674 283.639 246.324C284.736 245.974 285.9 245.887 287.036 246.071C288.173 246.255 289.25 246.704 290.18 247.383C291.11 248.061 291.868 248.949 292.39 249.975C292.913 251.001 293.187 252.135 293.189 253.286C293.187 253.868 293.119 254.449 292.985 255.015L299.341 259.223V246.994C299.335 245.268 298.645 243.614 297.423 242.395C296.201 241.175 294.546 240.489 292.82 240.485H237.434C235.707 240.485 234.05 241.171 232.827 242.391C231.604 243.611 230.916 245.267 230.913 246.994V282.003L237.014 276.155C236.714 275.341 236.559 274.481 236.557 273.613C236.563 271.675 237.338 269.819 238.71 268.452C240.083 267.084 241.941 266.316 243.879 266.316Z" fill="#00A3FF"/>
<path d="M189.307 333.269H90.1152V432.46H189.307V333.269Z" fill="white"/>
<path d="M169.641 351.269L108.623 384.32C108.416 384.433 108.244 384.603 108.127 384.808C108.01 385.014 107.953 385.249 107.962 385.485C107.972 385.722 108.047 385.951 108.179 386.147C108.312 386.343 108.496 386.498 108.712 386.595L119.123 390.523C119.726 390.757 120.217 391.212 120.496 391.795L128.581 408.447C128.734 409.185 130.094 409.388 130.107 408.638L128.835 394.871C128.908 393.849 129.299 392.875 129.954 392.087L161.581 361.095C161.673 361.007 161.784 360.943 161.906 360.908C162.028 360.872 162.156 360.867 162.281 360.892C162.399 360.921 162.508 360.979 162.598 361.061C162.688 361.143 162.756 361.247 162.795 361.362C162.834 361.477 162.844 361.601 162.823 361.721C162.802 361.841 162.751 361.953 162.675 362.048L135.407 395.379C134.832 396.193 134.465 397.136 134.34 398.125L132.713 410.011C132.84 411.053 133.653 411.447 134.314 410.519L140.187 403.617C140.385 403.357 140.674 403.184 140.996 403.132C141.317 403.08 141.647 403.153 141.916 403.337L157.056 414.371C157.225 414.48 157.418 414.547 157.618 414.567C157.818 414.588 158.02 414.56 158.207 414.487C158.395 414.413 158.562 414.297 158.696 414.146C158.829 413.996 158.925 413.816 158.975 413.621L171.395 352.603C171.434 352.376 171.411 352.141 171.327 351.926C171.243 351.711 171.102 351.522 170.919 351.381C170.736 351.24 170.518 351.151 170.288 351.125C170.058 351.098 169.826 351.135 169.615 351.231L169.641 351.269Z" fill="#00A3FF"/>
<path d="M387.398 866.142C386.368 861.782 385.745 857.968 385.745 857.968C385.831 855.085 385.179 852.228 383.851 849.667V848.472V839.701C384.452 838.11 385.192 836.574 386.063 835.112C387.639 832.366 386.063 822.273 386.063 822.273C386.063 822.273 380.215 808.048 381.627 799.023C383.038 789.997 369.626 758.942 369.626 758.942C369.711 755.937 370.137 752.952 370.898 750.044C371.043 749.436 371.098 748.811 371.063 748.188C371.069 748.111 371.069 748.035 371.063 747.959V748.035C370.859 742.086 366.156 730.925 366.156 730.925L366.792 709.67C366.792 709.67 369.792 697.124 364.898 680.293C363.181 674.42 362.088 669.729 361.389 666.094C361.313 665.687 361.236 665.293 361.173 664.911C371.253 663.373 378.97 662.089 378.97 662.089C378.97 662.089 373.122 637.619 369.169 633.335C365.215 629.051 362.063 615.602 362.063 615.602C362.063 615.602 360.003 598.313 363.334 593.267C366.664 588.22 367.148 579.499 367.148 579.499C367.148 579.499 374.775 573.995 375.677 571.542C377.024 568.058 377.879 564.405 378.22 560.686C378.22 557.775 377.266 555.181 377.584 553.643C377.902 552.105 375.372 546.308 376.643 543.55C376.971 542.702 377.139 541.802 377.139 540.893C377.145 540.868 377.145 540.842 377.139 540.817C377.144 538.407 376.919 536.002 376.465 533.635C374.277 531.782 371.721 530.413 368.965 529.618L368.8 528.969L368.368 527.253C368.129 527.086 367.879 526.938 367.618 526.808V526.173V523.63L368.8 518.037C371.139 508.338 358.173 506.889 358.173 506.889C357.388 505.396 356.08 504.246 354.499 503.66C351.957 502.744 354.067 518.279 355.287 519.27C356.202 520.007 359.101 524.889 360.372 527.279L360.601 527.673C360.385 527.863 360.185 528.072 360.003 528.296L360.499 531.664L360.575 532.185C359.714 533.25 359.016 534.437 358.503 535.707C358.503 535.707 360.881 538.313 360.397 541.224C360.214 543.495 360.482 545.781 361.186 547.948C361.046 547.783 359.381 545.978 357.715 546.423C356.05 546.868 351.359 548.253 351.359 548.253C351.359 548.253 347.876 548.864 348.194 549.626C348.512 550.389 345.83 553.758 345.83 553.758L336.486 544.859C336.385 544.592 336.296 544.325 336.207 544.058C335.824 542.814 335.556 541.538 335.406 540.245C336.42 540.002 337.414 539.684 338.38 539.291C339.347 538.951 340.219 538.384 340.923 537.639C341.706 536.419 342.218 535.045 342.423 533.609C343.16 530.889 344.749 528.461 345.893 525.88C347.78 521.544 348.405 516.764 347.698 512.088C347.553 510.638 347.065 509.244 346.274 508.02C344.749 505.922 341.978 505.071 339.918 503.393C337.859 501.715 336.613 499.172 334.262 497.914C332.027 496.941 329.536 496.726 327.168 497.304C322.496 498.065 318.007 499.695 313.935 502.109C312.562 502.922 311.075 503.85 309.499 503.571C308.201 503.175 307.076 502.35 306.308 501.232C306.303 501.185 306.303 501.138 306.308 501.092L306.194 500.978C305.213 503.177 304.719 505.561 304.744 507.969C304.744 508.338 304.744 508.706 304.744 509.088C304.744 509.215 304.744 509.342 304.744 509.469C304.751 509.579 304.751 509.69 304.744 509.8C304.738 509.967 304.712 510.134 304.668 510.295C304.475 510.776 304.18 511.21 303.804 511.567C303.51 511.884 303.254 512.233 303.041 512.609C303.041 512.482 303.117 512.355 303.168 512.228C302.568 513.093 302.229 514.112 302.189 515.164C302.139 515.934 302.395 516.692 302.901 517.274C303.363 517.746 303.87 518.172 304.414 518.545C304.234 519.57 304.145 520.607 304.147 521.647C304.163 524.757 304.981 527.81 306.522 530.511C308.063 533.212 310.275 535.47 312.944 537.067L313.261 537.868C314.614 541.078 315.193 544.562 314.952 548.037C314.952 548.292 314.952 548.533 314.838 548.787L314.507 549.169C314.507 549.169 299.075 549.321 295.439 546.029C291.804 542.736 286.274 554.063 286.274 554.063C286.274 554.063 280.744 555.143 279.638 554.063C278.532 552.982 272.011 553.91 272.011 553.91C269.359 551.563 265.916 550.309 262.375 550.402C260.216 548.755 257.832 547.428 255.295 546.461L255.117 546.397C254.003 545.994 252.812 545.847 251.634 545.965C251.634 545.965 244.006 539.686 241.845 536.33C239.684 532.974 229.133 520.478 229.044 520.414V519.817L228.917 517.999C228.606 518.049 228.292 518.079 227.977 518.088C227.977 517.897 227.85 517.694 227.761 517.452C227.153 515.7 226.405 513.999 225.523 512.367C225.523 512.367 225.523 510.079 226.197 509.507C226.871 508.935 225.917 500.52 225.917 500.52C225.917 500.52 219.078 484.541 212.964 496.465C212.964 496.465 201.383 504.181 211.095 513.181C211.095 513.181 214.909 515.05 215.519 516.537C215.888 517.503 217.197 520.211 218.061 522.003L218.455 522.804L218.341 522.893L218.494 524.393V524.978C216.663 526.007 215.43 527.037 215.722 527.825C216.266 529.149 216.638 530.538 216.828 531.957C216.828 531.957 230.265 548.775 232.006 555.97C232.006 555.97 268.032 577.377 279.88 578.915L277.833 589.618C277.526 592.515 277.369 595.426 277.363 598.339C277.515 600.627 275.939 611.051 275.939 611.051C275.939 611.051 273.88 626.305 272.125 628.479C270.371 630.653 270.702 639.805 270.702 639.805C270.29 644.196 269.499 648.543 268.337 652.797C266.596 658.619 267.867 665.801 267.867 665.801C267.867 665.801 261.854 679.568 276.244 670.238C276.244 670.238 283.299 669.805 291.498 669.526C291.498 669.793 291.498 670.06 291.498 670.339C291.498 671.382 291.498 672.513 291.498 673.708C291.397 681.589 291.346 692.458 291.702 700.683C292.338 715.213 296.787 743.904 296.787 743.904V758.344C296.51 759.704 296.373 761.088 296.38 762.476C296.274 767.57 297.623 772.588 300.27 776.942L301.376 786.578C301.376 786.578 303.918 792.934 304.02 796.747C304.01 797.055 303.972 797.362 303.905 797.663C303.81 798.148 303.767 798.643 303.778 799.137C303.638 803.51 306.321 813.985 306.321 813.985C306.321 813.985 306.486 824.536 308.062 825.146C309.41 825.667 306.257 831.235 305.316 832.773C305.289 832.673 305.268 832.571 305.253 832.468C305.138 832.672 305.062 832.786 305.062 832.786C304.734 833.638 304.566 834.543 304.566 835.455C304.474 836.177 304.591 836.91 304.901 837.568C305.212 838.225 305.705 838.78 306.321 839.167C309.321 841.011 310.935 842.536 308.393 843.146C307.455 843.289 306.525 843.484 305.609 843.731C305.609 843.617 305.507 843.489 305.469 843.375C305.136 843.525 304.86 843.777 304.682 844.095C304.503 844.413 304.432 844.78 304.477 845.142C304.505 846.392 304.832 847.617 305.431 848.714C306.545 851.473 307.979 854.093 309.702 856.519L310.973 856.379C310.788 856.83 310.549 857.257 310.261 857.651C309.806 858.314 309.195 858.855 308.482 859.227C307.82 859.62 307.084 859.876 306.321 859.977C305.463 860 304.62 860.205 303.849 860.58C303.077 860.955 302.394 861.491 301.846 862.151C300.27 864.185 299.304 866.968 302.393 869.409L313.694 873.299C313.694 873.299 333.13 875.841 332.101 871.468C331.071 867.096 330.448 863.295 330.448 863.295C330.525 860.626 329.981 857.976 328.859 855.553C328.664 855.152 328.434 854.77 328.173 854.409L328.859 854.333C328.859 854.333 330.283 844.697 332.177 842.892C332.622 842.472 332.723 842.142 332.609 841.888C332.812 841.366 332.317 841.061 331.681 840.883L331.541 841.265C330.922 841.135 330.292 841.067 329.66 841.061C329.66 841.061 329.024 835.977 331.071 834.171C331.238 833.963 331.361 833.722 331.431 833.464C331.501 833.206 331.517 832.936 331.478 832.671C331.488 831.979 331.416 831.287 331.262 830.612L331.185 830.739C330.018 826.662 328.5 822.694 326.647 818.879C326.647 818.879 326.495 814.29 327.753 812.447C329.012 810.603 327.601 787.518 327.601 787.518C327.601 787.518 328.071 776.357 326.647 771.158C325.223 765.959 328.389 759.832 328.389 759.832V759.501V759.425C328.389 759.425 328.312 758.739 328.198 757.658V757.772C327.88 754.811 327.283 749.459 326.838 746.993C326.202 743.471 326.99 726.653 326.99 726.653L329.838 719.471L334.923 731.853L340.287 748.378C341.82 750.425 342.765 752.851 343.02 755.395C343.02 755.573 343.02 755.751 343.02 755.916C342.996 756.285 342.996 756.654 343.02 757.022C342.93 759.108 343.504 761.169 344.66 762.908C344.66 762.908 346.084 770.713 348.296 772.696C350.508 774.679 350.508 778.506 350.508 778.506C350.508 778.506 353.19 789.832 354.461 791.815C355.529 793.493 355.58 798.095 355.567 799.442V799.862C355.567 799.862 355.936 803.904 355.923 807.311C355.923 807.718 355.923 808.137 355.923 808.582V808.493C355.92 809.418 355.809 810.34 355.592 811.239V811.404C355.592 811.214 355.592 811.01 355.592 810.832C355.026 813.141 354.753 815.511 354.779 817.887C354.703 821.955 355.325 826.786 357.792 829.595C362.063 834.489 364.745 833.879 364.745 833.879C364.745 833.879 362.686 839.994 360.156 841.227C360.062 841.272 359.972 841.328 359.889 841.392C359.889 841.277 359.889 841.15 359.825 841.036C359.551 841.346 359.343 841.709 359.217 842.103C359.09 842.496 359.046 842.912 359.088 843.324C359.203 846.59 360.292 849.746 362.215 852.388C362.809 852.984 363.544 853.421 364.351 853.659L363.957 853.901C363.672 854.056 363.379 854.196 363.08 854.32C362.676 854.497 362.247 854.609 361.808 854.65C360.951 854.673 360.108 854.879 359.336 855.254C358.565 855.629 357.882 856.164 357.334 856.824C355.758 858.858 354.792 861.642 357.881 864.083L369.182 867.973C369.182 867.973 388.377 870.566 387.398 866.142Z" fill="url(#paint0_linear)"/>
<path d="M313.159 873.364L302.214 869.474C299.201 867.033 300.168 864.249 301.693 862.215C302.213 861.561 302.868 861.028 303.615 860.653C304.361 860.277 305.18 860.069 306.015 860.042C306.759 859.941 307.474 859.686 308.113 859.292C308.806 858.912 309.399 858.371 309.841 857.715C310.652 856.451 311.092 854.984 311.113 853.482C311.113 853.482 323.125 849.974 326.367 853.482C326.955 854.12 327.447 854.839 327.829 855.618C328.91 858.052 329.432 860.697 329.354 863.359C329.354 863.359 329.965 867.173 330.956 871.533C331.948 875.893 313.159 873.364 313.159 873.364Z" fill="#2D293D"/>
<path d="M366.69 868.026L355.757 864.136C352.732 861.695 353.698 858.911 355.223 856.89C355.743 856.231 356.4 855.694 357.149 855.316C357.897 854.939 358.72 854.729 359.558 854.704C359.997 854.665 360.427 854.553 360.829 854.373C361.119 854.254 361.399 854.114 361.668 853.953C364.732 852.275 364.656 848.144 364.656 848.144C364.656 848.144 376.656 844.623 379.91 848.144C380.35 848.62 380.734 849.145 381.054 849.708C382.345 852.284 382.978 855.14 382.897 858.021C382.897 858.021 383.508 861.835 384.499 866.195C385.491 870.555 366.69 868.026 366.69 868.026Z" fill="#2D293D"/>
<path opacity="0.1" d="M326.381 853.483C326.969 854.12 327.461 854.839 327.843 855.618L309.842 857.703C310.653 856.438 311.093 854.972 311.113 853.47C311.113 853.47 323.101 849.974 326.381 853.483Z" fill="black"/>
<path opacity="0.1" d="M381.067 849.655V853.024C378.27 857.638 364.732 856.634 360.804 854.295C361.094 854.176 361.374 854.035 361.643 853.875C364.707 852.197 364.631 848.066 364.631 848.066C364.631 848.066 376.631 844.545 379.885 848.066C380.34 848.548 380.736 849.081 381.067 849.655Z" fill="black"/>
<path d="M383.216 835.125C382.372 836.591 381.653 838.127 381.068 839.714V851.803C378.017 856.888 362.101 855.172 359.966 852.413C357.83 849.655 355.529 842.473 357.97 841.252C360.411 840.032 362.406 833.905 362.406 833.905C362.406 833.905 359.864 834.515 355.682 829.621C351.5 824.727 352.783 813.871 353.546 811.265C354.309 808.659 353.546 799.951 353.546 799.951C353.546 799.951 353.699 793.837 352.478 791.841C351.258 789.845 348.665 778.531 348.665 778.531C348.665 778.531 348.665 774.718 346.529 772.722C344.394 770.726 343.008 762.934 343.008 762.934C341.756 760.985 341.217 758.663 341.482 756.362C341.94 752.548 338.877 748.404 338.877 748.404L333.677 731.878L328.783 719.484L326.037 726.666C326.037 726.666 325.262 743.497 325.885 747.006C326.508 750.514 327.41 759.845 327.41 759.845C327.41 759.845 324.347 765.972 325.732 771.171C327.118 776.37 326.648 787.531 326.648 787.531C326.648 787.531 328.02 810.629 326.8 812.472C325.58 814.316 325.732 818.828 325.732 818.828C325.732 818.828 331.999 832.29 330.004 834.083C328.008 835.875 328.631 840.973 328.631 840.973C328.631 840.973 332.915 840.973 331.084 842.803C329.254 844.634 327.868 854.244 327.868 854.244L309.347 856.583C307.675 854.146 306.285 851.528 305.202 848.778C302.762 843.121 305.66 843.693 308.126 843.121C310.592 842.549 309.029 840.985 306.118 839.142C303.207 837.299 304.846 833.18 304.846 833.18C304.846 833.18 309.283 825.68 307.758 825.07C306.232 824.46 306.067 813.909 306.067 813.909C306.067 813.909 303.016 801.362 303.779 798.006C304.541 794.65 301.325 786.565 301.325 786.565L300.257 776.93C296.998 771.449 295.824 764.977 296.952 758.701V743.815C296.952 743.815 292.668 715.06 292.046 700.594C291.664 691.289 291.766 678.59 291.893 670.657C291.969 666.221 292.046 663.272 292.046 663.272L358.148 656.395C358.254 659.695 358.658 662.98 359.356 666.208C360.029 669.831 361.084 674.534 362.737 680.407C367.479 697.225 364.58 709.772 364.58 709.772L363.97 731.027C363.97 731.027 369.779 745.251 368.559 750.095C367.805 753.004 367.379 755.989 367.288 758.993C367.288 758.993 380.292 790.048 378.919 799.074C377.546 808.099 383.216 822.261 383.216 822.261C383.216 822.261 384.741 832.43 383.216 835.125Z" fill="#464353"/>
<path opacity="0.05" d="M345.435 755.448L365.495 752.766C365.495 752.766 354.156 764.384 345.435 755.448Z" fill="black"/>
<path opacity="0.1" d="M362.635 733.113C362.635 733.113 363.334 740.219 358.974 742.902C358.974 742.902 366.766 741.681 362.635 733.113Z" fill="black"/>
<path opacity="0.1" d="M361.402 710.471C361.402 710.471 344.596 724.314 338.52 723.183C332.444 722.051 361.402 710.471 361.402 710.471Z" fill="black"/>
<path opacity="0.1" d="M320.494 761.942C320.494 761.942 307.782 764.853 307.35 769.976C306.918 775.099 320.494 761.942 320.494 761.942Z" fill="black"/>
<path opacity="0.05" d="M323.304 825.719C323.304 825.719 305.266 829.087 310.389 831.388C314.783 833.125 319.31 834.502 323.927 835.507C323.927 835.507 329.736 835.812 323.304 825.719Z" fill="black"/>
<g opacity="0.05">
<path opacity="0.05" d="M306.74 834.975C306.286 834.691 305.901 834.307 305.615 833.854C305.329 833.401 305.149 832.889 305.087 832.356L304.909 832.687C304.909 832.687 303.219 836.806 306.181 838.649C306.511 838.852 306.829 839.068 307.121 839.272C307.655 839.17 308.24 839.094 308.787 838.954C311.202 838.395 309.651 836.856 306.74 834.975Z" fill="black"/>
<path opacity="0.05" d="M329.99 833.805C330.486 833.347 330.461 832.165 330.168 830.652C329.429 832.011 329.073 833.544 329.139 835.089C329.32 834.601 329.612 834.162 329.99 833.805Z" fill="black"/>
<path opacity="0.05" d="M327.207 757.712C326.528 759.518 326.1 761.408 325.936 763.331C326.284 762.019 326.752 760.743 327.334 759.517C327.334 759.517 327.359 758.78 327.207 757.712Z" fill="black"/>
<path opacity="0.05" d="M368.533 749.677C368.653 749.126 368.709 748.563 368.699 747.999C368.47 749.143 368.317 750.211 368.203 751.139C368.305 750.656 368.406 750.173 368.533 749.677Z" fill="black"/>
<path opacity="0.05" d="M326.774 812.092C327.128 810.997 327.283 809.848 327.232 808.698C326.661 810.055 326.363 811.51 326.355 812.982C326.459 812.67 326.599 812.371 326.774 812.092Z" fill="black"/>
<path opacity="0.05" d="M330.563 840.922C329.618 843.993 328.917 847.134 328.465 850.316L309.969 852.464C308.292 850.031 306.901 847.412 305.825 844.659C305.628 844.22 305.454 843.77 305.304 843.312C304.198 843.82 303.753 844.964 305.215 848.397C306.288 851.147 307.679 853.762 309.359 856.189L327.842 854.041C327.842 854.041 329.228 844.405 331.058 842.6C331.961 841.621 331.389 841.163 330.563 840.922Z" fill="black"/>
<path opacity="0.05" d="M306.13 813.454C306.13 813.454 306.283 824.017 307.808 824.627C308.584 822.886 309.08 821.233 308.406 820.954C306.88 820.344 306.728 809.793 306.728 809.793C306.728 809.793 303.664 797.246 304.44 793.877C305.215 790.508 301.986 782.436 301.986 782.436L300.919 772.801C297.647 767.334 296.452 760.873 297.55 754.597V739.737C297.55 739.737 293.266 710.982 292.656 696.453C292.262 687.147 292.376 674.448 292.503 666.516C292.503 665.092 292.503 663.821 292.503 662.702H291.982C291.982 662.702 291.906 665.639 291.829 670.088C291.702 678.007 291.588 690.719 291.982 700.025C292.592 714.554 296.876 743.309 296.876 743.309V758.144C295.754 764.478 296.979 771.004 300.321 776.5L301.389 786.136C301.389 786.136 304.605 794.233 303.83 797.576C303.054 800.92 306.13 813.454 306.13 813.454Z" fill="black"/>
<path opacity="0.05" d="M360.575 848.335C359.073 846.158 358.074 843.674 357.652 841.063C355.758 842.767 357.931 849.39 359.965 852.009C361.999 854.627 378.016 856.445 381.08 851.386V848.475C376.936 852.581 362.609 850.941 360.575 848.335Z" fill="black"/>
<path opacity="0.05" d="M383.825 831.047C382.988 832.515 382.273 834.05 381.69 835.636V837.784C382.033 836.996 382.529 835.954 383.215 834.721C383.706 833.511 383.935 832.212 383.889 830.907L383.825 831.047Z" fill="black"/>
<path opacity="0.05" d="M361.516 833.461C362.101 832.284 362.606 831.07 363.029 829.826C363.029 829.826 360.487 830.436 356.292 825.542C353.292 821.982 353.126 815.258 353.546 810.859C352.783 813.465 351.55 824.321 355.682 829.215C358.389 832.432 360.41 833.258 361.516 833.461Z" fill="black"/>
<path opacity="0.05" d="M353.546 799.546C353.811 802.559 353.913 805.585 353.851 808.609C353.953 808.012 354.067 807.529 354.156 807.186C354.932 804.643 354.156 795.872 354.156 795.872C354.156 795.872 354.309 789.745 353.089 787.762C351.868 785.779 349.275 774.452 349.275 774.452C349.275 774.452 349.275 770.639 347.139 768.643C345.004 766.647 343.618 758.855 343.618 758.855C342.362 756.908 341.818 754.585 342.08 752.283C342.55 748.469 339.538 744.325 339.538 744.325L334.338 727.799L329.381 715.481L326.622 722.664C326.622 722.664 326.622 723.566 326.533 724.99L328.771 719.155L333.665 731.537L338.864 748.062C338.864 748.062 341.915 752.194 341.406 756.007C341.176 758.295 341.737 760.592 342.995 762.516C342.995 762.516 344.368 770.308 346.504 772.304C348.639 774.3 348.652 778.113 348.652 778.113C348.652 778.113 351.194 789.427 352.466 791.423C353.737 793.419 353.546 799.546 353.546 799.546Z" fill="black"/>
</g>
<path d="M366.385 518.127L365.241 523.72L365.304 526.263V528.093L358.948 528.754L358.237 527.483C356.965 525.093 354.169 520.225 353.279 519.475C352.097 518.483 349.999 502.949 352.516 503.877C354.061 504.47 355.33 505.616 356.076 507.093C356.076 507.093 368.648 508.415 366.385 518.127Z" fill="#F3BBC3"/>
<path opacity="0.1" d="M365.355 528.028L358.999 528.689L358.287 527.418C359.145 526.44 360.317 525.789 361.601 525.578C362.885 525.367 364.203 525.609 365.33 526.262L365.355 528.028Z" fill="black"/>
<path d="M366.957 531.055L358.554 533.012L358.376 531.741L357.893 528.372C358.352 527.76 358.928 527.246 359.587 526.858C360.246 526.47 360.976 526.216 361.734 526.112C362.492 526.008 363.263 526.056 364.002 526.252C364.741 526.448 365.435 526.788 366.041 527.254L366.461 528.97L366.957 531.055Z" fill="#DCE6F2"/>
<path d="M230.633 518.737L221.659 523.568L220.845 521.864C219.981 520.072 218.71 517.377 218.303 516.411C217.769 514.924 214.019 513.042 214.019 513.042C204.612 504.055 215.811 496.339 215.811 496.339C221.748 484.402 228.358 500.381 228.358 500.381C228.358 500.381 229.273 508.809 228.625 509.369C227.977 509.928 227.977 512.241 227.977 512.241C228.834 513.876 229.561 515.577 230.15 517.326C230.494 518.216 230.633 518.737 230.633 518.737Z" fill="#F3BBC3"/>
<path opacity="0.1" d="M230.633 518.737L221.658 523.567L220.845 521.864C222.116 520.809 226.604 517.16 228.078 517.326C228.788 517.398 229.504 517.398 230.214 517.326C230.493 518.216 230.633 518.737 230.633 518.737Z" fill="black"/>
<path d="M231.549 521.458L221.455 526.429L221.252 524.255L221.112 522.768C221.112 522.768 226.96 517.746 228.739 517.937C229.616 518.062 230.506 518.062 231.383 517.937L231.498 519.755L231.549 521.458Z" fill="#DCE6F2"/>
<path d="M341.914 555.218C341.914 555.218 297.893 560.189 306.117 557.519C311.85 555.651 314.126 552.015 314.609 547.973C314.829 544.503 314.269 541.028 312.969 537.803C311.926 535.025 310.606 532.359 309.028 529.845C309.028 529.845 342.677 511.337 335.952 528.167C334.906 530.709 334.262 533.398 334.046 536.138C333.839 538.854 334.127 541.585 334.897 544.197C336.174 548.448 338.603 552.263 341.914 555.218Z" fill="#F3BBC3"/>
<path opacity="0.1" d="M335.952 528.156C334.906 530.697 334.262 533.386 334.046 536.126C330.868 538.783 327.397 538.668 322.935 538.668C319.503 538.668 315.702 539.507 312.969 537.855C311.926 535.077 310.606 532.411 309.028 529.897C309.028 529.897 342.677 511.325 335.952 528.156Z" fill="black"/>
<path d="M322.337 539.79C332.391 539.79 340.541 531.64 340.541 521.586C340.541 511.533 332.391 503.383 322.337 503.383C312.284 503.383 304.134 511.533 304.134 521.586C304.134 531.64 312.284 539.79 322.337 539.79Z" fill="#F3BBC3"/>
<path opacity="0.1" d="M341.914 555.223C341.914 555.223 297.893 560.194 306.117 557.524C311.85 555.655 314.126 552.02 314.609 547.977C316.795 545.6 321.194 543.884 324.028 542.982C326.608 542.114 329.393 542.07 331.999 542.854C333.023 543.131 334 543.56 334.897 544.126C336.161 548.404 338.591 552.247 341.914 555.223Z" fill="black"/>
<path opacity="0.1" d="M366.957 531.054L358.554 533.012L358.376 531.741C359.274 530.502 360.532 529.571 361.98 529.075C363.427 528.579 364.992 528.542 366.461 528.969L366.957 531.054Z" fill="black"/>
<path opacity="0.1" d="M231.549 521.458L221.455 526.429L221.252 524.255C224.525 522.503 227.924 520.999 231.422 519.755L231.549 521.458Z" fill="black"/>
<path opacity="0.1" d="M359.33 666.144C342.283 668.826 318.016 672.335 314.164 671.165C310.974 670.186 300.779 670.288 291.893 670.593C291.969 666.156 292.045 663.207 292.045 663.207L358.148 656.33C358.245 659.63 358.641 662.915 359.33 666.144Z" fill="black"/>
<path d="M376.326 662.091C376.326 662.091 320.189 671.727 314.164 669.884C308.138 668.04 277.21 670.049 277.21 670.049C263.291 679.367 269.113 665.613 269.113 665.613C269.113 665.613 267.841 658.417 269.57 652.608C270.692 648.344 271.457 643.994 271.858 639.604C271.858 639.604 271.553 630.426 273.231 628.29C274.909 626.154 276.905 610.849 276.905 610.849C276.905 610.849 278.443 600.451 278.291 598.137C278.138 595.824 278.748 589.43 278.748 589.43L280.731 578.713C269.291 577.188 234.383 555.768 234.383 555.768C232.705 548.586 219.701 531.755 219.701 531.755C219.513 530.34 219.154 528.953 218.633 527.624C217.718 525.183 231.485 520.289 231.485 520.289C231.485 520.289 241.731 532.836 243.867 536.192C246.002 539.548 253.35 545.827 253.35 545.827C254.492 545.713 255.645 545.865 256.718 546.272H256.896C259.355 547.242 261.659 548.565 263.735 550.2C267.185 550.115 270.533 551.378 273.066 553.722C273.066 553.722 279.346 552.806 280.414 553.874C281.481 554.942 286.77 553.874 286.77 553.874C286.77 553.874 292.134 542.56 295.668 545.84C299.202 549.12 314.113 548.98 314.113 548.98C316.109 546.336 320.939 544.442 323.978 543.463C326.557 542.596 329.342 542.551 331.948 543.336C333.081 543.652 334.149 544.169 335.101 544.861L344.152 553.76C344.152 553.76 346.694 550.391 346.452 549.628C346.211 548.866 349.516 548.255 349.516 548.255C349.516 548.255 353.952 546.883 355.63 546.412C357.308 545.942 358.859 547.785 358.986 547.938C358.307 545.765 358.048 543.483 358.224 541.213C358.362 539.209 357.704 537.231 356.393 535.709C361.796 522.641 373.885 533.7 373.885 533.7C373.885 533.7 375.258 540.882 374.037 543.641C372.817 546.399 375.309 552.209 374.953 553.734C374.597 555.26 375.563 557.866 375.563 560.764C375.238 564.48 374.417 568.135 373.122 571.633C372.194 574.074 364.859 579.578 364.859 579.578C364.859 579.578 364.402 588.298 361.186 593.345C357.969 598.391 359.914 615.68 359.914 615.68C359.914 615.68 362.965 629.142 366.792 633.477C370.618 637.811 376.326 662.091 376.326 662.091Z" fill="#3F3D56"/>
<path opacity="0.1" d="M294.498 561.502C294.498 561.502 292.82 556.417 291.282 555.985C289.76 555.424 288.278 554.761 286.845 554.001L287.837 552.12C287.837 552.12 293.583 553.696 294.498 555.374C295.413 557.052 294.498 561.502 294.498 561.502Z" fill="black"/>
<path opacity="0.1" d="M263.799 550.327C263.494 551.865 249.892 553.238 249.892 553.238L256.769 546.335L256.947 546.399C259.411 547.367 261.719 548.69 263.799 550.327Z" fill="black"/>
<path d="M224.367 530.56C225.041 530.56 225.587 530.013 225.587 529.339C225.587 528.665 225.041 528.119 224.367 528.119C223.693 528.119 223.146 528.665 223.146 529.339C223.146 530.013 223.693 530.56 224.367 530.56Z" fill="#575988"/>
<path d="M225.93 533.013C226.604 533.013 227.151 532.467 227.151 531.793C227.151 531.119 226.604 530.572 225.93 530.572C225.256 530.572 224.71 531.119 224.71 531.793C224.71 532.467 225.256 533.013 225.93 533.013Z" fill="#575988"/>
<path d="M227.468 535.261C228.142 535.261 228.688 534.715 228.688 534.041C228.688 533.367 228.142 532.82 227.468 532.82C226.794 532.82 226.248 533.367 226.248 534.041C226.248 534.715 226.794 535.261 227.468 535.261Z" fill="#575988"/>
<path d="M229.07 537.717C229.744 537.717 230.291 537.171 230.291 536.497C230.291 535.823 229.744 535.276 229.07 535.276C228.396 535.276 227.85 535.823 227.85 536.497C227.85 537.171 228.396 537.717 229.07 537.717Z" fill="#575988"/>
<path d="M373.249 537.347C373.797 537.347 374.241 536.903 374.241 536.356C374.241 535.808 373.797 535.364 373.249 535.364C372.702 535.364 372.258 535.808 372.258 536.356C372.258 536.903 372.702 537.347 373.249 537.347Z" fill="#575988"/>
<path d="M373.402 539.611C373.95 539.611 374.393 539.167 374.393 538.619C374.393 538.072 373.95 537.628 373.402 537.628C372.854 537.628 372.41 538.072 372.41 538.619C372.41 539.167 372.854 539.611 373.402 539.611Z" fill="#575988"/>
<path d="M373.529 541.86C374.076 541.86 374.52 541.416 374.52 540.868C374.52 540.321 374.076 539.877 373.529 539.877C372.981 539.877 372.537 540.321 372.537 540.868C372.537 541.416 372.981 541.86 373.529 541.86Z" fill="#575988"/>
<path opacity="0.1" d="M294.574 602.94C294.434 602.762 328.897 646.301 355.681 621.144C355.681 621.144 313.375 626.877 294.574 602.94Z" fill="black"/>
<path opacity="0.1" d="M274.769 625.581C274.769 625.581 295.401 626.14 297.562 632.077V638.255C296.978 638.576 296.322 638.745 295.655 638.745C294.988 638.745 294.332 638.576 293.748 638.255C291.664 637.136 279.193 630.793 274.795 633.844L274.769 625.581Z" fill="black"/>
<path d="M275.151 625.581C275.151 625.581 294.88 626.115 296.952 631.772V637.67C296.389 637.979 295.758 638.142 295.115 638.142C294.473 638.142 293.841 637.979 293.278 637.67C291.283 636.59 279.295 630.551 275.151 633.462V625.581Z" fill="#3F3D56"/>
<path opacity="0.1" d="M286.032 580.733C288.139 585.609 290.824 590.213 294.028 594.45C297.517 599.14 301.751 603.228 306.562 606.551C306.562 606.551 286.375 583.619 286.032 580.733Z" fill="black"/>
<path opacity="0.1" d="M279.282 556.81C279.282 556.81 282.727 571.67 291.587 576.717L279.282 556.81Z" fill="black"/>
<path opacity="0.1" d="M273.968 558.309C273.879 558.03 270.905 570.055 285.409 576.716C285.409 576.716 279.282 574.632 273.968 558.309Z" fill="black"/>
<path opacity="0.1" d="M364.097 548.343C363.868 548.343 371.241 553.047 373.249 555.221C373.249 555.221 368.457 548.038 364.097 548.343Z" fill="black"/>
<path d="M317.418 538.073C317.559 539.044 318.063 539.925 318.829 540.539C319.365 540.793 319.951 540.923 320.545 540.92C326.1 541.264 331.871 541.505 337.07 539.37C338.044 539.036 338.918 538.463 339.613 537.704C340.345 536.482 340.804 535.116 340.96 533.7C341.685 530.98 343.223 528.615 344.329 525.971C346.185 521.595 346.805 516.794 346.121 512.09C345.984 510.644 345.509 509.251 344.736 508.022C343.261 505.924 340.579 505.073 338.634 503.395C336.689 501.717 335.431 499.162 333.168 497.903C331.011 496.943 328.596 496.728 326.303 497.293C321.765 498.071 317.416 499.706 313.49 502.111C312.218 502.924 310.718 503.852 309.206 503.573C307.907 503.157 306.792 502.303 306.053 501.157C304.971 503.65 304.504 506.366 304.693 509.077C304.756 509.473 304.756 509.876 304.693 510.272C304.498 510.749 304.208 511.181 303.841 511.543C302.468 513.132 301.617 515.649 302.964 517.251C303.562 517.95 304.464 518.331 305.036 519.043C306.066 520.314 305.71 522.158 305.684 523.797C305.635 524.366 305.778 524.935 306.091 525.412C306.389 525.686 306.753 525.879 307.147 525.973C307.541 526.066 307.952 526.057 308.341 525.946C309.115 525.713 309.927 525.635 310.731 525.717C311.586 526.003 312.32 526.567 312.816 527.319C315.333 530.573 316.337 534.145 317.418 538.073Z" fill="#2D293D"/>
<g opacity="0.1">
<path opacity="0.1" d="M340.071 536.304C339.378 537.063 338.503 537.632 337.528 537.957C332.443 540.105 326.621 539.851 321.079 539.508C320.485 539.519 319.896 539.388 319.363 539.126C318.59 538.522 318.081 537.643 317.939 536.673C316.859 532.745 315.867 529.16 313.299 525.906C312.807 525.15 312.071 524.585 311.214 524.304C310.41 524.223 309.598 524.3 308.825 524.533C308.435 524.644 308.024 524.653 307.63 524.56C307.236 524.466 306.872 524.273 306.575 523.999C306.26 523.523 306.121 522.952 306.18 522.384C306.18 520.745 306.549 518.901 305.519 517.63C304.947 516.918 304.045 516.537 303.447 515.838C303.065 515.315 302.831 514.699 302.771 514.055C302.71 513.41 302.825 512.761 303.104 512.177C302.125 513.728 301.706 515.711 302.837 517.058C303.435 517.757 304.337 518.139 304.909 518.851C305.939 520.122 305.583 521.965 305.558 523.605C305.508 524.173 305.651 524.742 305.964 525.219C306.262 525.495 306.625 525.688 307.019 525.782C307.413 525.875 307.825 525.866 308.214 525.753C308.988 525.521 309.8 525.443 310.604 525.524C311.459 525.81 312.193 526.374 312.689 527.126C315.231 530.393 316.248 533.965 317.329 537.893C317.47 538.864 317.974 539.745 318.74 540.359C319.276 540.613 319.863 540.743 320.456 540.741C326.011 541.084 331.782 541.325 336.982 539.19C337.953 538.853 338.827 538.281 339.524 537.524C339.87 537.082 340.137 536.583 340.312 536.05C340.236 536.139 340.185 536.241 340.071 536.304Z" fill="black"/>
<path opacity="0.1" d="M304.706 509.787C304.956 509.521 305.147 509.205 305.265 508.859C305.328 508.463 305.328 508.06 305.265 507.664C305.107 505.434 305.397 503.196 306.117 501.079L306.015 500.965C304.927 503.456 304.46 506.173 304.655 508.884C304.697 509.183 304.714 509.485 304.706 509.787Z" fill="black"/>
</g>
<path opacity="0.1" d="M314.164 549.105C314.164 549.105 336.906 552.118 338.952 548.698L314.164 549.105Z" fill="black"/>
<path opacity="0.1" d="M358.376 539.699C358.376 539.699 370.999 539.699 373.783 544.454L358.376 539.699Z" fill="black"/>
<defs>
<linearGradient id="paint0_linear" x1="297.435" y1="874.1" x2="297.435" y2="491.901" gradientUnits="userSpaceOnUse">
<stop stop-color="#808080" stop-opacity="0.25"/>
<stop offset="0.54" stop-color="#808080" stop-opacity="0.12"/>
<stop offset="1" stop-color="#808080" stop-opacity="0.1"/>
</linearGradient>
</defs>
</svg>
