<svg width="495" height="554" viewBox="0 0 495 554" fill="none" xmlns="http://www.w3.org/2000/svg">
<path d="M467.594 0.000935941H259.926C249.905 0.000925049 240.182 3.41036 232.356 9.6688C224.529 15.9272 219.065 24.6622 216.861 34.438L111.93 499.864C110.786 504.94 110.766 510.206 111.871 515.291C112.977 520.376 115.182 525.158 118.331 529.301C121.48 533.444 125.497 536.848 130.101 539.275C134.704 541.701 139.783 543.091 144.981 543.347L358.465 553.865C369.896 554.429 381.142 550.813 390.104 543.694C399.066 536.575 405.131 526.439 407.168 515.176L466.691 186.115L471.12 187.38L482.509 125.011L477.951 123.871L494.566 32.0186C495.277 28.0843 495.112 24.0416 494.082 20.1784C493.052 16.3153 491.183 12.7269 488.607 9.66916C486.031 6.6114 482.813 4.15955 479.181 2.48837C475.548 0.817201 471.592 -0.0321303 467.594 0.000929356L467.594 0.000935941Z" fill="#3F3D56"/>
<path d="M287.265 10.0361H263.024C256.063 10.0361 249.31 12.417 243.889 16.7835C238.467 21.15 234.701 27.2396 233.217 34.0411L132.498 495.67C131.918 498.327 131.919 501.079 132.5 503.737C133.081 506.394 134.229 508.895 135.865 511.068C137.501 513.242 139.586 515.036 141.98 516.33C144.373 517.623 147.017 518.385 149.731 518.563L362.525 532.509C368.528 532.903 374.466 531.072 379.206 527.366C383.945 523.661 387.155 518.34 388.221 512.419L474.165 35.2811C474.721 32.1929 474.593 29.0202 473.789 25.9869C472.986 22.9537 471.526 20.1338 469.513 17.7263C467.501 15.3188 464.984 13.3824 462.142 12.0536C459.299 10.7248 456.199 10.0361 453.061 10.0361H430.065C427.839 10.0361 425.675 10.7699 423.909 12.1238C422.142 13.4777 420.871 15.3762 420.292 17.5254C419.782 19.4227 418.66 21.0988 417.1 22.294C415.54 23.4893 413.63 24.137 411.665 24.137H302.493C298.645 24.137 294.939 22.6847 292.116 20.0704C289.293 17.4561 287.56 13.8725 287.265 10.0361V10.0361Z" fill="white"/>
<path d="M59.4888 247.481L78.2511 284.625L134.351 310.129C140.343 320.254 159.38 321.029 160.764 314.481C162.318 307.136 137.647 295.314 137.647 295.314L90.723 263.575L86.6173 236.253L59.4888 247.481Z" fill="#F3BBC3"/>
<path d="M61.7005 496.748L58.2405 524.429L78.3095 525.814L80.3852 496.748H61.7005Z" fill="#F3BBC3"/>
<path d="M64.4704 520.278C62.6763 518.381 61.0213 516.357 59.5182 514.222C56.642 510.242 54.09 530.659 54.09 530.659C54.09 530.659 51.3219 538.963 52.0139 543.115C52.7059 547.267 68.6227 547.267 71.3907 546.575C74.1588 545.883 87.9994 546.575 87.9994 546.575H108.76C126.753 538.271 108.76 532.735 108.76 532.735C103.224 532.043 84.5392 514.742 84.5392 514.742L80.3871 507.13C77.619 506.438 74.8508 516.818 74.8508 516.818L64.4704 520.278Z" fill="#2F2E41"/>
<path d="M9.7993 497.097L6.33838 524.778L26.4074 526.162L28.4839 497.097H9.7993Z" fill="#F3BBC3"/>
<path d="M12.5675 520.627C10.7735 518.73 9.11848 516.706 7.6154 514.571C4.73924 510.591 2.18715 531.007 2.18715 531.007C2.18715 531.007 -0.58098 538.62 0.111073 542.772C0.803126 546.924 16.7198 546.924 19.4879 546.232C22.256 545.54 36.0966 546.924 36.0966 546.924H56.8574C74.8502 538.62 56.8574 533.084 56.8574 533.084C51.3212 532.391 32.6364 515.091 32.6364 515.091L28.4842 507.478C25.7161 506.786 22.948 517.167 22.948 517.167L12.5675 520.627Z" fill="#2F2E41"/>
<path d="M32.6362 318.552C29.868 322.013 31.2521 333.777 31.2521 333.777C31.2521 333.777 26.4079 371.839 28.4839 375.299C30.56 378.759 27.0999 381.527 25.0238 386.371C22.9477 391.216 20.8716 402.98 20.8716 402.98C9.10711 412.668 9.79918 456.958 9.79918 456.958L5.64697 496.404C7.03103 500.556 26.4078 501.248 29.1759 500.556C31.9441 499.864 40.2484 437.581 40.2484 437.581L58.9332 402.288C58.9332 402.288 57.5491 496.404 57.5491 500.556C57.5491 504.708 76.2339 502.632 80.386 502.632C84.5382 502.632 84.5382 433.429 84.5382 433.429L88.6904 415.437L110.835 333.085V323.397L107.375 318.552C107.375 318.552 35.4043 315.092 32.6362 318.552Z" fill="#2F2E41"/>
<path d="M63.0862 161.462C74.9343 161.462 84.5391 151.858 84.5391 140.01C84.5391 128.161 74.9343 118.557 63.0862 118.557C51.2381 118.557 41.6333 128.161 41.6333 140.01C41.6333 151.858 51.2381 161.462 63.0862 161.462Z" fill="#F3BBC3"/>
<path d="M73.8121 150.041C69.4636 159.724 72.0385 173.249 80.7325 188.103L45.439 171.494L50.9752 166.65L49.5912 152.809L73.8121 150.041Z" fill="#F3BBC3"/>
<path d="M73.8116 172.185C78.4333 174.932 81.198 179.981 82.7851 185.118C85.7233 194.629 87.492 204.462 88.0519 214.401L89.7282 244.156L110.489 323.047C92.4964 338.271 82.1159 334.811 57.895 322.355C33.674 309.898 30.9059 326.507 30.9059 326.507C30.9059 326.507 28.8298 325.815 30.9059 323.739C32.982 321.663 30.9059 323.739 28.8298 321.663C26.7537 319.587 28.8298 321.663 29.5218 319.587C30.2139 317.511 29.5218 318.895 28.8298 318.203C28.1378 317.511 31.5979 311.282 31.5979 311.282L26.0616 259.38L19.1414 186.025C27.4457 175.645 50.9747 166.648 50.9747 166.648L72.4276 181.873C79.3478 184.641 73.8116 173.569 73.8116 173.569L73.8116 172.185Z" fill="white"/>
<path d="M7.72364 229.975L4.95557 271.496L40.249 322.014C40.249 333.779 46.4773 336.547 46.4773 336.547C48.8363 332.782 50.9179 328.85 52.7055 324.783C56.1657 317.17 50.6295 310.942 50.6295 310.942L26.4085 259.732L36.7889 234.127L7.72364 229.975Z" fill="#F3BBC3"/>
<path d="M19.4885 186.374C7.72401 190.526 5.64795 235.508 5.64795 235.508C19.4885 227.895 36.0972 240.352 36.0972 240.352C36.0972 240.352 39.5573 228.587 43.7095 213.363C44.9632 209.08 45.1131 204.55 44.1451 200.194C43.1771 195.838 41.1227 191.798 38.1733 188.45C38.1733 188.45 31.253 182.221 19.4885 186.374Z" fill="white"/>
<path d="M43.3634 146.581C46.0944 144.397 49.8202 148.368 49.8202 148.368L52.005 128.704C52.005 128.704 65.6603 130.343 74.3996 128.158C83.139 125.973 84.5045 136.078 84.5045 136.078C84.9551 131.998 85.0464 127.885 84.7776 123.789C84.2314 118.873 77.1307 113.957 64.5679 110.679C52.005 107.402 45.4505 121.604 45.4505 121.604C36.7111 125.973 40.6323 148.766 43.3634 146.581Z" fill="#2F2E41"/>
<path d="M408.025 332.751C408.442 332.767 408.851 332.633 409.178 332.374C409.504 332.115 409.728 331.747 409.807 331.338L457.522 71.6255C457.568 71.3783 457.558 71.1241 457.495 70.8808C457.432 70.6375 457.317 70.4108 457.157 70.2167C456.997 70.0226 456.797 69.8658 456.571 69.7571C456.344 69.6484 456.096 69.5905 455.845 69.5875L238.76 67.0586H238.741C238.349 67.06 237.969 67.1941 237.663 67.439C237.357 67.6838 237.143 68.0251 237.056 68.4071L180.806 319.69C180.751 319.935 180.751 320.19 180.804 320.435C180.858 320.681 180.965 320.912 181.117 321.112C181.27 321.312 181.464 321.477 181.687 321.594C181.909 321.711 182.155 321.778 182.406 321.79L408.025 332.751Z" fill="#2F2E41"/>
<path d="M219.106 349.341C218.911 349.341 218.722 349.407 218.57 349.528C218.417 349.649 218.31 349.819 218.266 350.008L216.262 358.601C216.233 358.723 216.232 358.849 216.257 358.971C216.282 359.093 216.334 359.209 216.408 359.309C216.482 359.41 216.577 359.493 216.686 359.553C216.795 359.613 216.916 359.649 217.041 359.658L330.302 367.708C330.512 367.721 330.719 367.658 330.886 367.53C331.053 367.402 331.169 367.218 331.21 367.012L333.138 357.071C333.162 356.95 333.159 356.826 333.131 356.706C333.102 356.586 333.049 356.474 332.973 356.377C332.898 356.28 332.803 356.2 332.694 356.143C332.585 356.085 332.465 356.052 332.343 356.045L219.158 349.343C219.141 349.342 219.123 349.341 219.106 349.341Z" fill="#E6E6E6"/>
<path d="M356.71 399.639C356.914 399.654 357.117 399.597 357.283 399.478C357.449 399.358 357.568 399.183 357.617 398.985L360.072 389.022C360.102 388.9 360.105 388.773 360.08 388.649C360.056 388.526 360.005 388.409 359.931 388.307C359.856 388.205 359.761 388.121 359.651 388.06C359.541 387.999 359.418 387.963 359.293 387.954L214.654 377.839C214.458 377.823 214.262 377.876 214.101 377.988C213.939 378.1 213.821 378.265 213.766 378.454L211.216 387.063C211.179 387.186 211.171 387.316 211.191 387.442C211.211 387.569 211.259 387.69 211.331 387.796C211.404 387.902 211.499 387.99 211.611 388.055C211.722 388.119 211.846 388.158 211.974 388.168L356.71 399.639Z" fill="#E6E6E6"/>
<path d="M348.942 431.569C349.146 431.586 349.35 431.529 349.516 431.409C349.682 431.289 349.8 431.114 349.849 430.915L352.304 420.953C352.334 420.831 352.336 420.703 352.312 420.58C352.288 420.456 352.237 420.34 352.163 420.238C352.088 420.136 351.993 420.052 351.883 419.991C351.773 419.93 351.65 419.894 351.525 419.885L206.886 409.769C206.69 409.754 206.494 409.806 206.333 409.919C206.171 410.031 206.053 410.195 205.998 410.385L203.448 418.993C203.411 419.116 203.403 419.246 203.423 419.373C203.443 419.5 203.491 419.621 203.563 419.727C203.636 419.833 203.731 419.921 203.843 419.985C203.954 420.05 204.078 420.088 204.206 420.098L348.942 431.569Z" fill="#E6E6E6"/>
<path d="M282.328 486.352C282.534 486.374 282.741 486.319 282.91 486.2C283.079 486.08 283.198 485.903 283.246 485.701L288.436 464.944C288.466 464.822 288.47 464.696 288.447 464.573C288.423 464.45 288.374 464.334 288.301 464.232C288.228 464.13 288.134 464.045 288.025 463.983C287.917 463.921 287.796 463.884 287.671 463.873L198.847 456.402C198.64 456.388 198.434 456.448 198.267 456.571C198.099 456.694 197.981 456.873 197.932 457.075L193.505 476.997C193.479 477.117 193.478 477.241 193.503 477.36C193.528 477.48 193.578 477.593 193.65 477.692C193.722 477.791 193.815 477.874 193.921 477.935C194.027 477.995 194.145 478.032 194.267 478.044L282.328 486.352Z" fill="#00A3FF"/>
</svg>
