<svg width="437" height="561" viewBox="0 0 437 561" fill="none" xmlns="http://www.w3.org/2000/svg">
<path d="M415.3 0.0485519L145.876 0.706879C134.805 0.73393 125.853 9.73046 125.88 20.8012L127.147 539.384C127.174 550.455 136.17 559.408 147.241 559.381L416.665 558.722C427.735 558.695 436.688 549.699 436.661 538.628L435.394 20.0449C435.367 8.97417 426.37 0.0215009 415.3 0.0485519Z" fill="#2F2E41"/>
<path d="M425.7 527.296C425.71 530.345 424.508 533.274 422.359 535.439C420.21 537.603 417.29 538.825 414.24 538.837L149.77 539.478C146.72 539.483 143.793 538.276 141.632 536.123C139.472 533.97 138.255 531.047 138.249 527.997L138.067 450.288L137.056 31.2821C137.046 28.2321 138.248 25.303 140.397 23.1387C142.546 20.9744 145.467 19.7519 148.517 19.74L203.831 19.6101C204.716 25.3993 207.641 30.6815 212.079 34.5032C216.516 38.3249 222.174 40.4344 228.03 40.4509L332.539 40.1999C338.411 40.1752 344.079 38.0475 348.517 34.2025C352.955 30.3575 355.869 25.0497 356.73 19.2413L412.908 19.1025C415.958 19.0985 418.885 20.3056 421.045 22.4585C423.205 24.6114 424.422 27.5339 424.428 30.5837L425.509 450.288L425.7 527.296Z" fill="white"/>
<path d="M425.699 532.579C425.736 535.666 424.545 538.642 422.389 540.852C420.232 543.063 417.286 544.326 414.199 544.366L148.798 545.02C145.711 544.997 142.759 543.75 140.591 541.552C138.423 539.354 137.216 536.385 137.237 533.297L137.056 453.951H425.509L425.699 532.579Z" fill="#E6E6E6"/>
<path d="M310.912 20.2603L245.153 21.2474C244.267 21.2607 243.56 21.9894 243.573 22.8749L243.59 23.9813C243.603 24.8669 244.332 25.574 245.217 25.5607L310.976 24.5736C311.862 24.5603 312.569 23.8316 312.556 22.9461L312.539 21.8397C312.526 20.9541 311.797 20.247 310.912 20.2603Z" fill="white"/>
<path d="M327.226 24.3225C328.656 24.3011 329.799 23.1239 329.777 21.6933C329.756 20.2626 328.579 19.1203 327.148 19.1418C325.717 19.1633 324.575 20.3404 324.597 21.771C324.618 23.2017 325.795 24.344 327.226 24.3225Z" fill="white"/>
<path d="M199.15 91.3789H161.512C156.862 91.3789 153.093 95.1482 153.093 99.798V137.436C153.093 142.086 156.862 145.855 161.512 145.855H199.15C203.8 145.855 207.569 142.086 207.569 137.436V99.798C207.569 95.1482 203.8 91.3789 199.15 91.3789Z" fill="#E6E6E6"/>
<path d="M266.394 91.3789H228.756C224.107 91.3789 220.337 95.1482 220.337 99.798V137.436C220.337 142.086 224.107 145.855 228.756 145.855H266.394C271.044 145.855 274.814 142.086 274.814 137.436V99.798C274.814 95.1482 271.044 91.3789 266.394 91.3789Z" fill="#E6E6E6"/>
<path d="M333.639 91.3789H296C291.351 91.3789 287.581 95.1482 287.581 99.798V137.436C287.581 142.086 291.351 145.855 296 145.855H333.639C338.288 145.855 342.058 142.086 342.058 137.436V99.798C342.058 95.1482 338.288 91.3789 333.639 91.3789Z" fill="#E6E6E6"/>
<path d="M400.883 91.3789H363.245C358.595 91.3789 354.826 95.1482 354.826 99.798V137.436C354.826 142.086 358.595 145.855 363.245 145.855H400.883C405.533 145.855 409.302 142.086 409.302 137.436V99.798C409.302 95.1482 405.533 91.3789 400.883 91.3789Z" fill="#E6E6E6"/>
<path d="M199.131 173.038H161.512C156.862 173.038 153.093 176.807 153.093 181.457V219.076C153.093 223.726 156.862 227.495 161.512 227.495H199.131C203.781 227.495 207.55 223.726 207.55 219.076V181.457C207.55 176.807 203.781 173.038 199.131 173.038Z" fill="#00A3FF"/>
<path d="M266.35 173.038H228.732C224.082 173.038 220.313 176.807 220.313 181.457V219.076C220.313 223.726 224.082 227.495 228.732 227.495H266.35C271 227.495 274.77 223.726 274.77 219.076V181.457C274.77 176.807 271 173.038 266.35 173.038Z" fill="#E6E6E6"/>
<path d="M333.571 173.038H295.952C291.302 173.038 287.533 176.807 287.533 181.457V219.076C287.533 223.726 291.302 227.495 295.952 227.495H333.571C338.22 227.495 341.99 223.726 341.99 219.076V181.457C341.99 176.807 338.22 173.038 333.571 173.038Z" fill="#E6E6E6"/>
<path d="M400.79 173.038H363.171C358.522 173.038 354.752 176.807 354.752 181.457V219.076C354.752 223.726 358.522 227.495 363.171 227.495H400.79C405.44 227.495 409.209 223.726 409.209 219.076V181.457C409.209 176.807 405.44 173.038 400.79 173.038Z" fill="#E6E6E6"/>
<path d="M199.15 254.807H161.512C156.862 254.807 153.093 258.576 153.093 263.226V300.864C153.093 305.513 156.862 309.283 161.512 309.283H199.15C203.8 309.283 207.569 305.513 207.569 300.864V263.226C207.569 258.576 203.8 254.807 199.15 254.807Z" fill="#E6E6E6"/>
<path d="M266.394 254.807H228.756C224.107 254.807 220.337 258.576 220.337 263.226V300.864C220.337 305.513 224.107 309.283 228.756 309.283H266.394C271.044 309.283 274.814 305.513 274.814 300.864V263.226C274.814 258.576 271.044 254.807 266.394 254.807Z" fill="#E6E6E6"/>
<path d="M333.639 254.807H296C291.351 254.807 287.581 258.576 287.581 263.226V300.864C287.581 305.513 291.351 309.283 296 309.283H333.639C338.288 309.283 342.058 305.513 342.058 300.864V263.226C342.058 258.576 338.288 254.807 333.639 254.807Z" fill="#E6E6E6"/>
<path d="M400.883 254.807H363.245C358.595 254.807 354.826 258.576 354.826 263.226V300.864C354.826 305.513 358.595 309.283 363.245 309.283H400.883C405.533 309.283 409.302 305.513 409.302 300.864V263.226C409.302 258.576 405.533 254.807 400.883 254.807Z" fill="#E6E6E6"/>
<path d="M199.15 336.521H161.512C156.862 336.521 153.093 340.291 153.093 344.941V382.579C153.093 387.228 156.862 390.998 161.512 390.998H199.15C203.8 390.998 207.569 387.228 207.569 382.579V344.941C207.569 340.291 203.8 336.521 199.15 336.521Z" fill="#E6E6E6"/>
<path d="M266.394 336.521H228.756C224.107 336.521 220.337 340.291 220.337 344.941V382.579C220.337 387.228 224.107 390.998 228.756 390.998H266.394C271.044 390.998 274.814 387.228 274.814 382.579V344.941C274.814 340.291 271.044 336.521 266.394 336.521Z" fill="#E6E6E6"/>
<path d="M333.639 336.521H296C291.351 336.521 287.581 340.291 287.581 344.941V382.579C287.581 387.228 291.351 390.998 296 390.998H333.639C338.288 390.998 342.058 387.228 342.058 382.579V344.941C342.058 340.291 338.288 336.521 333.639 336.521Z" fill="#E6E6E6"/>
<path d="M400.883 336.521H363.245C358.595 336.521 354.826 340.291 354.826 344.941V382.579C354.826 387.228 358.595 390.998 363.245 390.998H400.883C405.533 390.998 409.302 387.228 409.302 382.579V344.941C409.302 340.291 405.533 336.521 400.883 336.521Z" fill="#E6E6E6"/>
<path d="M197.192 471.634H157.451C152.801 471.634 149.032 475.403 149.032 480.053V519.794C149.032 524.444 152.801 528.213 157.451 528.213H197.192C201.842 528.213 205.611 524.444 205.611 519.794V480.053C205.611 475.403 201.842 471.634 197.192 471.634Z" fill="#00A3FF"/>
<path d="M267.032 471.635H227.291C222.641 471.635 218.872 475.404 218.872 480.054V519.795C218.872 524.445 222.641 528.214 227.291 528.214H267.032C271.682 528.214 275.451 524.445 275.451 519.795V480.054C275.451 475.404 271.682 471.635 267.032 471.635Z" fill="#00A3FF"/>
<path d="M336.873 471.635H297.132C292.482 471.635 288.713 475.404 288.713 480.054V519.795C288.713 524.445 292.482 528.214 297.132 528.214H336.873C341.523 528.214 345.292 524.445 345.292 519.795V480.054C345.292 475.404 341.523 471.635 336.873 471.635Z" fill="#00A3FF"/>
<path d="M406.713 471.635H366.971C362.322 471.635 358.552 475.404 358.552 480.054V519.795C358.552 524.445 362.322 528.214 366.971 528.214H406.713C411.362 528.214 415.132 524.445 415.132 519.795V480.054C415.132 475.404 411.362 471.635 406.713 471.635Z" fill="#00A3FF"/>
<path d="M139.804 190.973V203.374L125.029 225.023L139.804 234.64C139.804 234.64 146.371 209.339 149.912 206.361C149.912 206.361 155.472 202.394 158.498 196.937C161.524 191.481 160.011 172.626 145.357 189.493V191.479L139.804 190.973Z" fill="#F3BBC3"/>
<path d="M24.7025 213.337L30.5557 201.636C30.726 201.292 30.985 200.999 31.306 200.787C31.627 200.576 31.9985 200.454 32.3823 200.434L54.6006 199.299C54.9617 199.28 55.3218 199.351 55.6481 199.507C55.9744 199.663 56.2564 199.898 56.4685 200.191C56.6806 200.484 56.816 200.825 56.8622 201.184C56.9085 201.542 56.8642 201.907 56.7334 202.244L51.0012 217.063C50.8318 217.502 50.5242 217.873 50.1249 218.121C49.7257 218.37 49.2565 218.481 48.7882 218.439L26.4569 216.451C26.106 216.421 25.768 216.305 25.4719 216.115C25.1759 215.924 24.9308 215.664 24.758 215.357C24.5851 215.05 24.4897 214.706 24.4801 214.354C24.4704 214.002 24.5468 213.653 24.7025 213.337Z" fill="#F3BBC3"/>
<path d="M26.3463 208.315L22.5721 219.38L61.3279 217.989L46.4406 209.056L26.3463 208.315Z" fill="#EDEEF9"/>
<path d="M10.8535 329.244C12.41 336.9 11.4941 344.852 8.23794 351.954C2.7856 363.365 2.78559 375.292 9.72691 389.165L11.7146 461.107C11.7146 461.107 14.193 494.85 11.7146 501.795C9.2362 508.739 12.688 541.991 12.688 541.991H40.4757V519.659L49.8995 453.67V419.921L66.7985 455.152L47.4844 536.528L72.7849 546.951L104.537 455.654C104.537 455.654 99.0323 383.711 79.1874 358.909L75.4533 331.862L10.8535 329.244Z" fill="#3F3D56"/>
<path d="M12.2053 558.744V540.388H40.4838C40.4838 540.388 42.4714 547.832 55.3711 549.32C68.2707 550.808 49.416 559.744 49.416 559.744L12.2053 558.744Z" fill="#3F3D56"/>
<path d="M43.5548 550.523L48.478 532.819L72.963 540.597C72.963 540.597 75.6379 548.112 87.6683 553.005C95.8613 556.337 86.9362 560.169 86.9362 560.169L83.7153 561.001L43.5548 550.523Z" fill="#3F3D56"/>
<path opacity="0.1" d="M75.4567 333.348L10.8448 330.732C11.6451 334.585 11.8108 338.543 11.3356 342.449C14.2886 349.402 20.6302 347.501 20.6302 347.501L77.163 345.762L75.4567 333.348Z" fill="black"/>
<path d="M23.8671 215.262L21.2917 217.008C13.4989 222.286 7.41118 229.719 3.77146 238.399C0.131741 247.078 -0.902526 256.63 0.794871 265.888C0.794871 265.888 15.1835 294.053 10.7173 322.219C6.25122 350.385 20.6398 346.039 20.6398 346.039L77.4524 344.29L81.6692 258.868C81.6692 258.868 115.903 263.736 131.289 251.826L143.69 232.878L124.836 219.865L118.401 229.069C118.401 229.069 98.1954 224.804 87.0967 220.297C81.9206 218.185 76.4117 217.005 70.8246 216.812L23.8671 215.262Z" fill="white"/>
<path opacity="0.1" d="M24.3643 352.702C24.3643 352.702 20.8876 370.069 40.7406 398.846L24.3643 352.702Z" fill="black"/>
<path opacity="0.1" d="M81.8951 258.925C81.8951 258.925 105.709 250.987 116.129 250.987C126.548 250.987 124.812 255.486 124.812 255.486C124.812 255.486 108.218 262.893 81.8951 258.925Z" fill="black"/>
<path opacity="0.1" d="M54.9127 200.309L45.4329 201.443C45.1354 201.443 44.8612 201.854 44.7008 202.441C46.7855 206.199 49.3922 208.436 52.225 208.436C53.2359 208.421 54.2256 208.145 55.098 207.634L55.8196 203.248C56.0633 201.79 55.5806 200.228 54.9127 200.309Z" fill="black"/>
<path d="M48.2978 207.439C64.28 207.439 77.2361 194.483 77.2361 178.501C77.2361 162.519 64.28 149.562 48.2978 149.562C32.3156 149.562 19.3595 162.519 19.3595 178.501C19.3595 194.483 32.3156 207.439 48.2978 207.439Z" fill="#F3BBC3"/>
<path opacity="0.1" d="M72.915 162.116L71.434 163.452C70.8137 164.02 70.3465 164.735 70.0756 165.532C69.8047 166.328 69.7388 167.18 69.8839 168.008C70.0291 168.837 70.3807 169.615 70.9063 170.272C71.4319 170.929 72.1144 171.442 72.891 171.765C72.891 171.765 59.9264 184.73 58.1239 187.136C56.3214 189.543 58.4214 195.876 58.4214 195.876C58.4214 195.876 64.1512 206.426 34.0061 204.012C34.0061 204.012 14.1131 199.795 16.2218 172.966C16.4311 170.278 12.0051 163.309 25.2671 159.704C25.6644 155.938 27.2233 152.388 29.7279 149.548C32.2324 146.707 35.5585 144.716 39.2452 143.85C44.372 142.575 49.667 142.111 54.9375 142.474C59.8482 142.905 64.4189 145.162 67.7472 148.798C71.0755 152.435 72.9194 157.187 72.915 162.116Z" fill="black"/>
<path d="M73.5421 160.539C73.5421 160.539 76.6163 161.488 76.7614 171.572L72.3915 171.274C72.3915 171.274 62.2838 198.313 63.3462 194.788C67.2655 181.824 59.427 184.238 57.6165 186.652C55.806 189.066 57.9139 195.392 57.9139 195.392C57.9139 195.392 63.6437 205.942 33.4987 203.528C33.4987 203.528 13.6056 199.311 15.7144 172.482C15.9237 169.794 11.4976 162.825 24.7597 159.22C25.1537 155.456 26.708 151.907 29.2076 149.065C31.7071 146.224 35.0283 144.229 38.7113 143.358C43.8381 142.083 49.1331 141.619 54.4036 141.982C64.6099 142.843 73.5421 150.335 73.5421 160.539Z" fill="#72351C"/>
</svg>
