<svg width="30" height="30" viewBox="0 0 30 30" fill="none" xmlns="http://www.w3.org/2000/svg">
<circle cx="15" cy="15" r="15" fill="white" fill-opacity="0.1"/>
<g clip-path="url(#clip0)">
<path d="M21.207 7.19219H17.4829C16.5996 7.19219 15.8812 7.91068 15.8812 8.79391V12.518C15.8812 13.4013 16.5996 14.1198 17.4829 14.1198H21.207C22.0902 14.1198 22.8087 13.4013 22.8087 12.518V8.79391C22.8087 7.91068 22.0902 7.19219 21.207 7.19219ZM22.088 12.518C22.088 13.0037 21.6927 13.3991 21.207 13.3991H17.4829C16.9972 13.3991 16.6018 13.0037 16.6018 12.518V8.79391C16.6018 8.30822 16.9972 7.91288 17.4829 7.91288H21.207C21.6927 7.91288 22.088 8.30822 22.088 8.79391V12.518Z" fill="white" stroke="white" stroke-width="0.1"/>
<path d="M12.5171 15.8797H10.0344C9.15116 15.8797 8.43267 16.5982 8.43267 17.4814V19.9642C8.43267 20.8474 9.15116 21.5659 10.0344 21.5659H12.5171C13.4004 21.5659 14.1189 20.8474 14.1189 19.9642V17.4814C14.1189 16.5982 13.4004 15.8797 12.5171 15.8797ZM13.3982 19.9642C13.3982 20.4499 13.0028 20.8452 12.5171 20.8452H10.0344C9.54869 20.8452 9.15336 20.4499 9.15336 19.9642V17.4814C9.15336 16.9957 9.54869 16.6004 10.0344 16.6004H12.5171C13.0028 16.6004 13.3982 16.9957 13.3982 17.4814V19.9642Z" fill="white" stroke="white" stroke-width="0.1"/>
<path d="M22.4484 15.8797H17.4829C16.5996 15.8797 15.8812 16.5982 15.8812 17.4814V22.4469C15.8812 23.3302 16.5996 24.0487 17.4829 24.0487H22.4484C23.3316 24.0487 24.0501 23.3302 24.0501 22.4469V17.4814C24.0501 16.5982 23.3316 15.8797 22.4484 15.8797ZM23.3294 22.4469C23.3294 22.9326 22.9341 23.328 22.4484 23.328H17.4829C16.9972 23.328 16.6018 22.9326 16.6018 22.4469V17.4814C16.6018 16.9957 16.9972 16.6004 17.4829 16.6004H22.4484C22.9341 16.6004 23.3294 16.9957 23.3294 17.4814V22.4469Z" fill="white" stroke="white" stroke-width="0.1"/>
<path d="M12.5172 5.95H7.55172C6.66849 5.95 5.95 6.66849 5.95 7.55172V12.5172C5.95 13.4005 6.66849 14.119 7.55172 14.119H12.5172C13.4005 14.119 14.119 13.4005 14.119 12.5172V7.55172C14.119 6.66849 13.4005 5.95 12.5172 5.95ZM13.3983 12.5172C13.3983 13.0029 13.0029 13.3983 12.5172 13.3983H7.55172C7.06603 13.3983 6.67069 13.0029 6.67069 12.5172V7.55172C6.67069 7.06603 7.06603 6.67069 7.55172 6.67069H12.5172C13.0029 6.67069 13.3983 7.06603 13.3983 7.55172V12.5172Z" fill="white" stroke="white" stroke-width="0.1"/>
</g>
<defs>
<clipPath id="clip0">
<rect width="18" height="18" fill="white" transform="translate(6 6)"/>
</clipPath>
</defs>
</svg>
