<svg width="192" height="44" viewBox="0 0 192 44" fill="none" xmlns="http://www.w3.org/2000/svg">
<path d="M24.6168 15.3365C25.0022 14.6993 25.6926 14.31 26.4373 14.31H47.778C48.1902 14.31 48.5244 14.6442 48.5244 15.0564C48.5244 24.1057 41.1885 31.4416 32.1391 31.4416H24.2148C20.1136 31.4416 17.5868 26.9604 19.7091 23.4512L24.6168 15.3365Z" stroke="white" stroke-width="3.31922"/>
<path d="M22.3213 1.95722C28.0609 7.67611 27.3348 15.315 22.8739 21.2853L21.2404 17.5619C24.0467 13.7803 23.431 8.21146 19.8025 4.59611C18.641 3.43878 18.4926 1.91722 19.5555 0.850456C20.6184 -0.216303 21.1597 0.799878 22.3213 1.95722Z" fill="white"/>
<path d="M26.7046 35.3667C26.7046 35.7895 26.6213 36.2081 26.4595 36.5986C26.2978 36.9892 26.0607 37.3441 25.7617 37.643C25.4628 37.9419 25.1079 38.179 24.7174 38.3408C24.3268 38.5026 23.9082 38.5858 23.4855 38.5858C23.0627 38.5858 22.6441 38.5026 22.2536 38.3408C21.863 38.179 21.5081 37.9419 21.2092 37.643C20.9103 37.3441 20.6732 36.9892 20.5114 36.5986C20.3496 36.2081 20.2664 34.8427 20.2664 34.4199L23.4855 34.4199L26.7046 34.4199V35.3667Z" fill="white"/>
<path d="M35.7932 35.3667C35.7932 35.7895 35.7099 36.2081 35.5482 36.5986C35.3864 36.9892 35.1493 37.3441 34.8504 37.643C34.5514 37.9419 34.1966 38.179 33.806 38.3408C33.4154 38.5026 32.9968 38.5858 32.5741 38.5858C32.1514 38.5858 31.7328 38.5026 31.3422 38.3408C30.9516 38.179 30.5968 37.9419 30.2978 37.643C29.9989 37.3441 29.7618 36.9892 29.6 36.5986C29.4382 36.2081 29.355 34.8427 29.355 34.4199L32.5741 34.4199L35.7932 34.4199V35.3667Z" fill="white"/>
<path d="M63.9752 33.5362C62.7903 33.5362 61.7256 33.3511 60.7814 32.9808C59.8371 32.5919 59.0872 32.0365 58.5318 31.3144C57.9763 30.5738 57.6986 29.7036 57.6986 28.7037C57.6986 28.5741 57.7171 28.3427 57.7541 28.0094H60.8925C60.8184 28.8611 61.0684 29.574 61.6423 30.1479C62.2163 30.7034 63.0402 30.9811 64.1141 30.9811C65.262 30.9811 66.16 30.7497 66.8081 30.2868C67.4561 29.8054 67.7801 29.1203 67.7801 28.2316C67.7801 27.6947 67.6135 27.241 67.2802 26.8707C66.9654 26.4819 66.5581 26.1579 66.0582 25.8987C65.5768 25.6395 64.901 25.334 64.0308 24.9822C62.8828 24.5008 61.9663 24.0657 61.2813 23.6769C60.5962 23.2881 60.0037 22.7511 59.5038 22.0661C59.0224 21.381 58.7817 20.52 58.7817 19.4832C58.7817 18.3352 59.078 17.3354 59.6705 16.4837C60.2629 15.6135 61.0776 14.947 62.1145 14.4841C63.1698 14.0212 64.3548 13.7898 65.6694 13.7898C66.984 13.7898 68.1134 14.012 69.0577 14.4563C70.0204 14.8822 70.7425 15.4932 71.2239 16.2893C71.7238 17.067 71.946 17.9835 71.8905 19.0388H68.5577C68.6318 18.2797 68.4004 17.6502 67.8634 17.1503C67.3265 16.6319 66.5488 16.3726 65.5305 16.3726C64.4566 16.3726 63.5957 16.6226 62.9476 17.1225C62.3181 17.6039 62.0034 18.2612 62.0034 19.0944C62.0034 19.6128 62.1608 20.0664 62.4755 20.4552C62.8088 20.8255 63.2254 21.1496 63.7253 21.4273C64.2252 21.6865 64.901 22.0013 65.7527 22.3716C66.9006 22.89 67.8171 23.3529 68.5022 23.7602C69.2058 24.1675 69.8075 24.723 70.3074 25.4266C70.8073 26.1116 71.0573 26.9633 71.0573 27.9817C71.0573 29.0555 70.7611 30.0183 70.1686 30.87C69.5761 31.7032 68.7429 32.3605 67.669 32.8419C66.5951 33.3048 65.3639 33.5362 63.9752 33.5362ZM87.2895 20.5895L85.0446 33.3418H82.4062L82.6607 31.8374C82.1516 32.362 81.5344 32.7786 80.8092 33.0872C80.0995 33.3804 79.3666 33.5269 78.6105 33.5269C77.2682 33.5269 76.1959 33.1644 75.3935 32.4392C74.5912 31.714 74.19 30.688 74.19 29.361C74.19 29.0062 74.2286 28.5819 74.3058 28.0881L75.625 20.5895H78.2402L76.9905 27.6947C76.9288 28.1267 76.8979 28.4353 76.8979 28.6204C76.8979 29.469 77.1293 30.1171 77.5922 30.5645C78.0705 31.012 78.7263 31.2357 79.5594 31.2357C80.5315 31.2357 81.357 30.9503 82.0359 30.3794C82.7147 29.7931 83.1622 28.9522 83.3782 27.8567L84.6511 20.5895H87.2895ZM93.0157 22.8344C93.5403 22.063 94.1574 21.4612 94.8672 21.0292C95.5924 20.5972 96.3947 20.3812 97.2742 20.3812L96.7881 23.1122H96.117C95.0986 23.1122 94.2809 23.3667 93.6637 23.8759C93.0465 24.3851 92.6145 25.2646 92.3676 26.5143L91.1642 33.3418H88.5257L90.7707 20.5895H93.4091L93.0157 22.8344ZM101.111 29.8008C101.08 30.0168 101.065 30.1556 101.065 30.2174C101.065 30.5414 101.165 30.7805 101.366 30.9348C101.566 31.0737 101.898 31.1431 102.361 31.1431H103.981L103.588 33.3418H101.505C100.486 33.3418 99.7071 33.1412 99.1671 32.7401C98.6271 32.3235 98.3571 31.6677 98.3571 30.7728C98.3571 30.4334 98.3879 30.1094 98.4496 29.8008L99.6994 22.7419H98.195L98.5653 20.5895H100.093L100.648 17.4187H103.31L102.754 20.5895H105.833L105.462 22.7419H102.361L101.111 29.8008ZM109.908 18.9C109.491 18.9 109.151 18.7688 108.889 18.5065C108.627 18.2442 108.496 17.9125 108.496 17.5113C108.496 16.9713 108.696 16.5084 109.097 16.1227C109.514 15.7215 109.985 15.5209 110.509 15.5209C110.926 15.5209 111.258 15.6521 111.504 15.9144C111.767 16.1767 111.898 16.5084 111.898 16.9096C111.898 17.4496 111.697 17.9202 111.296 18.3214C110.895 18.7071 110.432 18.9 109.908 18.9ZM110.903 20.5895L108.658 33.3418H106.019L108.264 20.5895H110.903ZM119.227 33.5362C118.042 33.5362 116.977 33.3511 116.033 32.9808C115.089 32.5919 114.339 32.0365 113.783 31.3144C113.228 30.5738 112.95 29.7036 112.95 28.7037C112.95 28.5741 112.969 28.3427 113.006 28.0094H116.144C116.07 28.8611 116.32 29.574 116.894 30.1479C117.468 30.7034 118.292 30.9811 119.366 30.9811C120.514 30.9811 121.412 30.7497 122.06 30.2868C122.708 29.8054 123.032 29.1203 123.032 28.2316C123.032 27.6947 122.865 27.241 122.532 26.8707C122.217 26.4819 121.81 26.1579 121.31 25.8987C120.829 25.6395 120.153 25.334 119.282 24.9822C118.135 24.5008 117.218 24.0657 116.533 23.6769C115.848 23.2881 115.255 22.7511 114.756 22.0661C114.274 21.381 114.033 20.52 114.033 19.4832C114.033 18.3352 114.33 17.3354 114.922 16.4837C115.515 15.6135 116.329 14.947 117.366 14.4841C118.422 14.0212 119.607 13.7898 120.921 13.7898C122.236 13.7898 123.365 14.012 124.309 14.4563C125.272 14.8822 125.994 15.4932 126.476 16.2893C126.976 17.067 127.198 17.9835 127.142 19.0388H123.809C123.884 18.2797 123.652 17.6502 123.115 17.1503C122.578 16.6319 121.801 16.3726 120.782 16.3726C119.708 16.3726 118.847 16.6226 118.199 17.1225C117.57 17.6039 117.255 18.2612 117.255 19.0944C117.255 19.6128 117.412 20.0664 117.727 20.4552C118.06 20.8255 118.477 21.1496 118.977 21.4273C119.477 21.6865 120.153 22.0013 121.004 22.3716C122.152 22.89 123.069 23.3529 123.754 23.7602C124.457 24.1675 125.059 24.723 125.559 25.4266C126.059 26.1116 126.309 26.9633 126.309 27.9817C126.309 29.0555 126.013 30.0183 125.42 30.87C124.828 31.7032 123.995 32.3605 122.921 32.8419C121.847 33.3048 120.616 33.5362 119.227 33.5362ZM137.635 20.3812C138.915 20.3812 139.941 20.7438 140.713 21.4689C141.484 22.1787 141.87 23.197 141.87 24.5239C141.87 24.8788 141.831 25.3108 141.754 25.82L140.412 33.3418H137.797L139.07 26.2135C139.131 25.7814 139.162 25.4728 139.162 25.2877C139.162 24.4391 138.923 23.7911 138.445 23.3436C137.982 22.8962 137.334 22.6724 136.501 22.6724C135.498 22.6724 134.649 22.981 133.955 23.5982C133.276 24.1999 132.844 25.0717 132.659 26.2135V26.1672L131.386 33.3418H128.747L131.779 16.2153H134.418L133.376 22.0707C133.916 21.5307 134.557 21.1141 135.297 20.8209C136.038 20.5278 136.817 20.3812 137.635 20.3812ZM144.032 26.9078C144.263 25.6271 144.726 24.4931 145.421 23.5056C146.13 22.5181 146.994 21.7544 148.013 21.2144C149.031 20.6589 150.096 20.3812 151.207 20.3812C152.21 20.3812 153.05 20.5818 153.729 20.9829C154.408 21.3687 154.917 21.8547 155.257 22.441L155.581 20.5895H158.242L155.997 33.3418H153.336L153.683 31.444C153.128 32.0457 152.426 32.5472 151.577 32.9483C150.744 33.3495 149.833 33.5501 148.846 33.5501C147.889 33.5501 147.033 33.3341 146.277 32.9021C145.536 32.47 144.95 31.8606 144.518 31.0737C144.101 30.2714 143.893 29.3533 143.893 28.3196C143.893 27.8567 143.939 27.3861 144.032 26.9078ZM154.47 26.9541C154.532 26.6609 154.563 26.3446 154.563 26.0052C154.563 24.9714 154.254 24.1614 153.637 23.575C153.035 22.9733 152.279 22.6724 151.369 22.6724C150.69 22.6724 150.026 22.8421 149.378 23.1816C148.73 23.5056 148.167 23.9916 147.689 24.6397C147.21 25.2723 146.894 26.0283 146.74 26.9078C146.678 27.2009 146.647 27.5172 146.647 27.8567C146.647 28.9059 146.948 29.7391 147.55 30.3562C148.167 30.958 148.931 31.2588 149.841 31.2588C150.52 31.2588 151.184 31.0891 151.832 30.7497C152.48 30.4102 153.043 29.9165 153.521 29.2685C153.999 28.605 154.316 27.8335 154.47 26.9541ZM164.022 22.4641C164.578 21.8778 165.272 21.3841 166.105 20.9829C166.954 20.5818 167.864 20.3812 168.836 20.3812C169.808 20.3812 170.672 20.5895 171.428 21.0061C172.184 21.4227 172.771 22.0167 173.187 22.7881C173.604 23.5596 173.812 24.4622 173.812 25.496C173.812 25.9434 173.766 26.414 173.673 26.9078C173.442 28.1884 172.971 29.3379 172.262 30.3562C171.567 31.3591 170.711 32.146 169.693 32.7169C168.69 33.2724 167.633 33.5501 166.522 33.5501C165.55 33.5501 164.717 33.3572 164.022 32.9715C163.343 32.5703 162.811 32.0766 162.425 31.4903L161.037 39.4055H158.398L161.708 20.5895H164.346L164.022 22.4641ZM170.989 26.9078C171.05 26.6146 171.081 26.2983 171.081 25.9589C171.081 24.9251 170.773 24.1228 170.155 23.5519C169.554 22.9656 168.79 22.6724 167.864 22.6724C167.201 22.6724 166.537 22.8421 165.874 23.1816C165.226 23.521 164.663 24.0148 164.184 24.6628C163.706 25.3108 163.39 26.0746 163.235 26.9541C163.174 27.2472 163.143 27.5635 163.143 27.903C163.143 28.9367 163.444 29.7545 164.045 30.3562C164.663 30.958 165.426 31.2588 166.337 31.2588C167.016 31.2588 167.679 31.0891 168.327 30.7497C168.991 30.3948 169.561 29.8856 170.04 29.2222C170.518 28.5587 170.834 27.7872 170.989 26.9078ZM179.708 22.4641C180.263 21.8778 180.958 21.3841 181.791 20.9829C182.639 20.5818 183.55 20.3812 184.522 20.3812C185.494 20.3812 186.358 20.5895 187.114 21.0061C187.87 21.4227 188.456 22.0167 188.873 22.7881C189.289 23.5596 189.498 24.4622 189.498 25.496C189.498 25.9434 189.451 26.414 189.359 26.9078C189.127 28.1884 188.657 29.3379 187.947 30.3562C187.253 31.3591 186.396 32.146 185.378 32.7169C184.375 33.2724 183.318 33.5501 182.207 33.5501C181.235 33.5501 180.402 33.3572 179.708 32.9715C179.029 32.5703 178.497 32.0766 178.111 31.4903L176.722 39.4055H174.084L177.393 20.5895H180.032L179.708 22.4641ZM186.674 26.9078C186.736 26.6146 186.767 26.2983 186.767 25.9589C186.767 24.9251 186.458 24.1228 185.841 23.5519C185.239 22.9656 184.475 22.6724 183.55 22.6724C182.886 22.6724 182.223 22.8421 181.559 23.1816C180.911 23.521 180.348 24.0148 179.87 24.6628C179.391 25.3108 179.075 26.0746 178.921 26.9541C178.859 27.2472 178.828 27.5635 178.828 27.903C178.828 28.9367 179.129 29.7545 179.731 30.3562C180.348 30.958 181.112 31.2588 182.022 31.2588C182.701 31.2588 183.364 31.0891 184.013 30.7497C184.676 30.3948 185.247 29.8856 185.725 29.2222C186.203 28.5587 186.52 27.7872 186.674 26.9078Z" fill="white"/>
<rect x="0.991211" y="14.4961" width="3.4" height="17" rx="1.7" transform="rotate(-90 0.991211 14.4961)" fill="url(#paint0_linear)"/>
<rect x="4.05078" y="19.5977" width="3.4" height="10.2" rx="1.7" transform="rotate(-90 4.05078 19.5977)" fill="url(#paint1_linear)"/>
<rect x="2.91821" y="9.40039" width="3.4" height="13.6" rx="1.7" transform="rotate(-90 2.91821 9.40039)" fill="url(#paint2_linear)"/>
<defs>
<linearGradient id="paint0_linear" x1="2.69121" y1="14.4961" x2="2.69121" y2="31.4961" gradientUnits="userSpaceOnUse">
<stop stop-color="#00A3FF" stop-opacity="0"/>
<stop offset="1" stop-color="white"/>
</linearGradient>
<linearGradient id="paint1_linear" x1="5.75078" y1="19.5977" x2="5.75078" y2="29.7977" gradientUnits="userSpaceOnUse">
<stop stop-color="#00A3FF" stop-opacity="0"/>
<stop offset="1" stop-color="white"/>
</linearGradient>
<linearGradient id="paint2_linear" x1="4.61821" y1="9.40039" x2="4.61821" y2="23.0004" gradientUnits="userSpaceOnUse">
<stop stop-color="#00A3FF" stop-opacity="0"/>
<stop offset="1" stop-color="white"/>
</linearGradient>
</defs>
</svg>
