<svg width="181" height="44" viewBox="0 0 181 44" fill="none" xmlns="http://www.w3.org/2000/svg">
<path d="M13.6256 15.3365C14.011 14.6993 14.7014 14.31 15.4461 14.31H36.7868C37.199 14.31 37.5332 14.6442 37.5332 15.0564C37.5332 24.1057 30.1973 31.4416 21.1479 31.4416H13.2235C9.12241 31.4416 6.59557 26.9604 8.71793 23.4512L13.6256 15.3365Z" stroke="white" stroke-width="3.31922"/>
<path d="M11.3301 1.95722C17.0697 7.67611 16.3436 15.315 11.8827 21.2853L10.2491 17.5619C13.0555 13.7803 12.4398 8.21146 8.81133 4.59611C7.64979 3.43878 7.50134 1.91722 8.56424 0.850456C9.62714 -0.216303 10.1685 0.799878 11.3301 1.95722Z" fill="white"/>
<path d="M15.7134 35.3667C15.7134 35.7895 15.6301 36.2081 15.4683 36.5986C15.3066 36.9892 15.0694 37.3441 14.7705 37.643C14.4716 37.9419 14.1167 38.179 13.7262 38.3408C13.3356 38.5026 12.917 38.5858 12.4943 38.5858C12.0715 38.5858 11.6529 38.5026 11.2624 38.3408C10.8718 38.179 10.5169 37.9419 10.218 37.643C9.91908 37.3441 9.68196 36.9892 9.52019 36.5986C9.35841 36.2081 9.27515 34.8427 9.27515 34.4199L12.4943 34.4199L15.7134 34.4199V35.3667Z" fill="white"/>
<path d="M24.802 35.3667C24.802 35.7895 24.7187 36.2081 24.557 36.5986C24.3952 36.9892 24.1581 37.3441 23.8591 37.643C23.5602 37.9419 23.2053 38.179 22.8148 38.3408C22.4242 38.5026 22.0056 38.5858 21.5829 38.5858C21.1601 38.5858 20.7415 38.5026 20.351 38.3408C19.9604 38.179 19.6055 37.9419 19.3066 37.643C19.0077 37.3441 18.7706 36.9892 18.6088 36.5986C18.447 36.2081 18.3638 34.8427 18.3638 34.4199L21.5829 34.4199L24.802 34.4199V35.3667Z" fill="white"/>
<path d="M52.984 33.5362C51.7991 33.5362 50.7344 33.3511 49.7902 32.9808C48.8459 32.5919 48.096 32.0365 47.5406 31.3144C46.9851 30.5738 46.7074 29.7036 46.7074 28.7037C46.7074 28.5741 46.7259 28.3427 46.7629 28.0094H49.9013C49.8272 28.8611 50.0771 29.574 50.6511 30.1479C51.2251 30.7034 52.049 30.9811 53.1229 30.9811C54.2708 30.9811 55.1688 30.7497 55.8169 30.2868C56.4649 29.8054 56.7889 29.1203 56.7889 28.2316C56.7889 27.6947 56.6223 27.241 56.289 26.8707C55.9742 26.4819 55.5669 26.1579 55.067 25.8987C54.5856 25.6395 53.9098 25.334 53.0396 24.9822C51.8916 24.5008 50.9751 24.0657 50.2901 23.6769C49.605 23.2881 49.0125 22.7511 48.5126 22.0661C48.0312 21.381 47.7905 20.52 47.7905 19.4832C47.7905 18.3352 48.0868 17.3354 48.6793 16.4837C49.2717 15.6135 50.0864 14.947 51.1233 14.4841C52.1786 14.0212 53.3636 13.7898 54.6782 13.7898C55.9927 13.7898 57.1222 14.012 58.0664 14.4563C59.0292 14.8822 59.7513 15.4932 60.2327 16.2893C60.7326 17.067 60.9548 17.9835 60.8993 19.0388H57.5665C57.6406 18.2797 57.4092 17.6502 56.8722 17.1503C56.3353 16.6319 55.5576 16.3726 54.5393 16.3726C53.4654 16.3726 52.6045 16.6226 51.9564 17.1225C51.3269 17.6039 51.0122 18.2612 51.0122 19.0944C51.0122 19.6128 51.1695 20.0664 51.4843 20.4552C51.8176 20.8255 52.2342 21.1496 52.7341 21.4273C53.234 21.6865 53.9098 22.0013 54.7615 22.3716C55.9094 22.89 56.8259 23.3529 57.511 23.7602C58.2146 24.1675 58.8163 24.723 59.3162 25.4266C59.8161 26.1116 60.0661 26.9633 60.0661 27.9817C60.0661 29.0555 59.7698 30.0183 59.1774 30.87C58.5849 31.7032 57.7517 32.3605 56.6778 32.8419C55.6039 33.3048 54.3727 33.5362 52.984 33.5362ZM76.2983 20.5895L74.0534 33.3418H71.4149L71.6695 31.8374C71.1604 32.362 70.5432 32.7786 69.818 33.0872C69.1083 33.3804 68.3754 33.5269 67.6193 33.5269C66.277 33.5269 65.2046 33.1644 64.4023 32.4392C63.6 31.714 63.1988 30.688 63.1988 29.361C63.1988 29.0062 63.2374 28.5819 63.3146 28.0881L64.6338 20.5895H67.249L65.9993 27.6947C65.9375 28.1267 65.9067 28.4353 65.9067 28.6204C65.9067 29.469 66.1381 30.1171 66.601 30.5645C67.0793 31.012 67.7351 31.2357 68.5682 31.2357C69.5403 31.2357 70.3658 30.9503 71.0446 30.3794C71.7235 29.7931 72.171 28.9522 72.387 27.8567L73.6599 20.5895H76.2983ZM82.0245 22.8344C82.5491 22.063 83.1662 21.4612 83.876 21.0292C84.6012 20.5972 85.4035 20.3812 86.283 20.3812L85.7969 23.1122H85.1258C84.1074 23.1122 83.2897 23.3667 82.6725 23.8759C82.0553 24.3851 81.6233 25.2646 81.3764 26.5143L80.1729 33.3418H77.5345L79.7795 20.5895H82.4179L82.0245 22.8344ZM90.12 29.8008C90.0891 30.0168 90.0737 30.1556 90.0737 30.2174C90.0737 30.5414 90.174 30.7805 90.3746 30.9348C90.5751 31.0737 90.9069 31.1431 91.3697 31.1431H92.9898L92.5964 33.3418H90.5134C89.4951 33.3418 88.7159 33.1412 88.1759 32.7401C87.6359 32.3235 87.3658 31.6677 87.3658 30.7728C87.3658 30.4334 87.3967 30.1094 87.4584 29.8008L88.7082 22.7419H87.2038L87.5741 20.5895H89.1016L89.6571 17.4187H92.3187L91.7632 20.5895H94.8413L94.471 22.7419H91.3697L90.12 29.8008ZM98.9163 18.9C98.4997 18.9 98.1603 18.7688 97.898 18.5065C97.6357 18.2442 97.5045 17.9125 97.5045 17.5113C97.5045 16.9713 97.7051 16.5084 98.1063 16.1227C98.5229 15.7215 98.9935 15.5209 99.5181 15.5209C99.9346 15.5209 100.266 15.6521 100.513 15.9144C100.776 16.1767 100.907 16.5084 100.907 16.9096C100.907 17.4496 100.706 17.9202 100.305 18.3214C99.9038 18.7071 99.4409 18.9 98.9163 18.9ZM99.9115 20.5895L97.6665 33.3418H95.0281L97.2731 20.5895H99.9115ZM108.236 33.5362C107.051 33.5362 105.986 33.3511 105.042 32.9808C104.098 32.5919 103.348 32.0365 102.792 31.3144C102.237 30.5738 101.959 29.7036 101.959 28.7037C101.959 28.5741 101.978 28.3427 102.015 28.0094H105.153C105.079 28.8611 105.329 29.574 105.903 30.1479C106.477 30.7034 107.301 30.9811 108.375 30.9811C109.523 30.9811 110.421 30.7497 111.069 30.2868C111.717 29.8054 112.041 29.1203 112.041 28.2316C112.041 27.6947 111.874 27.241 111.541 26.8707C111.226 26.4819 110.819 26.1579 110.319 25.8987C109.837 25.6395 109.161 25.334 108.291 24.9822C107.143 24.5008 106.227 24.0657 105.542 23.6769C104.857 23.2881 104.264 22.7511 103.764 22.0661C103.283 21.381 103.042 20.52 103.042 19.4832C103.042 18.3352 103.338 17.3354 103.931 16.4837C104.523 15.6135 105.338 14.947 106.375 14.4841C107.43 14.0212 108.615 13.7898 109.93 13.7898C111.244 13.7898 112.374 14.012 113.318 14.4563C114.281 14.8822 115.003 15.4932 115.484 16.2893C115.984 17.067 116.207 17.9835 116.151 19.0388H112.818C112.892 18.2797 112.661 17.6502 112.124 17.1503C111.587 16.6319 110.809 16.3726 109.791 16.3726C108.717 16.3726 107.856 16.6226 107.208 17.1225C106.579 17.6039 106.264 18.2612 106.264 19.0944C106.264 19.6128 106.421 20.0664 106.736 20.4552C107.069 20.8255 107.486 21.1496 107.986 21.4273C108.486 21.6865 109.161 22.0013 110.013 22.3716C111.161 22.89 112.078 23.3529 112.763 23.7602C113.466 24.1675 114.068 24.723 114.568 25.4266C115.068 26.1116 115.318 26.9633 115.318 27.9817C115.318 29.0555 115.022 30.0183 114.429 30.87C113.837 31.7032 113.003 32.3605 111.93 32.8419C110.856 33.3048 109.624 33.5362 108.236 33.5362ZM126.644 20.3812C127.924 20.3812 128.95 20.7438 129.722 21.4689C130.493 22.1787 130.879 23.197 130.879 24.5239C130.879 24.8788 130.84 25.3108 130.763 25.82L129.421 33.3418H126.806L128.078 26.2135C128.14 25.7814 128.171 25.4728 128.171 25.2877C128.171 24.4391 127.932 23.7911 127.454 23.3436C126.991 22.8962 126.343 22.6724 125.509 22.6724C124.507 22.6724 123.658 22.981 122.964 23.5982C122.285 24.1999 121.853 25.0717 121.668 26.2135V26.1672L120.395 33.3418H117.756L120.788 16.2153H123.426L122.385 22.0707C122.925 21.5307 123.565 21.1141 124.306 20.8209C125.047 20.5278 125.826 20.3812 126.644 20.3812ZM133.041 26.9078C133.272 25.6271 133.735 24.4931 134.429 23.5056C135.139 22.5181 136.003 21.7544 137.022 21.2144C138.04 20.6589 139.105 20.3812 140.215 20.3812C141.218 20.3812 142.059 20.5818 142.738 20.9829C143.417 21.3687 143.926 21.8547 144.266 22.441L144.59 20.5895H147.251L145.006 33.3418H142.345L142.692 31.444C142.136 32.0457 141.434 32.5472 140.586 32.9483C139.753 33.3495 138.842 33.5501 137.855 33.5501C136.898 33.5501 136.042 33.3341 135.286 32.9021C134.545 32.47 133.959 31.8606 133.527 31.0737C133.11 30.2714 132.902 29.3533 132.902 28.3196C132.902 27.8567 132.948 27.3861 133.041 26.9078ZM143.479 26.9541C143.54 26.6609 143.571 26.3446 143.571 26.0052C143.571 24.9714 143.263 24.1614 142.646 23.575C142.044 22.9733 141.288 22.6724 140.377 22.6724C139.699 22.6724 139.035 22.8421 138.387 23.1816C137.739 23.5056 137.176 23.9916 136.698 24.6397C136.219 25.2723 135.903 26.0283 135.749 26.9078C135.687 27.2009 135.656 27.5172 135.656 27.8567C135.656 28.9059 135.957 29.7391 136.559 30.3562C137.176 30.958 137.94 31.2588 138.85 31.2588C139.529 31.2588 140.192 31.0891 140.84 30.7497C141.488 30.4102 142.052 29.9165 142.53 29.2685C143.008 28.605 143.324 27.8335 143.479 26.9541ZM153.031 22.4641C153.587 21.8778 154.281 21.3841 155.114 20.9829C155.963 20.5818 156.873 20.3812 157.845 20.3812C158.817 20.3812 159.681 20.5895 160.437 21.0061C161.193 21.4227 161.779 22.0167 162.196 22.7881C162.613 23.5596 162.821 24.4622 162.821 25.496C162.821 25.9434 162.775 26.414 162.682 26.9078C162.451 28.1884 161.98 29.3379 161.27 30.3562C160.576 31.3591 159.72 32.146 158.701 32.7169C157.698 33.2724 156.642 33.5501 155.531 33.5501C154.559 33.5501 153.725 33.3572 153.031 32.9715C152.352 32.5703 151.82 32.0766 151.434 31.4903L150.045 39.4055H147.407L150.717 20.5895H153.355L153.031 22.4641ZM159.997 26.9078C160.059 26.6146 160.09 26.2983 160.09 25.9589C160.09 24.9251 159.781 24.1228 159.164 23.5519C158.562 22.9656 157.799 22.6724 156.873 22.6724C156.21 22.6724 155.546 22.8421 154.883 23.1816C154.235 23.521 153.671 24.0148 153.193 24.6628C152.715 25.3108 152.398 26.0746 152.244 26.9541C152.182 27.2472 152.152 27.5635 152.152 27.903C152.152 28.9367 152.452 29.7545 153.054 30.3562C153.671 30.958 154.435 31.2588 155.345 31.2588C156.024 31.2588 156.688 31.0891 157.336 30.7497C157.999 30.3948 158.57 29.8856 159.048 29.2222C159.527 28.5587 159.843 27.7872 159.997 26.9078ZM168.717 22.4641C169.272 21.8778 169.966 21.3841 170.799 20.9829C171.648 20.5818 172.558 20.3812 173.53 20.3812C174.503 20.3812 175.367 20.5895 176.123 21.0061C176.879 21.4227 177.465 22.0167 177.882 22.7881C178.298 23.5596 178.506 24.4622 178.506 25.496C178.506 25.9434 178.46 26.414 178.368 26.9078C178.136 28.1884 177.666 29.3379 176.956 30.3562C176.261 31.3591 175.405 32.146 174.387 32.7169C173.384 33.2724 172.327 33.5501 171.216 33.5501C170.244 33.5501 169.411 33.3572 168.717 32.9715C168.038 32.5703 167.505 32.0766 167.12 31.4903L165.731 39.4055H163.093L166.402 20.5895H169.041L168.717 22.4641ZM175.683 26.9078C175.745 26.6146 175.775 26.2983 175.775 25.9589C175.775 24.9251 175.467 24.1228 174.85 23.5519C174.248 22.9656 173.484 22.6724 172.558 22.6724C171.895 22.6724 171.232 22.8421 170.568 23.1816C169.92 23.521 169.357 24.0148 168.879 24.6628C168.4 25.3108 168.084 26.0746 167.93 26.9541C167.868 27.2472 167.837 27.5635 167.837 27.903C167.837 28.9367 168.138 29.7545 168.74 30.3562C169.357 30.958 170.121 31.2588 171.031 31.2588C171.71 31.2588 172.373 31.0891 173.021 30.7497C173.685 30.3948 174.256 29.8856 174.734 29.2222C175.212 28.5587 175.529 27.7872 175.683 26.9078Z" fill="white"/>
</svg>
