<svg width="308" height="80" viewBox="0 0 308 80" fill="none" xmlns="http://www.w3.org/2000/svg">
<path d="M99.0176 55.21C97.7376 55.21 96.5876 55.01 95.5676 54.61C94.5476 54.19 93.7376 53.59 93.1376 52.81C92.5376 52.01 92.2376 51.07 92.2376 49.99C92.2376 49.85 92.2576 49.6 92.2976 49.24H95.6876C95.6076 50.16 95.8776 50.93 96.4976 51.55C97.1176 52.15 98.0076 52.45 99.1676 52.45C100.408 52.45 101.378 52.2 102.078 51.7C102.778 51.18 103.128 50.44 103.128 49.48C103.128 48.9 102.948 48.41 102.588 48.01C102.248 47.59 101.808 47.24 101.268 46.96C100.748 46.68 100.018 46.35 99.0776 45.97C97.8376 45.45 96.8476 44.98 96.1076 44.56C95.3676 44.14 94.7276 43.56 94.1876 42.82C93.6676 42.08 93.4076 41.15 93.4076 40.03C93.4076 38.79 93.7276 37.71 94.3676 36.79C95.0076 35.85 95.8876 35.13 97.0076 34.63C98.1476 34.13 99.4276 33.88 100.848 33.88C102.268 33.88 103.488 34.12 104.508 34.6C105.548 35.06 106.328 35.72 106.848 36.58C107.388 37.42 107.628 38.41 107.568 39.55H103.968C104.048 38.73 103.798 38.05 103.218 37.51C102.638 36.95 101.798 36.67 100.698 36.67C99.5376 36.67 98.6076 36.94 97.9076 37.48C97.2276 38 96.8876 38.71 96.8876 39.61C96.8876 40.17 97.0576 40.66 97.3976 41.08C97.7576 41.48 98.2076 41.83 98.7476 42.13C99.2876 42.41 100.018 42.75 100.938 43.15C102.178 43.71 103.168 44.21 103.908 44.65C104.668 45.09 105.318 45.69 105.858 46.45C106.398 47.19 106.668 48.11 106.668 49.21C106.668 50.37 106.348 51.41 105.708 52.33C105.068 53.23 104.168 53.94 103.008 54.46C101.848 54.96 100.518 55.21 99.0176 55.21ZM127.297 38.47L124.387 55H120.967L121.297 53.05C120.637 53.73 119.837 54.27 118.897 54.67C117.977 55.05 117.027 55.24 116.047 55.24C114.307 55.24 112.917 54.77 111.877 53.83C110.837 52.89 110.317 51.56 110.317 49.84C110.317 49.38 110.367 48.83 110.467 48.19L112.177 38.47H115.567L113.947 47.68C113.867 48.24 113.827 48.64 113.827 48.88C113.827 49.98 114.127 50.82 114.727 51.4C115.347 51.98 116.197 52.27 117.277 52.27C118.537 52.27 119.607 51.9 120.487 51.16C121.367 50.4 121.947 49.31 122.227 47.89L123.877 38.47H127.297ZM134.719 41.38C135.399 40.38 136.199 39.6 137.119 39.04C138.059 38.48 139.099 38.2 140.239 38.2L139.609 41.74H138.739C137.419 41.74 136.359 42.07 135.559 42.73C134.759 43.39 134.199 44.53 133.879 46.15L132.319 55H128.899L131.809 38.47H135.229L134.719 41.38ZM145.213 50.41C145.173 50.69 145.153 50.87 145.153 50.95C145.153 51.37 145.283 51.68 145.543 51.88C145.803 52.06 146.233 52.15 146.833 52.15H148.933L148.423 55H145.723C144.403 55 143.393 54.74 142.693 54.22C141.993 53.68 141.643 52.83 141.643 51.67C141.643 51.23 141.683 50.81 141.763 50.41L143.383 41.26H141.433L141.913 38.47H143.893L144.613 34.36H148.063L147.343 38.47H151.333L150.853 41.26H146.833L145.213 50.41ZM156.615 36.28C156.075 36.28 155.635 36.11 155.295 35.77C154.955 35.43 154.785 35 154.785 34.48C154.785 33.78 155.045 33.18 155.565 32.68C156.105 32.16 156.715 31.9 157.395 31.9C157.935 31.9 158.365 32.07 158.685 32.41C159.025 32.75 159.195 33.18 159.195 33.7C159.195 34.4 158.935 35.01 158.415 35.53C157.895 36.03 157.295 36.28 156.615 36.28ZM157.905 38.47L154.995 55H151.575L154.485 38.47H157.905ZM167.045 55.21C165.765 55.21 164.615 55.01 163.595 54.61C162.575 54.19 161.765 53.59 161.165 52.81C160.565 52.01 160.265 51.07 160.265 49.99C160.265 49.85 160.285 49.6 160.325 49.24H163.715C163.635 50.16 163.905 50.93 164.525 51.55C165.145 52.15 166.035 52.45 167.195 52.45C168.435 52.45 169.405 52.2 170.105 51.7C170.805 51.18 171.155 50.44 171.155 49.48C171.155 48.9 170.975 48.41 170.615 48.01C170.275 47.59 169.835 47.24 169.295 46.96C168.775 46.68 168.045 46.35 167.105 45.97C165.865 45.45 164.875 44.98 164.135 44.56C163.395 44.14 162.755 43.56 162.215 42.82C161.695 42.08 161.435 41.15 161.435 40.03C161.435 38.79 161.755 37.71 162.395 36.79C163.035 35.85 163.915 35.13 165.035 34.63C166.175 34.13 167.455 33.88 168.875 33.88C170.295 33.88 171.515 34.12 172.535 34.6C173.575 35.06 174.355 35.72 174.875 36.58C175.415 37.42 175.655 38.41 175.595 39.55H171.995C172.075 38.73 171.825 38.05 171.245 37.51C170.665 36.95 169.825 36.67 168.725 36.67C167.565 36.67 166.635 36.94 165.935 37.48C165.255 38 164.915 38.71 164.915 39.61C164.915 40.17 165.085 40.66 165.425 41.08C165.785 41.48 166.235 41.83 166.775 42.13C167.315 42.41 168.045 42.75 168.965 43.15C170.205 43.71 171.195 44.21 171.935 44.65C172.695 45.09 173.345 45.69 173.885 46.45C174.425 47.19 174.695 48.11 174.695 49.21C174.695 50.37 174.375 51.41 173.735 52.33C173.095 53.23 172.195 53.94 171.035 54.46C169.875 54.96 168.545 55.21 167.045 55.21ZM188.964 38.2C190.624 38.2 191.954 38.67 192.954 39.61C193.954 40.53 194.454 41.85 194.454 43.57C194.454 44.03 194.404 44.59 194.304 45.25L192.564 55H189.174L190.824 45.76C190.904 45.2 190.944 44.8 190.944 44.56C190.944 43.46 190.634 42.62 190.014 42.04C189.414 41.46 188.574 41.17 187.494 41.17C186.194 41.17 185.094 41.57 184.194 42.37C183.314 43.15 182.754 44.28 182.514 45.76V45.7L180.864 55H177.444L181.374 32.8H184.794L183.444 40.39C184.144 39.69 184.974 39.15 185.934 38.77C186.894 38.39 187.904 38.2 188.964 38.2ZM197.256 46.66C197.556 45 198.156 43.53 199.056 42.25C199.976 40.97 201.096 39.98 202.416 39.28C203.736 38.56 205.116 38.2 206.556 38.2C207.856 38.2 208.946 38.46 209.826 38.98C210.706 39.48 211.366 40.11 211.806 40.87L212.226 38.47H215.676L212.766 55H209.316L209.766 52.54C209.046 53.32 208.136 53.97 207.036 54.49C205.956 55.01 204.776 55.27 203.496 55.27C202.256 55.27 201.146 54.99 200.166 54.43C199.206 53.87 198.446 53.08 197.886 52.06C197.346 51.02 197.076 49.83 197.076 48.49C197.076 47.89 197.136 47.28 197.256 46.66ZM210.786 46.72C210.866 46.34 210.906 45.93 210.906 45.49C210.906 44.15 210.506 43.1 209.706 42.34C208.926 41.56 207.946 41.17 206.766 41.17C205.886 41.17 205.026 41.39 204.186 41.83C203.346 42.25 202.616 42.88 201.996 43.72C201.376 44.54 200.966 45.52 200.766 46.66C200.686 47.04 200.646 47.45 200.646 47.89C200.646 49.25 201.036 50.33 201.816 51.13C202.616 51.91 203.606 52.3 204.786 52.3C205.666 52.3 206.526 52.08 207.366 51.64C208.206 51.2 208.936 50.56 209.556 49.72C210.176 48.86 210.586 47.86 210.786 46.72ZM223.168 40.9C223.888 40.14 224.788 39.5 225.868 38.98C226.968 38.46 228.148 38.2 229.408 38.2C230.668 38.2 231.788 38.47 232.768 39.01C233.748 39.55 234.508 40.32 235.048 41.32C235.588 42.32 235.858 43.49 235.858 44.83C235.858 45.41 235.798 46.02 235.678 46.66C235.378 48.32 234.768 49.81 233.848 51.13C232.948 52.43 231.838 53.45 230.518 54.19C229.218 54.91 227.848 55.27 226.408 55.27C225.148 55.27 224.068 55.02 223.168 54.52C222.288 54 221.598 53.36 221.098 52.6L219.298 62.86H215.878L220.168 38.47H223.588L223.168 40.9ZM232.198 46.66C232.278 46.28 232.318 45.87 232.318 45.43C232.318 44.09 231.918 43.05 231.118 42.31C230.338 41.55 229.348 41.17 228.148 41.17C227.288 41.17 226.428 41.39 225.568 41.83C224.728 42.27 223.998 42.91 223.378 43.75C222.758 44.59 222.348 45.58 222.148 46.72C222.068 47.1 222.028 47.51 222.028 47.95C222.028 49.29 222.418 50.35 223.198 51.13C223.998 51.91 224.988 52.3 226.168 52.3C227.048 52.3 227.908 52.08 228.748 51.64C229.608 51.18 230.348 50.52 230.968 49.66C231.588 48.8 231.998 47.8 232.198 46.66ZM243.5 40.9C244.22 40.14 245.12 39.5 246.2 38.98C247.3 38.46 248.48 38.2 249.74 38.2C251 38.2 252.12 38.47 253.1 39.01C254.08 39.55 254.84 40.32 255.38 41.32C255.92 42.32 256.19 43.49 256.19 44.83C256.19 45.41 256.13 46.02 256.01 46.66C255.71 48.32 255.1 49.81 254.18 51.13C253.28 52.43 252.17 53.45 250.85 54.19C249.55 54.91 248.18 55.27 246.74 55.27C245.48 55.27 244.4 55.02 243.5 54.52C242.62 54 241.93 53.36 241.43 52.6L239.63 62.86H236.21L240.5 38.47H243.92L243.5 40.9ZM252.53 46.66C252.61 46.28 252.65 45.87 252.65 45.43C252.65 44.09 252.25 43.05 251.45 42.31C250.67 41.55 249.68 41.17 248.48 41.17C247.62 41.17 246.76 41.39 245.9 41.83C245.06 42.27 244.33 42.91 243.71 43.75C243.09 44.59 242.68 45.58 242.48 46.72C242.4 47.1 242.36 47.51 242.36 47.95C242.36 49.29 242.75 50.35 243.53 51.13C244.33 51.91 245.32 52.3 246.5 52.3C247.38 52.3 248.24 52.08 249.08 51.64C249.94 51.18 250.68 50.52 251.3 49.66C251.92 48.8 252.33 47.8 252.53 46.66Z" fill="white"/>
<circle cx="40" cy="40" r="40" fill="#00A3FF"/>
<path d="M39.1658 35.2834C39.6252 34.5237 40.4484 34.0596 41.3361 34.0596H66.7776C67.269 34.0596 67.6673 34.4579 67.6673 34.9494C67.6673 45.7376 58.9218 54.4831 48.1336 54.4831H38.6865C33.7973 54.4831 30.7849 49.1408 33.3151 44.9572L39.1658 35.2834Z" stroke="white" stroke-width="3.95702"/>
<path d="M36.4287 19.3333C43.2713 26.1511 42.4055 35.2579 37.0875 42.3754L35.1401 37.9365C38.4856 33.4282 37.7517 26.7893 33.426 22.4793C32.0412 21.0996 31.8643 19.2856 33.1314 18.0139C34.3985 16.7421 35.0439 17.9536 36.4287 19.3333Z" fill="white"/>
<path d="M41.6541 59.1629C41.6541 59.6669 41.5549 60.1659 41.362 60.6315C41.1691 61.0971 40.8865 61.5202 40.5301 61.8766C40.1737 62.2329 39.7507 62.5156 39.2851 62.7085C38.8195 62.9013 38.3204 63.0006 37.8164 63.0006C37.3125 63.0006 36.8134 62.9013 36.3478 62.7085C35.8822 62.5156 35.4592 62.2329 35.1028 61.8766C34.7464 61.5202 34.4637 61.0971 34.2709 60.6315C34.078 60.1659 33.9788 58.5382 33.9788 58.0342L37.8164 58.0342L41.6541 58.0342V59.1629Z" fill="white"/>
<path d="M52.4898 59.1629C52.4898 59.6669 52.3906 60.1659 52.1977 60.6315C52.0048 61.0971 51.7221 61.5202 51.3658 61.8766C51.0094 62.2329 50.5864 62.5156 50.1208 62.7085C49.6551 62.9013 49.1561 63.0006 48.6521 63.0006C48.1482 63.0006 47.6491 62.9013 47.1835 62.7085C46.7179 62.5156 46.2948 62.2329 45.9385 61.8766C45.5821 61.5202 45.2994 61.0971 45.1066 60.6315C44.9137 60.1659 44.8145 58.5382 44.8145 58.0342L48.6521 58.0342L52.4898 58.0342V59.1629Z" fill="white"/>
<rect x="11" y="34.2832" width="4.05332" height="20.2666" rx="2.02666" transform="rotate(-90 11 34.2832)" fill="url(#paint0_linear)" fill-opacity="0.75"/>
<rect x="14.6477" y="40.3652" width="4.05332" height="12.16" rx="2.02666" transform="rotate(-90 14.6477 40.3652)" fill="url(#paint1_linear)"/>
<rect x="13.2976" y="28.207" width="4.05332" height="16.2133" rx="2.02666" transform="rotate(-90 13.2976 28.207)" fill="url(#paint2_linear)"/>
<defs>
<linearGradient id="paint0_linear" x1="13.0267" y1="34.2832" x2="13.0336" y2="59.9012" gradientUnits="userSpaceOnUse">
<stop offset="0.604167" stop-color="white"/>
</linearGradient>
<linearGradient id="paint1_linear" x1="16.6744" y1="40.3652" x2="16.6634" y2="58.371" gradientUnits="userSpaceOnUse">
<stop offset="1" stop-color="white"/>
</linearGradient>
<linearGradient id="paint2_linear" x1="15.3243" y1="28.207" x2="15.355" y2="47.2579" gradientUnits="userSpaceOnUse">
<stop offset="0.5625" stop-color="white"/>
</linearGradient>
</defs>
</svg>
