<svg width="197" height="44" viewBox="0 0 197 44" fill="none" xmlns="http://www.w3.org/2000/svg">
<path d="M29.6168 15.3365C30.0022 14.6993 30.6926 14.31 31.4373 14.31H52.778C53.1902 14.31 53.5244 14.6442 53.5244 15.0564C53.5244 24.1057 46.1885 31.4416 37.1391 31.4416H29.2148C25.1136 31.4416 22.5868 26.9604 24.7091 23.4512L29.6168 15.3365Z" stroke="white" stroke-width="3.31922"/>
<path d="M27.3213 1.95722C33.0609 7.67611 32.3348 15.315 27.8739 21.2853L26.2404 17.5619C29.0467 13.7803 28.431 8.21146 24.8025 4.59611C23.641 3.43878 23.4926 1.91722 24.5555 0.850456C25.6184 -0.216303 26.1597 0.799878 27.3213 1.95722Z" fill="white"/>
<path d="M31.7046 35.3667C31.7046 35.7895 31.6213 36.2081 31.4595 36.5986C31.2978 36.9892 31.0607 37.3441 30.7617 37.643C30.4628 37.9419 30.1079 38.179 29.7174 38.3408C29.3268 38.5026 28.9082 38.5858 28.4855 38.5858C28.0627 38.5858 27.6441 38.5026 27.2536 38.3408C26.863 38.179 26.5081 37.9419 26.2092 37.643C25.9103 37.3441 25.6732 36.9892 25.5114 36.5986C25.3496 36.2081 25.2664 34.8427 25.2664 34.4199L28.4855 34.4199L31.7046 34.4199V35.3667Z" fill="white"/>
<path d="M40.7932 35.3667C40.7932 35.7895 40.7099 36.2081 40.5482 36.5986C40.3864 36.9892 40.1493 37.3441 39.8504 37.643C39.5514 37.9419 39.1966 38.179 38.806 38.3408C38.4154 38.5026 37.9968 38.5858 37.5741 38.5858C37.1514 38.5858 36.7328 38.5026 36.3422 38.3408C35.9516 38.179 35.5968 37.9419 35.2978 37.643C34.9989 37.3441 34.7618 36.9892 34.6 36.5986C34.4382 36.2081 34.355 34.8427 34.355 34.4199L37.5741 34.4199L40.7932 34.4199V35.3667Z" fill="white"/>
<path d="M68.9752 33.5362C67.7903 33.5362 66.7256 33.3511 65.7814 32.9808C64.8371 32.5919 64.0872 32.0365 63.5318 31.3144C62.9763 30.5738 62.6986 29.7036 62.6986 28.7037C62.6986 28.5741 62.7171 28.3427 62.7541 28.0094H65.8925C65.8184 28.8611 66.0684 29.574 66.6423 30.1479C67.2163 30.7034 68.0402 30.9811 69.1141 30.9811C70.262 30.9811 71.16 30.7497 71.8081 30.2868C72.4561 29.8054 72.7801 29.1203 72.7801 28.2316C72.7801 27.6947 72.6135 27.241 72.2802 26.8707C71.9654 26.4819 71.5581 26.1579 71.0582 25.8987C70.5768 25.6395 69.901 25.334 69.0308 24.9822C67.8828 24.5008 66.9663 24.0657 66.2813 23.6769C65.5962 23.2881 65.0037 22.7511 64.5038 22.0661C64.0224 21.381 63.7817 20.52 63.7817 19.4832C63.7817 18.3352 64.078 17.3354 64.6705 16.4837C65.2629 15.6135 66.0776 14.947 67.1145 14.4841C68.1698 14.0212 69.3548 13.7898 70.6694 13.7898C71.984 13.7898 73.1134 14.012 74.0577 14.4563C75.0204 14.8822 75.7425 15.4932 76.2239 16.2893C76.7238 17.067 76.946 17.9835 76.8905 19.0388H73.5577C73.6318 18.2797 73.4004 17.6502 72.8634 17.1503C72.3265 16.6319 71.5488 16.3726 70.5305 16.3726C69.4566 16.3726 68.5957 16.6226 67.9476 17.1225C67.3181 17.6039 67.0034 18.2612 67.0034 19.0944C67.0034 19.6128 67.1608 20.0664 67.4755 20.4552C67.8088 20.8255 68.2254 21.1496 68.7253 21.4273C69.2252 21.6865 69.901 22.0013 70.7527 22.3716C71.9006 22.89 72.8171 23.3529 73.5022 23.7602C74.2058 24.1675 74.8075 24.723 75.3074 25.4266C75.8073 26.1116 76.0573 26.9633 76.0573 27.9817C76.0573 29.0555 75.7611 30.0183 75.1686 30.87C74.5761 31.7032 73.7429 32.3605 72.669 32.8419C71.5951 33.3048 70.3639 33.5362 68.9752 33.5362ZM92.2895 20.5895L90.0446 33.3418H87.4062L87.6607 31.8374C87.1516 32.362 86.5344 32.7786 85.8092 33.0872C85.0995 33.3804 84.3666 33.5269 83.6105 33.5269C82.2682 33.5269 81.1959 33.1644 80.3935 32.4392C79.5912 31.714 79.19 30.688 79.19 29.361C79.19 29.0062 79.2286 28.5819 79.3058 28.0881L80.625 20.5895H83.2402L81.9905 27.6947C81.9288 28.1267 81.8979 28.4353 81.8979 28.6204C81.8979 29.469 82.1293 30.1171 82.5922 30.5645C83.0705 31.012 83.7263 31.2357 84.5594 31.2357C85.5315 31.2357 86.357 30.9503 87.0359 30.3794C87.7147 29.7931 88.1622 28.9522 88.3782 27.8567L89.6511 20.5895H92.2895ZM98.0157 22.8344C98.5403 22.063 99.1574 21.4612 99.8672 21.0292C100.592 20.5972 101.395 20.3812 102.274 20.3812L101.788 23.1122H101.117C100.099 23.1122 99.2809 23.3667 98.6637 23.8759C98.0465 24.3851 97.6145 25.2646 97.3676 26.5143L96.1642 33.3418H93.5257L95.7707 20.5895H98.4091L98.0157 22.8344ZM106.111 29.8008C106.08 30.0168 106.065 30.1556 106.065 30.2174C106.065 30.5414 106.165 30.7805 106.366 30.9348C106.566 31.0737 106.898 31.1431 107.361 31.1431H108.981L108.588 33.3418H106.505C105.486 33.3418 104.707 33.1412 104.167 32.7401C103.627 32.3235 103.357 31.6677 103.357 30.7728C103.357 30.4334 103.388 30.1094 103.45 29.8008L104.699 22.7419H103.195L103.565 20.5895H105.093L105.648 17.4187H108.31L107.754 20.5895H110.833L110.462 22.7419H107.361L106.111 29.8008ZM114.908 18.9C114.491 18.9 114.151 18.7688 113.889 18.5065C113.627 18.2442 113.496 17.9125 113.496 17.5113C113.496 16.9713 113.696 16.5084 114.097 16.1227C114.514 15.7215 114.985 15.5209 115.509 15.5209C115.926 15.5209 116.258 15.6521 116.504 15.9144C116.767 16.1767 116.898 16.5084 116.898 16.9096C116.898 17.4496 116.697 17.9202 116.296 18.3214C115.895 18.7071 115.432 18.9 114.908 18.9ZM115.903 20.5895L113.658 33.3418H111.019L113.264 20.5895H115.903ZM124.227 33.5362C123.042 33.5362 121.977 33.3511 121.033 32.9808C120.089 32.5919 119.339 32.0365 118.783 31.3144C118.228 30.5738 117.95 29.7036 117.95 28.7037C117.95 28.5741 117.969 28.3427 118.006 28.0094H121.144C121.07 28.8611 121.32 29.574 121.894 30.1479C122.468 30.7034 123.292 30.9811 124.366 30.9811C125.514 30.9811 126.412 30.7497 127.06 30.2868C127.708 29.8054 128.032 29.1203 128.032 28.2316C128.032 27.6947 127.865 27.241 127.532 26.8707C127.217 26.4819 126.81 26.1579 126.31 25.8987C125.829 25.6395 125.153 25.334 124.282 24.9822C123.135 24.5008 122.218 24.0657 121.533 23.6769C120.848 23.2881 120.255 22.7511 119.756 22.0661C119.274 21.381 119.033 20.52 119.033 19.4832C119.033 18.3352 119.33 17.3354 119.922 16.4837C120.515 15.6135 121.329 14.947 122.366 14.4841C123.422 14.0212 124.607 13.7898 125.921 13.7898C127.236 13.7898 128.365 14.012 129.309 14.4563C130.272 14.8822 130.994 15.4932 131.476 16.2893C131.976 17.067 132.198 17.9835 132.142 19.0388H128.809C128.884 18.2797 128.652 17.6502 128.115 17.1503C127.578 16.6319 126.801 16.3726 125.782 16.3726C124.708 16.3726 123.847 16.6226 123.199 17.1225C122.57 17.6039 122.255 18.2612 122.255 19.0944C122.255 19.6128 122.412 20.0664 122.727 20.4552C123.06 20.8255 123.477 21.1496 123.977 21.4273C124.477 21.6865 125.153 22.0013 126.004 22.3716C127.152 22.89 128.069 23.3529 128.754 23.7602C129.457 24.1675 130.059 24.723 130.559 25.4266C131.059 26.1116 131.309 26.9633 131.309 27.9817C131.309 29.0555 131.013 30.0183 130.42 30.87C129.828 31.7032 128.995 32.3605 127.921 32.8419C126.847 33.3048 125.616 33.5362 124.227 33.5362ZM142.635 20.3812C143.915 20.3812 144.941 20.7438 145.713 21.4689C146.484 22.1787 146.87 23.197 146.87 24.5239C146.87 24.8788 146.831 25.3108 146.754 25.82L145.412 33.3418H142.797L144.07 26.2135C144.131 25.7814 144.162 25.4728 144.162 25.2877C144.162 24.4391 143.923 23.7911 143.445 23.3436C142.982 22.8962 142.334 22.6724 141.501 22.6724C140.498 22.6724 139.649 22.981 138.955 23.5982C138.276 24.1999 137.844 25.0717 137.659 26.2135V26.1672L136.386 33.3418H133.747L136.779 16.2153H139.418L138.376 22.0707C138.916 21.5307 139.557 21.1141 140.297 20.8209C141.038 20.5278 141.817 20.3812 142.635 20.3812ZM149.032 26.9078C149.263 25.6271 149.726 24.4931 150.421 23.5056C151.13 22.5181 151.994 21.7544 153.013 21.2144C154.031 20.6589 155.096 20.3812 156.207 20.3812C157.21 20.3812 158.05 20.5818 158.729 20.9829C159.408 21.3687 159.917 21.8547 160.257 22.441L160.581 20.5895H163.242L160.997 33.3418H158.336L158.683 31.444C158.128 32.0457 157.426 32.5472 156.577 32.9483C155.744 33.3495 154.833 33.5501 153.846 33.5501C152.889 33.5501 152.033 33.3341 151.277 32.9021C150.536 32.47 149.95 31.8606 149.518 31.0737C149.101 30.2714 148.893 29.3533 148.893 28.3196C148.893 27.8567 148.939 27.3861 149.032 26.9078ZM159.47 26.9541C159.532 26.6609 159.563 26.3446 159.563 26.0052C159.563 24.9714 159.254 24.1614 158.637 23.575C158.035 22.9733 157.279 22.6724 156.369 22.6724C155.69 22.6724 155.026 22.8421 154.378 23.1816C153.73 23.5056 153.167 23.9916 152.689 24.6397C152.21 25.2723 151.894 26.0283 151.74 26.9078C151.678 27.2009 151.647 27.5172 151.647 27.8567C151.647 28.9059 151.948 29.7391 152.55 30.3562C153.167 30.958 153.931 31.2588 154.841 31.2588C155.52 31.2588 156.184 31.0891 156.832 30.7497C157.48 30.4102 158.043 29.9165 158.521 29.2685C158.999 28.605 159.316 27.8335 159.47 26.9541ZM169.022 22.4641C169.578 21.8778 170.272 21.3841 171.105 20.9829C171.954 20.5818 172.864 20.3812 173.836 20.3812C174.808 20.3812 175.672 20.5895 176.428 21.0061C177.184 21.4227 177.771 22.0167 178.187 22.7881C178.604 23.5596 178.812 24.4622 178.812 25.496C178.812 25.9434 178.766 26.414 178.673 26.9078C178.442 28.1884 177.971 29.3379 177.262 30.3562C176.567 31.3591 175.711 32.146 174.693 32.7169C173.69 33.2724 172.633 33.5501 171.522 33.5501C170.55 33.5501 169.717 33.3572 169.022 32.9715C168.343 32.5703 167.811 32.0766 167.425 31.4903L166.037 39.4055H163.398L166.708 20.5895H169.346L169.022 22.4641ZM175.989 26.9078C176.05 26.6146 176.081 26.2983 176.081 25.9589C176.081 24.9251 175.773 24.1228 175.155 23.5519C174.554 22.9656 173.79 22.6724 172.864 22.6724C172.201 22.6724 171.537 22.8421 170.874 23.1816C170.226 23.521 169.663 24.0148 169.184 24.6628C168.706 25.3108 168.39 26.0746 168.235 26.9541C168.174 27.2472 168.143 27.5635 168.143 27.903C168.143 28.9367 168.444 29.7545 169.045 30.3562C169.663 30.958 170.426 31.2588 171.337 31.2588C172.016 31.2588 172.679 31.0891 173.327 30.7497C173.991 30.3948 174.561 29.8856 175.04 29.2222C175.518 28.5587 175.834 27.7872 175.989 26.9078ZM184.708 22.4641C185.263 21.8778 185.958 21.3841 186.791 20.9829C187.639 20.5818 188.55 20.3812 189.522 20.3812C190.494 20.3812 191.358 20.5895 192.114 21.0061C192.87 21.4227 193.456 22.0167 193.873 22.7881C194.289 23.5596 194.498 24.4622 194.498 25.496C194.498 25.9434 194.451 26.414 194.359 26.9078C194.127 28.1884 193.657 29.3379 192.947 30.3562C192.253 31.3591 191.396 32.146 190.378 32.7169C189.375 33.2724 188.318 33.5501 187.207 33.5501C186.235 33.5501 185.402 33.3572 184.708 32.9715C184.029 32.5703 183.497 32.0766 183.111 31.4903L181.722 39.4055H179.084L182.393 20.5895H185.032L184.708 22.4641ZM191.674 26.9078C191.736 26.6146 191.767 26.2983 191.767 25.9589C191.767 24.9251 191.458 24.1228 190.841 23.5519C190.239 22.9656 189.475 22.6724 188.55 22.6724C187.886 22.6724 187.223 22.8421 186.559 23.1816C185.911 23.521 185.348 24.0148 184.87 24.6628C184.391 25.3108 184.075 26.0746 183.921 26.9541C183.859 27.2472 183.828 27.5635 183.828 27.903C183.828 28.9367 184.129 29.7545 184.731 30.3562C185.348 30.958 186.112 31.2588 187.022 31.2588C187.701 31.2588 188.364 31.0891 189.013 30.7497C189.676 30.3948 190.247 29.8856 190.725 29.2222C191.203 28.5587 191.52 27.7872 191.674 26.9078Z" fill="white"/>
<rect y="14.4961" width="3.4" height="22.9912" rx="1.7" transform="rotate(-90 0 14.4961)" fill="url(#paint0_linear)"/>
<rect x="4.13794" y="19.5977" width="3.4" height="13.7947" rx="1.7" transform="rotate(-90 4.13794 19.5977)" fill="url(#paint1_linear)"/>
<rect x="2.6062" y="9.40039" width="3.4" height="18.393" rx="1.7" transform="rotate(-90 2.6062 9.40039)" fill="url(#paint2_linear)"/>
<defs>
<linearGradient id="paint0_linear" x1="1.7" y1="14.4961" x2="1.7" y2="37.4873" gradientUnits="userSpaceOnUse">
<stop stop-color="#00A3FF" stop-opacity="0"/>
<stop offset="1" stop-color="white"/>
</linearGradient>
<linearGradient id="paint1_linear" x1="5.83794" y1="19.5977" x2="5.83794" y2="33.3924" gradientUnits="userSpaceOnUse">
<stop stop-color="#00A3FF" stop-opacity="0"/>
<stop offset="1" stop-color="white"/>
</linearGradient>
<linearGradient id="paint2_linear" x1="4.3062" y1="9.40039" x2="4.3062" y2="27.7934" gradientUnits="userSpaceOnUse">
<stop stop-color="#00A3FF" stop-opacity="0"/>
<stop offset="1" stop-color="white"/>
</linearGradient>
</defs>
</svg>
