<svg width="559" height="88" viewBox="0 0 559 88" fill="none" xmlns="http://www.w3.org/2000/svg">
<g filter="url(#filter0_d)">
<path d="M45.6339 47.8244C58.0623 69.6417 84.4399 79.0074 84.4399 79.0074C84.4399 79.0074 90.667 53.0003 78.2386 31.183C65.8101 9.36567 39.4326 0 39.4326 0C39.4326 0 33.2055 26.0071 45.6339 47.8244Z" fill="#2F2E41"/>
<path d="M54.1765 40.6481C76.6149 53.4264 85.2567 78.8076 85.2567 78.8076C85.2567 78.8076 57.5186 83.4711 35.0802 70.6928C12.6417 57.9145 4 32.5334 4 32.5334C4 32.5334 31.7381 27.8699 54.1765 40.6481Z" fill="#63C7FF"/>
<path d="M555 78H29V80H555V78Z" fill="#2F2E41"/>
</g>
<defs>
<filter id="filter0_d" x="0" y="0" width="559" height="88" filterUnits="userSpaceOnUse" color-interpolation-filters="sRGB">
<feFlood flood-opacity="0" result="BackgroundImageFix"/>
<feColorMatrix in="SourceAlpha" type="matrix" values="0 0 0 0 0 0 0 0 0 0 0 0 0 0 0 0 0 0 127 0"/>
<feOffset dy="4"/>
<feGaussianBlur stdDeviation="2"/>
<feColorMatrix type="matrix" values="0 0 0 0 0 0 0 0 0 0 0 0 0 0 0 0 0 0 0.25 0"/>
<feBlend mode="normal" in2="BackgroundImageFix" result="effect1_dropShadow"/>
<feBlend mode="normal" in="SourceGraphic" in2="effect1_dropShadow" result="shape"/>
</filter>
</defs>
</svg>
