<svg width="559" height="88" viewBox="0 0 559 88" fill="none" xmlns="http://www.w3.org/2000/svg">
<g filter="url(#filter0_d)">
<path d="M513.366 47.8244C500.938 69.6417 474.56 79.0074 474.56 79.0074C474.56 79.0074 468.333 53.0003 480.761 31.183C493.19 9.36567 519.567 0 519.567 0C519.567 0 525.795 26.0071 513.366 47.8244Z" fill="white" fill-opacity="0.25"/>
<path d="M504.823 40.6481C482.385 53.4264 473.743 78.8076 473.743 78.8076C473.743 78.8076 501.481 83.4711 523.92 70.6928C546.358 57.9145 555 32.5334 555 32.5334C555 32.5334 527.262 27.8699 504.823 40.6481Z" fill="#63C7FF"/>
<path d="M4 78H530V80H4V78Z" fill="white"/>
</g>
<defs>
<filter id="filter0_d" x="0" y="0" width="559" height="88" filterUnits="userSpaceOnUse" color-interpolation-filters="sRGB">
<feFlood flood-opacity="0" result="BackgroundImageFix"/>
<feColorMatrix in="SourceAlpha" type="matrix" values="0 0 0 0 0 0 0 0 0 0 0 0 0 0 0 0 0 0 127 0"/>
<feOffset dy="4"/>
<feGaussianBlur stdDeviation="2"/>
<feColorMatrix type="matrix" values="0 0 0 0 0 0 0 0 0 0 0 0 0 0 0 0 0 0 0.25 0"/>
<feBlend mode="normal" in2="BackgroundImageFix" result="effect1_dropShadow"/>
<feBlend mode="normal" in="SourceGraphic" in2="effect1_dropShadow" result="shape"/>
</filter>
</defs>
</svg>
